<svg width="519" height="200" viewBox="0 0 519 200" fill="none" xmlns="http://www.w3.org/2000/svg">
<g clip-path="url(#clip0_75_42)">
<path d="M80.17 40.05L66.39 33.44L68.74 21.41L73.65 22.37L72.04 30.6L82.34 35.54L80.17 40.05Z" fill="#F9B117"/>
<path d="M80.17 40.05L66.39 33.44L68.74 21.41L73.65 22.37L72.04 30.6L82.34 35.54L80.17 40.05Z" stroke="#141414" stroke-width="2" stroke-miterlimit="10"/>
<path d="M71.2 24.42C74.6407 24.42 77.43 21.6307 77.43 18.19C77.43 14.7493 74.6407 11.96 71.2 11.96C67.7593 11.96 64.97 14.7493 64.97 18.19C64.97 21.6307 67.7593 24.42 71.2 24.42Z" fill="#0E394F"/>
<path d="M71.2 24.42C74.6407 24.42 77.43 21.6307 77.43 18.19C77.43 14.7493 74.6407 11.96 71.2 11.96C67.7593 11.96 64.97 14.7493 64.97 18.19C64.97 21.6307 67.7593 24.42 71.2 24.42Z" stroke="#141414" stroke-width="2" stroke-miterlimit="10"/>
<path d="M63.68 52.6C64.5284 48.8261 66.3569 45.3425 68.981 42.5006C71.6051 39.6588 74.9321 37.559 78.6266 36.413C82.3211 35.267 86.2524 35.1154 90.0241 35.9734C93.7959 36.8314 97.2748 38.6687 100.11 41.3L111.62 52L151.14 88.54L99.73 104.54L48.33 120.54L60.22 67.9L63.68 52.6Z" fill="#FACA3F"/>
<path d="M113.19 53.29L62.29 69.09L63.07 65.64C68.4095 64.6698 73.5542 62.8322 78.3 60.2C86.7959 55.6636 93.6962 48.6307 98.07 40.05C99.5109 40.8979 100.853 41.9041 102.07 43.05L113.19 53.29Z" fill="#F99F00"/>
<path d="M359.96 179.64H381.02C384.175 179.648 387.3 179.033 390.217 177.832C393.134 176.631 395.785 174.867 398.02 172.64C402.521 168.139 408.625 165.611 414.99 165.611C421.355 165.611 427.459 168.139 431.96 172.64L436.46 177.14C438.695 179.367 441.346 181.131 444.263 182.332C447.18 183.533 450.305 184.148 453.46 184.14H486.02" stroke="#141414" stroke-width="2" stroke-miterlimit="10"/>
<path d="M510.18 174.86C505.32 165.55 496.62 158.57 485.39 158.57C479.114 158.579 473.01 160.614 467.984 164.373C462.959 168.132 459.282 173.413 457.5 179.43C457.224 180.396 457.176 181.413 457.361 182.4C457.546 183.388 457.957 184.319 458.563 185.12C459.169 185.921 459.954 186.57 460.854 187.016C461.754 187.462 462.745 187.693 463.75 187.69H499.46L511.12 186.69" fill="#2C6E9B"/>
<path opacity="0.3" d="M466.61 179.43C466.332 180.395 466.283 181.412 466.466 182.4C466.649 183.387 467.06 184.319 467.665 185.12C468.27 185.921 469.054 186.571 469.954 187.017C470.854 187.463 471.846 187.694 472.85 187.69H463.71C462.705 187.693 461.714 187.462 460.814 187.016C459.914 186.57 459.129 185.921 458.523 185.12C457.917 184.319 457.506 183.388 457.321 182.4C457.136 181.413 457.184 180.396 457.46 179.43C459.244 173.406 462.927 168.12 467.96 164.361C472.994 160.602 479.108 158.57 485.39 158.57C486.924 158.568 488.455 158.688 489.97 158.93C484.539 159.795 479.464 162.18 475.33 165.807C471.196 169.435 468.173 174.157 466.61 179.43Z" fill="#0E3964"/>
<path d="M511.2 183.56C511.242 178.44 509.688 173.433 506.755 169.236C503.821 165.039 499.653 161.86 494.83 160.14C491.121 158.872 487.195 158.365 483.286 158.65C479.377 158.935 475.566 160.006 472.08 161.798C468.595 163.591 465.507 166.068 463.002 169.083C460.496 172.097 458.625 175.586 457.5 179.34C457.212 180.309 457.155 181.332 457.331 182.327C457.508 183.322 457.915 184.262 458.518 185.073C459.122 185.884 459.907 186.542 460.81 186.996C461.713 187.451 462.709 187.688 463.72 187.69H507.09C507.632 187.69 508.168 187.583 508.669 187.375C509.169 187.168 509.624 186.863 510.007 186.48C510.39 186.096 510.693 185.641 510.899 185.14C511.106 184.639 511.211 184.102 511.21 183.56H511.2Z" stroke="#141414" stroke-width="2" stroke-miterlimit="10"/>
<path d="M69.0649 143.095L85.8464 137.891L95.7279 169.754C96.4192 171.983 96.1967 174.396 95.1093 176.461C94.0219 178.526 92.1586 180.074 89.9295 180.766C87.7003 181.457 85.2878 181.234 83.2227 180.147C81.1576 179.06 79.6091 177.196 78.9177 174.967L69.0362 143.104L69.0649 143.095Z" fill="#EABD35"/>
<path d="M130.201 123.278L147.011 118.064L156.892 149.927C157.584 152.156 157.361 154.569 156.274 156.634C155.186 158.699 153.323 160.248 151.094 160.939C148.865 161.63 146.452 161.408 144.387 160.32C142.322 159.233 140.774 157.37 140.082 155.141L130.201 123.278Z" fill="#EABD35"/>
<path d="M69.0649 143.095L85.8464 137.891L95.7279 169.754C96.4192 171.983 96.1967 174.396 95.1093 176.461C94.0219 178.526 92.1586 180.074 89.9295 180.766C87.7003 181.457 85.2878 181.234 83.2227 180.147C81.1576 179.06 79.6091 177.196 78.9177 174.967L69.0362 143.104L69.0649 143.095Z" stroke="#141414" stroke-width="2" stroke-miterlimit="10"/>
<path d="M130.201 123.278L147.011 118.064L156.892 149.927C157.584 152.156 157.361 154.569 156.274 156.634C155.186 158.699 153.323 160.248 151.094 160.939C148.865 161.63 146.452 161.408 144.387 160.32C142.322 159.233 140.774 157.37 140.082 155.141L130.201 123.278Z" stroke="#141414" stroke-width="2" stroke-miterlimit="10"/>
<path opacity="0.7" d="M75.35 150.87L78.66 161.55" stroke="white" stroke-width="2.8" stroke-linecap="round" stroke-linejoin="round"/>
<path d="M74.1793 129.079L134.772 110.288L146.917 149.448C147.617 151.706 147.866 154.079 147.649 156.433C147.431 158.787 146.753 161.075 145.652 163.166C144.55 165.258 143.048 167.112 141.23 168.623C139.412 170.134 137.314 171.272 135.056 171.972L108.791 180.118C104.231 181.532 99.2962 181.077 95.0721 178.852C90.8481 176.628 87.6806 172.817 86.2666 168.257L74.122 129.097L74.1793 129.079Z" fill="#FACA3F"/>
<path d="M140.09 127.497L79.4966 146.288L81.8011 153.719L142.394 134.928L140.09 127.497Z" fill="#F7B000"/>
<path d="M74.1793 129.079L134.772 110.288L146.917 149.448C147.617 151.706 147.866 154.079 147.649 156.433C147.431 158.787 146.753 161.075 145.652 163.166C144.55 165.258 143.048 167.112 141.23 168.623C139.412 170.134 137.314 171.272 135.056 171.972L108.791 180.118C104.231 181.532 99.2962 181.077 95.0721 178.852C90.8481 176.628 87.6806 172.817 86.2666 168.257L74.122 129.097L74.1793 129.079Z" stroke="#141414" stroke-width="2" stroke-miterlimit="10"/>
<path d="M63.68 52.6C64.5284 48.8261 66.3569 45.3425 68.981 42.5006C71.6051 39.6588 74.9321 37.559 78.6266 36.413C82.3211 35.267 86.2524 35.1154 90.0241 35.9734C93.7959 36.8314 97.2748 38.6687 100.11 41.3L111.62 52L150.14 88.54L99.73 104.54L49.33 120.54L60.22 67.9L63.68 52.6Z" stroke="#141414" stroke-width="2" stroke-miterlimit="10"/>
<path d="M125.407 47.2412L47.5514 71.5712C40.6271 73.735 36.768 81.1025 38.9318 88.0268L55.4078 140.75C57.5717 147.674 64.9391 151.533 71.8634 149.37L149.719 125.04C156.644 122.876 160.503 115.508 158.339 108.584L141.863 55.8608C139.699 48.9365 132.332 45.0773 125.407 47.2412Z" fill="#F9B117"/>
<path opacity="0.5" d="M155.89 104.53L157.13 108.53C158.155 111.837 157.826 115.416 156.213 118.48C154.6 121.545 151.837 123.843 148.53 124.87L71.07 148.87C67.7614 149.896 64.1809 149.566 61.1152 147.954C58.0495 146.341 55.7493 143.577 54.72 140.27L53.48 136.27C54.5071 139.577 56.8054 142.34 59.8695 143.953C62.9336 145.566 66.5127 145.895 69.82 144.87L147.29 120.87C148.932 120.368 150.458 119.546 151.78 118.452C153.103 117.357 154.196 116.011 154.995 114.492C155.795 112.973 156.285 111.31 156.439 109.601C156.593 107.891 156.406 106.167 155.89 104.53Z" fill="#E59303"/>
<path d="M125.63 54.4952L51.4988 77.6612C47.3421 78.9602 45.0254 83.3829 46.3244 87.5396L61.7564 136.922C63.0554 141.079 67.4781 143.395 71.6348 142.096L145.766 118.93C149.923 117.631 152.239 113.209 150.94 109.052L135.508 59.6696C134.209 55.5129 129.787 53.1962 125.63 54.4952Z" fill="#0E394F"/>
<path d="M147.59 102L149.78 109C150.085 109.984 150.193 111.018 150.098 112.043C150.003 113.068 149.707 114.065 149.227 114.976C148.747 115.887 148.092 116.694 147.3 117.352C146.508 118.01 145.594 118.505 144.61 118.81L70.86 141.68C68.8722 142.296 66.7212 142.097 64.8798 141.128C63.0384 140.158 61.6572 138.497 61.04 136.51L58.86 129.51C59.4771 131.495 60.8572 133.153 62.6968 134.121C64.5363 135.089 66.6849 135.286 68.67 134.67L142.43 111.79C144.412 111.175 146.068 109.798 147.036 107.963C148.003 106.127 148.203 103.982 147.59 102Z" fill="#062538"/>
<path d="M87.5724 93.5938C87.0702 91.9744 85.3502 91.0687 83.7308 91.571C82.1114 92.0732 81.2057 93.7931 81.7079 95.4125L85.4668 107.533C85.969 109.152 87.689 110.058 89.3084 109.556C90.9278 109.054 91.8335 107.334 91.3313 105.714L87.5724 93.5938Z" fill="#4CF58C"/>
<path d="M109.469 86.8045C108.967 85.1851 107.247 84.2794 105.627 84.7817C104.008 85.2839 103.102 87.0038 103.604 88.6232L107.363 100.744C107.865 102.363 109.585 103.269 111.205 102.767C112.824 102.264 113.73 100.544 113.228 98.925L109.469 86.8045Z" fill="#4CF58C"/>
<path d="M64.5803 84.9838C65.9412 84.5615 66.702 83.116 66.2797 81.7551C65.8574 80.3942 64.4119 79.6334 63.051 80.0557L53.2042 83.1113C51.8433 83.5336 51.0825 84.9791 51.5048 86.34C51.9271 87.7009 53.3726 88.4618 54.7335 88.0395L64.5803 84.9838Z" fill="#185472"/>
<path d="M70.53 83.01C71.8886 83.01 72.99 81.9086 72.99 80.55C72.99 79.1914 71.8886 78.09 70.53 78.09C69.1714 78.09 68.07 79.1914 68.07 80.55C68.07 81.9086 69.1714 83.01 70.53 83.01Z" fill="#185472"/>
<path d="M71.7935 65.5595L56.034 70.447C55.0792 70.7431 54.5446 71.755 54.8398 72.7071C55.1351 73.6592 56.1485 74.1911 57.1033 73.895L72.8628 69.0075C73.8176 68.7114 74.3522 67.6995 74.0569 66.7474C73.7616 65.7952 72.7483 65.2634 71.7935 65.5595Z" fill="#FFCB6E"/>
<path d="M76.8 67.68C77.8383 67.68 78.68 66.8383 78.68 65.8C78.68 64.7617 77.8383 63.92 76.8 63.92C75.7617 63.92 74.92 64.7617 74.92 65.8C74.92 66.8383 75.7617 67.68 76.8 67.68Z" fill="#FFCB6E"/>
<path d="M85.9626 45.8223L77.2328 48.5297C76.6314 48.7162 76.2951 49.3548 76.4816 49.9562C76.6681 50.5575 77.3068 50.8939 77.9081 50.7074L86.638 48C87.2393 47.8135 87.5756 47.1748 87.3891 46.5735C87.2026 45.9721 86.564 45.6358 85.9626 45.8223Z" fill="#F7B40D"/>
<path d="M84.8778 42.3318L76.1479 45.0392C75.5466 45.2257 75.2103 45.8643 75.3968 46.4657C75.5833 47.067 76.2219 47.4033 76.8233 47.2168L85.5531 44.5095C86.1545 44.323 86.4908 43.6843 86.3043 43.083C86.1178 42.4816 85.4791 42.1453 84.8778 42.3318Z" fill="#F7B40D"/>
<path d="M122.231 154.63L108.888 158.768C107.965 159.054 107.448 160.032 107.733 160.953C108.019 161.873 108.998 162.388 109.921 162.101L123.265 157.963C124.188 157.677 124.705 156.699 124.419 155.778C124.134 154.858 123.154 154.344 122.231 154.63Z" fill="#F7B40D"/>
<path d="M121.751 149.554L108.34 153.745C107.412 154.035 106.894 155.02 107.183 155.945C107.473 156.87 108.459 157.385 109.387 157.095L122.798 152.904C123.726 152.614 124.244 151.629 123.955 150.704C123.666 149.779 122.679 149.264 121.751 149.554Z" fill="#F7B40D"/>
<path d="M125.407 47.2412L47.5514 71.5712C40.6271 73.735 36.768 81.1025 38.9318 88.0268L55.4078 140.75C57.5717 147.674 64.9391 151.533 71.8634 149.37L149.719 125.04C156.644 122.876 160.503 115.508 158.339 108.584L141.863 55.8608C139.699 48.9365 132.332 45.0773 125.407 47.2412Z" stroke="#141414" stroke-width="2.01157" stroke-miterlimit="10"/>
<path opacity="0.2" d="M408.5 189.43C408.5 195.23 289.78 199.93 186.5 199.93C83.22 199.93 -0.5 195.23 -0.5 189.43C-0.5 183.63 83.22 178.93 186.5 178.93C289.78 178.93 408.5 183.63 408.5 189.43Z" fill="#0E394F"/>
<path opacity="0.2" d="M518.69 189.43C518.69 191.78 499.69 193.69 483.16 193.69C466.63 193.69 453.23 191.78 453.23 189.43C453.23 187.08 466.63 185.17 483.16 185.17C499.69 185.17 518.69 187.08 518.69 189.43Z" fill="#0E394F"/>
<path d="M372.26 1H166.85C165.399 1.00194 163.995 1.51532 162.885 2.44989C161.775 3.38446 161.029 4.68042 160.78 6.11L136.94 162.73C136.789 163.614 136.832 164.52 137.067 165.386C137.302 166.251 137.724 167.055 138.302 167.74C138.88 168.426 139.601 168.977 140.414 169.356C141.227 169.734 142.113 169.93 143.01 169.93H356.27C357.694 169.92 359.071 169.417 360.166 168.505C361.26 167.593 362.004 166.329 362.27 164.93L386.94 18.77C387.346 16.6085 387.272 14.3842 386.723 12.2545C386.174 10.1249 385.163 8.14204 383.762 6.44648C382.362 4.75092 380.605 3.38412 378.617 2.4429C376.63 1.50169 374.459 1.00909 372.26 1Z" fill="#0E3964"/>
<path d="M372.26 1H166.85C165.399 1.00194 163.995 1.51532 162.885 2.44989C161.775 3.38446 161.029 4.68042 160.78 6.11L136.94 162.73C136.789 163.614 136.832 164.52 137.067 165.386C137.302 166.251 137.724 167.055 138.302 167.74C138.88 168.426 139.601 168.977 140.414 169.356C141.227 169.734 142.113 169.93 143.01 169.93H356.27C357.694 169.92 359.071 169.417 360.166 168.505C361.26 167.593 362.004 166.329 362.27 164.93L386.94 18.77C387.346 16.6085 387.272 14.3842 386.723 12.2545C386.174 10.1249 385.163 8.14204 383.762 6.44648C382.362 4.75092 380.605 3.38412 378.617 2.4429C376.63 1.50169 374.459 1.00909 372.26 1Z" stroke="#141414" stroke-width="2" stroke-miterlimit="10"/>
<path d="M372.5 1H158.26C156.036 0.998784 153.884 1.78416 152.184 3.21715C150.484 4.65014 149.345 6.63837 148.97 8.83L124.35 169.93H350.5L377.8 7.39C377.947 6.61091 377.921 5.80895 377.722 5.04132C377.524 4.27368 377.158 3.55926 376.652 2.94899C376.146 2.33873 375.512 1.84765 374.794 1.51076C374.076 1.17387 373.293 0.999475 372.5 1Z" fill="#2C6E9B"/>
<path d="M372.5 1H158.26C156.036 0.998784 153.884 1.78416 152.184 3.21715C150.484 4.65014 149.345 6.63837 148.97 8.83L124.35 169.93H350.5L377.8 7.39C377.947 6.61091 377.92 5.80895 377.722 5.04132C377.524 4.27368 377.158 3.55926 376.652 2.94899C376.146 2.33873 375.512 1.84765 374.794 1.51076C374.076 1.17387 373.293 0.999475 372.5 1Z" stroke="#141414" stroke-width="2" stroke-miterlimit="10"/>
<path d="M366.64 13H159.75L137.92 157.93H342.69L366.64 13Z" fill="#0E394F"/>
<path d="M367.23 13.22L366.1 19.22H159.3L160.33 13.22H367.23Z" fill="#062538"/>
<path d="M165.65 13L143.81 157.93H137.81L159.65 13H165.65Z" fill="#062538"/>
<path d="M189.17 29.07H178.05L176.63 33.28H188.62L189.17 29.07Z" fill="#4CF58C"/>
<path d="M205.17 29.07H193.05L191.63 33.28H203.62L205.17 29.07Z" fill="#4CF58C"/>
<path d="M219.17 29.07H208.05L207.63 33.28H217.62L219.17 29.07Z" fill="#4CF58C"/>
<path d="M228.67 29.07H224.55L223.13 33.28H228.12L228.67 29.07Z" fill="#4CF58C"/>
<path d="M174.67 29.07H170.55L169.13 33.28L173.71 33.42L174.67 29.07Z" fill="#4CF58C"/>
<path d="M187.17 38.07H176.05L174.63 42.28H186.62L187.17 38.07Z" fill="#4CF58C"/>
<path d="M202.17 38.07H191.05L189.63 42.28H201.62L202.17 38.07Z" fill="#4CF58C"/>
<path d="M217.17 38.07H206.05L205.63 42.28H216.62L217.17 38.07Z" fill="#4CF58C"/>
<path d="M225.67 38.07H221.55L220.13 42.28H225.12L225.67 38.07Z" fill="#4CF58C"/>
<path d="M172.67 38.07H168.55L167.13 42.28H171.96L172.67 38.07Z" fill="#4CF58C"/>
<path d="M27.07 168.93H255.35V189.93H34.79C32.9927 189.931 31.2127 189.578 29.5518 188.892C27.8909 188.205 26.3817 187.197 25.1103 185.927C23.8389 184.656 22.8304 183.148 22.1423 181.487C21.4542 179.827 21.1 178.047 21.1 176.25V174.9C21.1079 173.319 21.7394 171.805 22.8573 170.687C23.9752 169.569 25.4891 168.938 27.07 168.93Z" fill="#19517F"/>
<path opacity="0.3" d="M255.35 181.93V189.93H34.78C31.1526 189.927 27.6746 188.485 25.1097 185.92C22.5448 183.355 21.1026 179.877 21.1 176.25V174.9C21.0956 173.999 21.301 173.108 21.7 172.3C22.5723 175.088 24.3109 177.525 26.6633 179.257C29.0156 180.988 31.8589 181.925 34.78 181.93H255.35Z" fill="#0E3964"/>
<path opacity="0.3" d="M353.36 162.93V168.93H124.53L125.36 162.93H353.36Z" fill="#0E3964"/>
<path d="M90.35 168.93H171.35C171.35 171.847 170.191 174.645 168.128 176.708C166.065 178.771 163.267 179.93 160.35 179.93H101.35C99.9055 179.93 98.4751 179.645 97.1405 179.093C95.8059 178.54 94.5933 177.73 93.5718 176.708C92.5504 175.687 91.7401 174.474 91.1873 173.14C90.6345 171.805 90.35 170.375 90.35 168.93Z" fill="#0E3964"/>
<path d="M90.35 168.93H171.35C171.35 171.847 170.191 174.645 168.128 176.708C166.065 178.771 163.267 179.93 160.35 179.93H101.35C99.9055 179.93 98.4751 179.645 97.1405 179.093C95.8059 178.54 94.5933 177.73 93.5718 176.708C92.5504 175.687 91.7401 174.474 91.1873 173.14C90.6345 171.805 90.35 170.375 90.35 168.93Z" stroke="#141414" stroke-width="2" stroke-miterlimit="10"/>
<path d="M366.55 13L342.6 157.93H137.87L363.74 13H366.55Z" fill="#062538"/>
<path d="M374.681 68.0356L376.521 56.218C376.67 55.2576 376.013 54.3577 375.053 54.2082C374.092 54.0586 373.192 54.716 373.043 55.6765L371.203 67.4941C371.053 68.4545 371.711 69.3543 372.671 69.5039C373.632 69.6534 374.531 68.996 374.681 68.0356Z" fill="#062C4C"/>
<path d="M378.142 45.7874L379.982 33.9698C380.132 33.0094 379.474 32.1095 378.514 31.96C377.553 31.8104 376.654 32.4678 376.504 33.4283L374.664 45.2459C374.515 46.2063 375.172 47.1061 376.132 47.2557C377.093 47.4052 377.993 46.7478 378.142 45.7874Z" fill="#062C4C"/>
<path d="M133.07 172.67H121.11C120.138 172.67 119.35 173.458 119.35 174.43C119.35 175.402 120.138 176.19 121.11 176.19H133.07C134.042 176.19 134.83 175.402 134.83 174.43C134.83 173.458 134.042 172.67 133.07 172.67Z" fill="#141414"/>
<path d="M61.89 168.99H37.58C36.1109 168.99 34.92 170.181 34.92 171.65C34.92 173.119 36.1109 174.31 37.58 174.31H61.89C63.3591 174.31 64.55 173.119 64.55 171.65C64.55 170.181 63.3591 168.99 61.89 168.99Z" fill="#2C6E9B"/>
<path d="M69.49 174.31C70.9591 174.31 72.15 173.119 72.15 171.65C72.15 170.181 70.9591 168.99 69.49 168.99C68.0209 168.99 66.83 170.181 66.83 171.65C66.83 173.119 68.0209 174.31 69.49 174.31Z" fill="#2C6E9B"/>
<path d="M139.178 89.9722L135.425 113.991C135.198 115.442 136.191 116.803 137.643 117.03C139.094 117.256 140.455 116.263 140.681 114.812L144.434 90.7934C144.661 89.3419 143.668 87.9814 142.217 87.7547C140.765 87.5279 139.405 88.5207 139.178 89.9722Z" fill="#4D9AC4"/>
<path d="M142.97 85.53C144.439 85.53 145.63 84.3391 145.63 82.87C145.63 81.4009 144.439 80.21 142.97 80.21C141.501 80.21 140.31 81.4009 140.31 82.87C140.31 84.3391 141.501 85.53 142.97 85.53Z" fill="#4D9AC4"/>
<path d="M188.89 3.99001H164.58C163.111 3.99001 161.92 5.18093 161.92 6.65001C161.92 8.11908 163.111 9.31001 164.58 9.31001H188.89C190.359 9.31001 191.55 8.11908 191.55 6.65001C191.55 5.18093 190.359 3.99001 188.89 3.99001Z" fill="#4D9AC4"/>
<path d="M196.49 9.31001C197.959 9.31001 199.15 8.11908 199.15 6.65001C199.15 5.18093 197.959 3.99001 196.49 3.99001C195.021 3.99001 193.83 5.18093 193.83 6.65001C193.83 8.11908 195.021 9.31001 196.49 9.31001Z" fill="#4D9AC4"/>
<path d="M245.35 9.93001C247.007 9.93001 248.35 8.58686 248.35 6.93001C248.35 5.27315 247.007 3.93001 245.35 3.93001C243.693 3.93001 242.35 5.27315 242.35 6.93001C242.35 8.58686 243.693 9.93001 245.35 9.93001Z" fill="#F95D5D"/>
<path d="M94.07 163.93H71.07V168.93H94.07V163.93Z" fill="#033156"/>
<path d="M59.35 163.93H36.35V168.93H59.35V163.93Z" fill="#033156"/>
<path d="M128.78 163.93H105.78V168.93H128.78V163.93Z" fill="#033156"/>
<path d="M163.5 163.93H140.5V168.93H163.5V163.93Z" fill="#033156"/>
<path d="M198.21 163.93H175.21V168.93H198.21V163.93Z" fill="#033156"/>
<path d="M232.93 163.93H209.93V168.93H232.93V163.93Z" fill="#033156"/>
<path d="M267.64 163.93H244.64V168.93H267.64V163.93Z" fill="#033156"/>
<path d="M337.35 163.93H314.35V168.93H337.35V163.93Z" fill="#033156"/>
<path d="M302.49 164.08H279.49V169.08H302.49V164.08Z" fill="#033156"/>
<path d="M94.07 163.93H71.07V168.93H94.07V163.93Z" stroke="#141414" stroke-width="2" stroke-miterlimit="10"/>
<path d="M59.35 163.93H36.35V168.93H59.35V163.93Z" stroke="#141414" stroke-width="2" stroke-miterlimit="10"/>
<path d="M128.78 163.93H105.78V168.93H128.78V163.93Z" stroke="#141414" stroke-width="2" stroke-miterlimit="10"/>
<path d="M163.5 163.93H140.5V168.93H163.5V163.93Z" stroke="#141414" stroke-width="2" stroke-miterlimit="10"/>
<path d="M198.21 163.93H175.21V168.93H198.21V163.93Z" stroke="#141414" stroke-width="2" stroke-miterlimit="10"/>
<path d="M232.93 163.93H209.93V168.93H232.93V163.93Z" stroke="#141414" stroke-width="2" stroke-miterlimit="10"/>
<path d="M267.64 163.93H244.64V168.93H267.64V163.93Z" stroke="#141414" stroke-width="2" stroke-miterlimit="10"/>
<path d="M337.35 163.93H314.35V168.93H337.35V163.93Z" stroke="#141414" stroke-width="2" stroke-miterlimit="10"/>
<path d="M302.49 164.08H279.49V169.08H302.49V164.08Z" stroke="#141414" stroke-width="2" stroke-miterlimit="10"/>
<path d="M366.54 13H159.65L137.82 157.93H342.59L366.54 13Z" stroke="#141414" stroke-width="2" stroke-miterlimit="10"/>
<path d="M338.19 29.57H252.19C250.146 29.5667 248.17 30.2981 246.62 31.6309C245.071 32.9636 244.052 34.8088 243.75 36.83L235.4 92.23C235.217 93.4443 235.299 94.6837 235.639 95.8636C235.979 97.0435 236.57 98.136 237.372 99.0664C238.173 99.9969 239.166 100.743 240.282 101.255C241.398 101.766 242.612 102.031 243.84 102.03H329.07C331.094 102.033 333.053 101.317 334.597 100.009C336.141 98.7011 337.17 96.8867 337.5 94.89L346.66 39.49C346.862 38.2643 346.795 37.0091 346.462 35.8122C346.128 34.6154 345.538 33.5058 344.731 32.561C343.924 31.6162 342.921 30.859 341.791 30.3423C340.661 29.8257 339.432 29.5621 338.19 29.57Z" fill="white"/>
<path d="M346.5 39.5L337.35 94.89C337.019 96.8841 335.991 98.6961 334.449 100.003C332.907 101.311 330.951 102.029 328.93 102.03H243.71C241.761 102.03 239.87 101.363 238.351 100.141C236.833 98.9187 235.777 97.2142 235.36 95.31L337.82 29.57H338.09C339.328 29.5723 340.55 29.8437 341.673 30.3653C342.795 30.8869 343.791 31.6462 344.591 32.5907C345.391 33.5352 345.976 34.6423 346.305 35.8353C346.635 37.0284 346.701 38.2788 346.5 39.5Z" fill="#F4F3F2"/>
<path d="M27.07 168.93H255.35V189.93H34.79C32.9927 189.931 31.2127 189.578 29.5518 188.892C27.8909 188.205 26.3817 187.197 25.1103 185.927C23.8389 184.656 22.8304 183.148 22.1423 181.487C21.4542 179.827 21.1 178.047 21.1 176.25V174.9C21.1079 173.319 21.7394 171.805 22.8573 170.687C23.9752 169.569 25.4891 168.938 27.07 168.93Z" stroke="#141414" stroke-width="2" stroke-miterlimit="10"/>
<path d="M360.85 168.93H244.85C239.051 168.93 234.35 173.631 234.35 179.43C234.35 185.229 239.051 189.93 244.85 189.93H360.85C366.649 189.93 371.35 185.229 371.35 179.43C371.35 173.631 366.649 168.93 360.85 168.93Z" fill="#0E3964"/>
<path d="M357.59 177.67H345.63C344.658 177.67 343.87 178.458 343.87 179.43C343.87 180.402 344.658 181.19 345.63 181.19H357.59C358.562 181.19 359.35 180.402 359.35 179.43C359.35 178.458 358.562 177.67 357.59 177.67Z" fill="#141414"/>
<path d="M335.07 177.67H323.11C322.138 177.67 321.35 178.458 321.35 179.43C321.35 180.402 322.138 181.19 323.11 181.19H335.07C336.042 181.19 336.83 180.402 336.83 179.43C336.83 178.458 336.042 177.67 335.07 177.67Z" fill="#141414"/>
<path d="M360.85 168.93H244.85C239.051 168.93 234.35 173.631 234.35 179.43C234.35 185.229 239.051 189.93 244.85 189.93H360.85C366.649 189.93 371.35 185.229 371.35 179.43C371.35 173.631 366.649 168.93 360.85 168.93Z" stroke="#141414" stroke-width="2" stroke-miterlimit="10"/>
<path d="M64.89 59.19L65.76 54.76" stroke="white" stroke-linecap="round" stroke-linejoin="round"/>
<path d="M66.04 53.72C66.3935 53.72 66.68 53.4335 66.68 53.08C66.68 52.7265 66.3935 52.44 66.04 52.44C65.6865 52.44 65.4 52.7265 65.4 53.08C65.4 53.4335 65.6865 53.72 66.04 53.72Z" fill="white"/>
<path d="M107.5 60.05L124.76 54.69C126.737 54.0984 128.868 54.3092 130.691 55.2768C132.514 56.2444 133.882 57.8909 134.5 59.86L138.7 73.42" stroke="#141414" stroke-width="2" stroke-linecap="round" stroke-linejoin="round"/>
<path d="M88.92 65.8L100.35 62.25" stroke="#141414" stroke-width="2" stroke-linecap="round" stroke-linejoin="round"/>
<path d="M130.85 123.07L70.85 141.68C68.8622 142.296 66.7112 142.097 64.8698 141.128C63.0284 140.158 61.6472 138.497 61.03 136.51L45.8 87.39C45.1841 85.4022 45.3827 83.2512 46.3522 81.4098C47.3216 79.5684 48.9826 78.1872 50.97 77.57L82.86 67.68" stroke="#141414" stroke-width="2" stroke-linecap="round" stroke-linejoin="round"/>
<path d="M264.89 76.4H253.77L252.35 80.62H264.34L264.89 76.4Z" fill="#EABD35"/>
<path d="M280.89 76.4H268.77L267.36 80.62H279.34L280.89 76.4Z" fill="#EABD35"/>
<path d="M294.89 76.4H283.77L283.36 80.62H293.34L294.89 76.4Z" fill="#EABD35"/>
<path d="M304.39 76.4H300.27L298.86 80.62H303.84L304.39 76.4Z" fill="#EABD35"/>
<path d="M250.39 76.4H246.27L244.85 80.62L249.43 80.75L250.39 76.4Z" fill="#EABD35"/>
<path d="M262.89 85.4H251.77L250.35 89.62H262.34L262.89 85.4Z" fill="#EABD35"/>
<path d="M277.89 85.4H266.77L265.36 89.62H277.34L277.89 85.4Z" fill="#EABD35"/>
<path d="M292.89 85.4H281.77L281.36 89.62H292.34L292.89 85.4Z" fill="#EABD35"/>
<path d="M301.39 85.4H297.27L295.86 89.62H300.84L301.39 85.4Z" fill="#EABD35"/>
<path d="M248.39 85.4H244.27L242.85 89.62H247.68L248.39 85.4Z" fill="#EABD35"/>
<path d="M338.19 29.57H252.19C250.146 29.5667 248.17 30.2981 246.62 31.6309C245.071 32.9636 244.052 34.8088 243.75 36.83L235.4 92.23C235.217 93.4443 235.299 94.6837 235.639 95.8636C235.979 97.0435 236.57 98.136 237.372 99.0664C238.173 99.9969 239.166 100.743 240.282 101.255C241.398 101.766 242.612 102.031 243.84 102.03H329.07C331.094 102.033 333.053 101.317 334.597 100.009C336.141 98.7011 337.17 96.8867 337.5 94.89L346.66 39.49C346.862 38.2643 346.795 37.0091 346.462 35.8122C346.128 34.6154 345.538 33.5058 344.731 32.561C343.924 31.6162 342.921 30.859 341.791 30.3423C340.661 29.8257 339.432 29.5621 338.19 29.57Z" stroke="#141414" stroke-width="1.3" stroke-miterlimit="10"/>
</g>
<defs>
<clipPath id="clip0_75_42">
<rect width="519.19" height="199.93" fill="white" transform="translate(-0.5)"/>
</clipPath>
</defs>
</svg>
