<svg width="400" height="324" viewBox="0 0 400 324" fill="none" xmlns="http://www.w3.org/2000/svg">
<path d="M128.703 10.4634C131.406 10.4634 133.597 8.51518 133.597 6.11194C133.597 3.70871 131.406 1.7605 128.703 1.7605C126 1.7605 123.809 3.70871 123.809 6.11194C123.809 8.51518 126 10.4634 128.703 10.4634Z" fill="#B5E4F9"/>
<path d="M79.4979 115.124H317.506C322.774 115.124 327.048 118.924 327.048 123.608V257.752C327.048 262.834 322.408 266.959 316.691 266.959H78.9599C73.2435 266.959 68.6032 262.834 68.6032 257.752V124.81C68.6032 119.462 73.4901 115.117 79.5053 115.117L79.4979 115.124Z" fill="#6B717F"/>
<path d="M301.836 124.764H84.4744C81.6063 124.764 79.2812 126.831 79.2812 129.381V253.394C79.2812 255.944 81.6063 258.011 84.4744 258.011H301.836C304.705 258.011 307.03 255.944 307.03 253.394V129.381C307.03 126.831 304.705 124.764 301.836 124.764Z" fill="#C2EBF9"/>
<path d="M207.835 239.655C244.576 239.655 274.361 236.642 274.361 232.925C274.361 229.208 244.576 226.195 207.835 226.195C171.093 226.195 141.309 229.208 141.309 232.925C141.309 236.642 171.093 239.655 207.835 239.655Z" fill="#111111"/>
<path d="M224.162 211.028C225.619 214.802 225.26 218.735 223.504 222.09L220.508 226.009C218.714 227.69 216.458 229.025 213.82 229.829C205.122 232.48 195.655 228.368 192.673 220.635" fill="#BAC3CC"/>
<path d="M221.509 206.365C222.966 210.138 222.607 214.071 220.851 217.426L217.855 221.346C216.062 223.026 213.805 224.362 211.167 225.166C202.47 227.816 193.002 223.704 190.021 215.971" fill="#8DA3B5"/>
<path d="M227.337 124.764C224.513 122.777 221.449 121.063 218.191 119.655L212.677 117.629C203.568 114.845 193.316 114.393 182.832 117.104L172.423 119.794L162.015 122.485C123.861 132.344 113.549 176.084 144.051 198.725L158.958 209.799C185.007 229.138 224.281 219.957 236.738 192.6L239.151 186.302L243.963 172.922C247.655 162.644 246.952 152.526 243.111 143.697L227.352 124.77L227.337 124.764Z" fill="#818A91"/>
<path d="M246.99 159.529C246.99 163.973 246.22 168.55 244.554 173.168L239.741 186.547L237.328 192.852C225.073 219.771 186.845 229.092 160.804 210.949C184.872 218.303 212.729 208.072 222.847 185.823L225.268 179.519L230.08 166.145C231.731 161.535 232.508 156.951 232.508 152.507C232.508 147.046 231.35 141.784 229.22 136.921L213.461 118.001C213.409 117.967 213.349 117.921 213.297 117.888L218.797 119.901C222.047 121.316 225.118 123.036 227.943 125.016L243.702 143.943C245.816 148.8 246.99 154.068 246.99 159.522V159.529Z" fill="#556A7C"/>
<path d="M214.971 153.536C215.225 151.038 214.971 148.454 214.134 145.903C212.52 140.967 209.023 136.974 204.547 134.363L197.471 131.593C193.578 130.709 189.371 130.716 185.238 131.786L155.603 139.439C143.237 142.634 136.123 154.134 139.717 165.136C143.311 176.131 156.246 182.455 168.62 179.26L182.713 175.619L201.79 166.511L214.978 153.55L214.971 153.536Z" fill="white"/>
<path d="M226.665 266.959H169.741V291.959H226.665V266.959Z" fill="#6B717F"/>
<path d="M226.665 266.959H169.741V272.307H226.665V266.959Z" fill="#41485B"/>
<path d="M212.572 180.754C208.604 183.073 204.33 185.046 199.802 186.614L187.219 190.965L180.875 176.463L183.931 175.406C206.908 167.454 223.302 149.138 226.852 127.448C227.547 123.216 231.955 120.273 236.723 120.857C241.527 121.449 244.875 125.408 244.18 129.68L242.73 138.582C240.317 153.45 231.866 166.743 219.387 176.197" fill="#BAC3CC"/>
<path d="M244.815 129.62C244.815 129.985 244.793 130.364 244.725 130.736L243.276 139.632C240.855 154.506 232.411 167.793 219.932 177.253L213.118 181.804C209.15 184.123 204.868 186.089 200.34 187.664L187.757 192.022L185.306 186.428L193.316 183.658C197.844 182.09 202.118 180.123 206.086 177.798L212.908 173.247C225.372 163.794 233.831 150.5 236.244 135.626L237.694 126.73C237.761 126.351 237.791 125.973 237.791 125.601C237.791 124.265 237.403 122.983 236.708 121.867C236.887 121.874 237.081 121.894 237.268 121.914C241.654 122.458 244.815 125.793 244.815 129.62Z" fill="#8DA3B5"/>
<path d="M221.173 80.7841C226.591 80.7841 230.984 76.8787 230.984 72.0613C230.984 67.2438 226.591 63.3384 221.173 63.3384C215.754 63.3384 211.362 67.2438 211.362 72.0613C211.362 76.8787 215.754 80.7841 221.173 80.7841Z" fill="#767F89"/>
<path d="M215.314 80.7841C220.733 80.7841 225.126 76.8787 225.126 72.0613C225.126 67.2438 220.733 63.3384 215.314 63.3384C209.896 63.3384 205.503 67.2438 205.503 72.0613C205.503 76.8787 209.896 80.7841 215.314 80.7841Z" fill="#556A7C"/>
<path d="M121.477 72.0546C126.665 72.0546 130.87 68.3158 130.87 63.7038C130.87 59.0918 126.665 55.353 121.477 55.353C116.29 55.353 112.085 59.0918 112.085 63.7038C112.085 68.3158 116.29 72.0546 121.477 72.0546Z" fill="#767F89"/>
<path d="M124.735 72.5263C129.923 72.5263 134.128 68.7875 134.128 64.1755C134.128 59.5635 129.923 55.8247 124.735 55.8247C119.548 55.8247 115.343 59.5635 115.343 64.1755C115.343 68.7875 119.548 72.5263 124.735 72.5263Z" fill="#556A7C"/>
<path d="M193.771 42.1844L150.571 38.7093C135.738 37.5161 122.625 47.2396 121.283 60.4274L119.381 79.1187C118.039 92.3065 128.976 103.965 143.809 105.158L187.009 108.633C201.842 109.826 214.955 100.103 216.297 86.9149L218.199 68.2235C219.541 55.0358 208.605 43.3776 193.771 42.1844Z" fill="#818A91"/>
<path d="M218.393 68.0287L217.9 72.8584C219.252 59.6646 208.246 48.012 193.324 46.8162L149.85 43.3417C134.927 42.1459 121.724 51.8652 120.379 65.0524L119.071 77.7148L120.865 60.2226C122.217 47.0421 135.413 37.3227 150.343 38.5119L193.817 41.9931C208.739 43.1889 219.746 54.8415 218.393 68.0287Z" fill="#9FA5AA"/>
<path d="M216.443 78.5187C219.917 94.1507 205.414 109.676 187.159 108.321L143.685 104.847C131.542 103.87 121.985 95.9643 119.594 85.9394C124.04 90.9286 130.713 94.35 138.439 94.9744C154.355 96.25 170.324 97.6584 186.217 98.5087C192.262 98.8343 198.352 97.0206 203.239 93.9248C209.247 90.1247 213.573 84.5243 216.443 78.512V78.5187Z" fill="#556A7C"/>
<path d="M176.182 266.959H227.128V291.959H176.182" stroke="#111111" stroke-width="3.28" stroke-miterlimit="10"/>
<path d="M107.325 115.124H158.719" stroke="#111111" stroke-width="3.28" stroke-linecap="round" stroke-linejoin="round"/>
<path d="M123.876 124.066H154.946" stroke="#111111" stroke-width="2.46" stroke-linecap="round" stroke-linejoin="round"/>
<path d="M169.741 272.228V266.959H220.687V291.959H169.741V278.174" stroke="#111111" stroke-width="3.28" stroke-linecap="round" stroke-linejoin="round"/>
<path d="M299.886 161.203V198.951" stroke="#111111" stroke-width="2.46" stroke-linecap="round" stroke-linejoin="round"/>
<path d="M88.6141 207.322V245.063" stroke="#111111" stroke-width="2.46" stroke-linecap="round" stroke-linejoin="round"/>
<path d="M227.233 124.764C224.408 122.777 221.345 121.063 218.087 119.655" stroke="#111111" stroke-width="3.28" stroke-linecap="round" stroke-linejoin="round"/>
<path d="M219.387 225.617C217.594 227.298 215.337 228.634 212.699 229.437C204.001 232.088 194.534 227.976 191.553 220.243" stroke="#111111" stroke-width="3.28" stroke-miterlimit="10" stroke-linecap="round"/>
<path d="M182.063 175.048L167.97 178.688C155.603 181.884 142.661 175.559 139.067 164.564C135.473 153.569 142.587 142.063 154.953 138.868L184.588 131.214C188.728 130.145 192.927 130.145 196.821 131.022" stroke="#111111" stroke-width="2.46" stroke-miterlimit="10" stroke-linecap="round"/>
<path d="M193.802 224.103C193.802 224.103 208.739 227.026 223.938 214.908" stroke="#111111" stroke-width="1.64" stroke-miterlimit="10" stroke-linecap="round"/>
<path d="M165.564 106.866L169.808 119.11" stroke="#111111" stroke-width="3.28" stroke-linecap="round" stroke-linejoin="round"/>
<path d="M127.679 10.5099C130.944 10.5099 133.59 8.15718 133.59 5.25495C133.59 2.35272 130.944 0 127.679 0C124.415 0 121.769 2.35272 121.769 5.25495C121.769 8.15718 124.415 10.5099 127.679 10.5099Z" stroke="#111111" stroke-width="1.64" stroke-miterlimit="10"/>
<path d="M185.985 61.5785L138.044 57.722C133.046 57.3199 128.628 60.5961 128.176 65.0396L128.175 65.0462C127.723 69.4896 131.408 73.4176 136.406 73.8197L184.347 77.6762C189.345 78.0782 193.763 74.802 194.215 70.3586L194.216 70.352C194.668 65.9085 190.983 61.9805 185.985 61.5785Z" fill="#3D4851"/>
<path d="M193.615 70.055C193.182 74.4263 189.221 77.7148 184.558 77.7148C184.289 77.7148 184.013 77.7015 183.737 77.6816L135.809 73.6623C132.409 73.37 129.615 71.3969 128.322 68.6997C129.547 69.4703 131.004 69.9752 132.589 70.1015L180.523 74.1207C180.8 74.1407 181.084 74.154 181.36 74.154C186.008 74.154 189.961 70.8655 190.394 66.4941C190.536 65.0126 190.26 63.5843 189.64 62.3154C192.3 63.9696 193.921 66.886 193.615 70.0483V70.055Z" fill="#262F35"/>
<path d="M219.364 62.9664L221.95 63.1724C227.42 63.6108 231.447 67.9091 230.954 72.7721C230.461 77.6351 225.626 81.2159 220.157 80.7775L218.117 80.6114" stroke="#111111" stroke-width="3.28" stroke-miterlimit="10"/>
<path d="M121.731 55.1073C116.262 54.6688 111.435 58.2496 110.934 63.1126C110.433 67.9756 114.468 72.2672 119.938 72.7123" stroke="#111111" stroke-width="3.28" stroke-miterlimit="10"/>
<path d="M131.102 42.8767C135.839 39.6812 141.884 37.9937 148.273 38.5053L196.611 42.3983C210.226 43.4945 220.261 54.1904 219.028 66.2947L216.809 88.0985C216.518 90.9817 215.606 93.6922 214.209 96.1237" stroke="#111111" stroke-width="3.28" stroke-linecap="round" stroke-linejoin="round"/>
<path d="M119.325 85.388C119.056 83.7138 118.996 81.9865 119.176 80.2327L121.395 58.4289C121.896 53.4862 124.205 49.075 127.679 45.6603" stroke="#111111" stroke-width="3.28" stroke-linecap="round" stroke-linejoin="round"/>
<path d="M209.65 101.671C204.637 106.122 197.53 108.633 189.924 108.022L141.585 104.129C132.559 103.405 125.109 98.4556 121.47 91.6727" stroke="#111111" stroke-width="3.28" stroke-linecap="round" stroke-linejoin="round"/>
<path d="M144.858 36.5588C144.709 36.5588 144.559 36.5588 144.41 36.5455C144.641 36.5654 144.41 36.5455 144.357 36.5322C144.283 36.5189 144.216 36.499 144.141 36.4857C144.066 36.4724 143.999 36.4458 143.932 36.4193C143.707 36.3528 144.088 36.499 143.879 36.3993C143.73 36.3262 143.58 36.2465 143.431 36.1668C143.222 36.0539 143.565 36.2731 143.379 36.1336C143.319 36.0871 143.267 36.0472 143.207 36.0007C143.095 35.9077 142.998 35.8081 142.893 35.7084C142.729 35.549 142.99 35.8413 142.848 35.6619C142.803 35.6088 142.758 35.549 142.721 35.4958C142.624 35.3629 142.549 35.2234 142.474 35.0839C142.572 35.2633 142.474 35.064 142.452 35.0308C142.43 34.971 142.407 34.9046 142.385 34.8448C142.362 34.785 142.347 34.7185 142.332 34.6521C142.325 34.6122 142.288 34.3996 142.318 34.6122C142.303 34.4794 142.295 34.3531 142.295 34.2203C142.295 34.1538 142.303 34.0874 142.31 34.021C142.288 34.2402 142.332 33.9545 142.34 33.9147C142.355 33.8482 142.377 33.7818 142.4 33.722C142.415 33.6822 142.512 33.5028 142.4 33.6954C142.445 33.6091 142.497 33.5161 142.557 33.4364C142.594 33.3832 142.631 33.3367 142.669 33.2902C142.788 33.1241 142.534 33.4164 142.684 33.2703C142.788 33.1706 142.893 33.071 143.012 32.978C143.05 32.9514 143.229 32.8384 143.035 32.958C143.087 32.9248 143.147 32.8916 143.199 32.8584C143.311 32.7919 143.431 32.7321 143.55 32.679C143.61 32.6524 143.67 32.6259 143.73 32.6059C143.506 32.6923 143.715 32.6126 143.76 32.6059C143.909 32.5594 144.059 32.5196 144.215 32.493C144.283 32.4797 144.35 32.4731 144.417 32.4598C144.171 32.5063 144.387 32.4598 144.44 32.4598C144.574 32.4465 144.709 32.4465 144.843 32.4465C144.91 32.4465 144.978 32.4465 145.045 32.4531C145.105 32.4531 145.314 32.4996 145.067 32.4531C145.217 32.4797 145.366 32.5063 145.516 32.5461C145.575 32.5661 145.643 32.586 145.702 32.6059C145.478 32.5328 145.68 32.5993 145.725 32.6192C145.844 32.6724 145.957 32.7388 146.069 32.7986C146.255 32.9049 145.934 32.679 146.091 32.8185C146.136 32.8584 146.188 32.8982 146.24 32.9381C146.27 32.9647 146.3 32.9912 146.33 33.0245C146.36 33.051 146.39 33.0843 146.412 33.1108C146.338 33.0245 146.33 33.0112 146.382 33.0843C146.45 33.1839 146.524 33.2769 146.584 33.3832C146.607 33.4231 146.681 33.6024 146.599 33.3965C146.622 33.4496 146.644 33.5028 146.666 33.5559C146.704 33.6689 146.741 33.7752 146.764 33.8881C146.786 33.9745 146.861 34.0542 146.764 33.9014C146.793 33.9545 146.778 34.0741 146.786 34.1339C146.786 34.2734 146.786 34.4063 146.779 34.5458C146.779 34.5923 146.734 34.785 146.779 34.5591C146.764 34.6388 146.749 34.7119 146.726 34.7916C146.689 34.9245 146.651 35.0573 146.592 35.1836C146.577 35.2301 146.48 35.3962 146.592 35.2035C146.554 35.2699 146.517 35.343 146.472 35.4095C146.397 35.529 146.315 35.642 146.226 35.7483C146.368 35.5755 146.24 35.7283 146.203 35.7616C146.143 35.8213 146.084 35.8745 146.024 35.9276C145.979 35.9675 145.927 36.0007 145.882 36.0406C146.069 35.8944 145.859 36.0539 145.807 36.0804C145.755 36.1137 145.695 36.1402 145.635 36.1668C145.59 36.1867 145.321 36.293 145.553 36.2067C145.105 36.3661 144.746 36.7581 144.91 37.2098C145.052 37.5951 145.561 37.9472 146.039 37.7812C147.563 37.243 148.452 36.0007 148.602 34.5657C148.744 33.2304 148.019 31.8087 146.644 31.1909C145.269 30.573 143.528 30.6926 142.243 31.45C140.816 32.2937 140.128 33.7951 140.606 35.2766C141.129 36.9109 142.885 38.2595 144.851 38.193C145.329 38.1798 145.792 37.8277 145.77 37.3759C145.747 36.9242 145.366 36.5455 144.851 36.5588H144.858Z" fill="#111111"/>
<path d="M146.674 38.1001C149.551 37.1168 151.763 35.1039 152.988 32.5993C154.438 29.6297 154.393 26.288 153.548 23.1856C152.114 17.9173 148.422 13.2536 143.58 10.0116C140.823 8.16477 137.662 6.80951 134.315 6.03888C133.171 5.77978 132.678 7.35428 133.829 7.61337C139.09 8.81583 143.767 11.5795 147.167 15.3463C150.784 19.3523 153.347 25.0922 151.942 30.2542C151.202 32.9647 149.177 35.5025 146.181 36.5189C145.09 36.891 145.561 38.4721 146.666 38.0934L146.674 38.1001Z" fill="#111111"/>
<path d="M222.264 17.3394C225.528 17.3394 228.174 14.9866 228.174 12.0844C228.174 9.18219 225.528 6.82947 222.264 6.82947C218.999 6.82947 216.353 9.18219 216.353 12.0844C216.353 14.9866 218.999 17.3394 222.264 17.3394Z" fill="#B5E4F9"/>
<path d="M197.956 41.2026C197.979 40.2791 198.345 39.2893 199.04 38.5784C199.735 37.8676 200.654 37.4357 201.67 37.5155C202.47 37.5819 203.419 38.0669 203.844 38.7113C203.986 38.9305 204.009 38.9704 204.069 39.1963C204.121 39.3756 204.143 39.5616 204.106 39.8407C204.061 40.1861 203.852 40.5914 203.553 40.9435C202.828 41.8071 201.58 42.4316 200.467 42.9564C199.421 43.448 200.347 44.8565 201.394 44.3648C202.686 43.7536 204.009 43.0494 204.928 42.0064C205.907 40.897 206.266 39.4686 205.586 38.1532C205.003 37.0371 203.703 36.2134 202.365 35.9675C200.826 35.6819 199.324 36.1071 198.166 37.0305C196.85 38.0735 196.155 39.6547 196.111 41.2026C196.081 42.2522 197.919 42.2522 197.949 41.2026H197.956Z" fill="#111111"/>
<path d="M198.27 40.1596C197.291 34.5193 198.771 28.6133 202.35 23.8832C205.608 19.5716 210.562 16.3495 216.136 14.8082C217.265 14.496 216.779 12.9215 215.651 13.2337C205.84 15.9509 198.315 23.4048 196.574 32.4333C196.051 35.1504 196.036 37.8809 196.507 40.598C196.686 41.6344 198.457 41.1959 198.278 40.1662L198.27 40.1596Z" fill="#111111"/>
<path d="M222.264 17.3394C225.528 17.3394 228.174 14.9866 228.174 12.0844C228.174 9.18219 225.528 6.82947 222.264 6.82947C218.999 6.82947 216.353 9.18219 216.353 12.0844C216.353 14.9866 218.999 17.3394 222.264 17.3394Z" stroke="#111111" stroke-width="1.64" stroke-miterlimit="10"/>
<path d="M157.337 86.8429C162.44 88.9622 168.829 87.9524 172.707 84.2852C173.514 83.5212 172.222 82.3586 171.407 83.1292C168.127 86.2317 162.627 87.2482 158.263 85.4345C157.195 84.9894 156.261 86.3978 157.337 86.8429Z" fill="#111111"/>
<path d="M172.73 50.6561C180.208 50.6561 186.27 46.3909 186.27 41.1295C186.27 35.868 180.208 31.6028 172.73 31.6028C165.252 31.6028 159.19 35.868 159.19 41.1295C159.19 46.3909 165.252 50.6561 172.73 50.6561Z" fill="#FFA945"/>
<path d="M186.27 41.1295C186.27 46.3911 184.461 37.3095 172.73 36.2731C160.998 35.2367 159.19 46.3911 159.19 41.1295C159.19 35.8679 165.25 31.6028 172.73 31.6028C180.21 31.6028 186.27 35.8679 186.27 41.1295Z" fill="white"/>
<path d="M147.526 99.8308L186.292 102.78" stroke="#111111" stroke-width="1.64" stroke-miterlimit="10"/>
<path d="M52.1193 149.975C51.3347 146.215 53.2551 142.129 56.8045 139.97C57.7759 139.379 56.8568 137.964 55.8779 138.562C51.6038 141.166 49.4069 145.883 50.3484 150.414C50.5651 151.444 52.336 151.012 52.1193 149.982V149.975Z" fill="#111111"/>
<path d="M46.814 146.388C46.0294 142.628 47.9498 138.542 51.4991 136.383C52.4705 135.792 51.5514 134.377 50.5726 134.974C46.2984 137.579 44.1015 142.296 45.043 146.826C45.2597 147.856 47.0307 147.424 46.814 146.395V146.388Z" fill="#111111"/>
<path d="M224.55 63.7039L222.839 79.6614" stroke="#111111" stroke-width="1.64" stroke-miterlimit="10"/>
<path d="M218.049 151.404C221.92 155.782 227.42 158.937 233.487 160.313C234.63 160.572 235.124 158.997 233.973 158.738C228.182 157.429 223.041 154.426 219.35 150.248C218.617 149.424 217.325 150.587 218.049 151.404Z" fill="#111111"/>
<path d="M223.138 141.837C227.763 145.053 233.099 147.351 238.822 148.527C239.973 148.766 240.466 147.185 239.308 146.953C233.906 145.843 228.802 143.724 224.431 140.688C223.512 140.05 222.196 141.199 223.131 141.844L223.138 141.837Z" fill="#111111"/>
<path d="M226.784 131.394C231.141 134.556 236.476 136.423 242.095 136.735C243.276 136.801 243.268 135.167 242.095 135.101C236.999 134.822 232.045 133.108 228.085 130.238C227.173 129.58 225.865 130.729 226.784 131.394Z" fill="#111111"/>
<path d="M190.536 172.098C190.088 177.625 192.965 183.06 197.904 186.395C198.846 187.032 199.765 185.611 198.831 184.986C194.407 181.99 191.978 177.007 192.375 172.098C192.457 171.048 190.619 171.055 190.536 172.098Z" fill="#111111"/>
<path d="M149.301 58.6973L142.7 58.1663L141.061 74.264L147.662 74.795L149.301 58.6973Z" fill="#26EF4C"/>
<path d="M180.335 61.1932L173.734 60.6622L172.095 76.7599L178.696 77.2909L180.335 61.1932Z" fill="#26EF4C"/>
<path d="M152.682 75.2036L135.57 73.8284C130.571 73.4232 126.887 69.4969 127.336 65.0525C127.791 60.608 132.208 57.3328 137.206 57.7314L158.712 59.4653" stroke="#111111" stroke-width="2.46" stroke-linecap="round" stroke-linejoin="round"/>
<path d="M163.756 59.7975L185.149 61.5846C190.148 61.9898 193.832 65.9161 193.383 70.3605C192.927 74.805 188.511 78.0802 183.512 77.6816L157.001 75.5491" stroke="#111111" stroke-width="2.46" stroke-linecap="round" stroke-linejoin="round"/>
<path d="M306.297 216.616C306.297 215.042 304.862 213.766 303.092 213.766C301.321 213.766 299.886 215.042 299.886 216.616V239.815C299.886 241.389 301.321 242.665 303.092 242.665C304.862 242.665 306.297 241.389 306.297 239.815V216.616Z" fill="#5DCDE9"/>
<path d="M306.297 135.008C306.297 133.434 304.862 132.158 303.092 132.158C301.321 132.158 299.886 133.434 299.886 135.008V158.207C299.886 159.781 301.321 161.057 303.092 161.057C304.862 161.057 306.297 159.781 306.297 158.207V135.008Z" fill="#5DCDE9"/>
<path d="M111.285 129.766C113.055 129.766 114.491 128.49 114.491 126.916C114.491 125.342 113.055 124.066 111.285 124.066H85.1918C83.4213 124.066 81.9861 125.342 81.9861 126.916C81.9861 128.49 83.4213 129.766 85.1918 129.766H111.285Z" fill="white"/>
<path d="M134.985 225.505C136.736 225.271 137.941 223.819 137.678 222.262C137.414 220.706 135.781 219.634 134.03 219.869L108.228 223.326C106.477 223.561 105.272 225.012 105.536 226.569C105.8 228.125 107.433 229.197 109.183 228.962L134.985 225.505Z" fill="#5DCDE9"/>
<path d="M79.2812 140.781V128.437C79.2812 126.026 81.478 124.073 84.1905 124.073H117.659" stroke="#111111" stroke-width="2.46" stroke-linecap="round" stroke-linejoin="round"/>
<path d="M182.167 161.349C182.795 165.069 183.415 168.796 184.043 172.517C184.185 173.347 185.455 173.932 186.307 173.659C197.097 170.225 205.571 163.083 212.759 155.37C213.394 154.692 213.506 153.722 212.759 153.058C212.109 152.48 210.794 152.374 210.159 153.058C203.411 160.293 195.483 167.268 185.328 170.504L187.592 171.646C186.965 167.926 186.344 164.199 185.717 160.479C185.567 159.608 184.327 159.123 183.453 159.336C182.399 159.595 182.025 160.472 182.167 161.349Z" fill="#B5E4F9"/>
<path d="M203.897 133.792C208.38 136.41 211.87 140.402 213.484 145.332C214.321 147.883 214.575 150.467 214.321 152.965" stroke="#111111" stroke-width="2.46" stroke-miterlimit="10" stroke-linecap="round"/>
<path d="M172.057 50.6561C179.535 50.6561 185.597 46.3909 185.597 41.1295C185.597 35.868 179.535 31.6028 172.057 31.6028C164.579 31.6028 158.517 35.868 158.517 41.1295C158.517 46.3909 164.579 50.6561 172.057 50.6561Z" stroke="#111111" stroke-width="3.28" stroke-miterlimit="10"/>
<path d="M284.097 115.662H251.316C248.836 115.662 246.825 117.448 246.825 119.651C246.825 121.855 248.836 123.641 251.316 123.641H284.097C286.577 123.641 288.588 121.855 288.588 119.651C288.588 117.448 286.577 115.662 284.097 115.662Z" fill="#39424F"/>
<path d="M327.048 253.347V124.046C327.048 121.617 324.833 119.648 322.101 119.648C319.369 119.648 317.155 121.617 317.155 124.046V253.347C317.155 255.776 319.369 257.745 322.101 257.745C324.833 257.745 327.048 255.776 327.048 253.347Z" fill="#39424F"/>
<path d="M295.769 258.768H265.693C263.419 258.768 261.576 260.407 261.576 262.429C261.576 264.45 263.419 266.089 265.693 266.089H295.769C298.043 266.089 299.886 264.45 299.886 262.429C299.886 260.407 298.043 258.768 295.769 258.768Z" fill="#39424F"/>
<path d="M249.336 258.768H219.006C216.715 258.768 214.859 260.419 214.859 262.455V262.462C214.859 264.498 216.715 266.149 219.006 266.149H249.336C251.626 266.149 253.483 264.498 253.483 262.462V262.455C253.483 260.419 251.626 258.768 249.336 258.768Z" fill="#39424F"/>
<path d="M199.697 174.417C204.652 172.297 209.075 169.188 212.535 165.388C213.006 164.877 213.103 164.159 212.535 163.654C212.049 163.222 211.055 163.136 210.584 163.654C207.252 167.315 203.082 170.258 198.308 172.304C197.635 172.59 197.456 173.44 197.814 173.978C198.218 174.589 199.025 174.709 199.697 174.417Z" fill="white"/>
<path d="M209.897 159.103C213.633 163.701 217.915 168.73 224.565 169.892C225.723 170.092 226.217 168.517 225.051 168.318C218.886 167.235 214.948 162.538 211.481 158.28C210.794 157.436 209.202 158.253 209.897 159.103Z" fill="#111111"/>
<path d="M200.863 166.498C201.536 172.337 204.816 177.811 210.002 181.465C210.921 182.11 212.228 180.96 211.302 180.309C206.512 176.934 203.321 171.919 202.701 166.498C202.582 165.461 200.744 165.448 200.863 166.498Z" fill="#111111"/>
<path d="M160.595 127.514C169.89 124.551 179.403 122.173 189.072 120.392C190.26 120.173 190.94 118.931 190.641 117.941C190.305 116.845 189.072 116.333 187.884 116.546C178.214 118.326 168.702 120.704 159.407 123.667C158.271 124.033 157.501 125.023 157.837 126.119C158.144 127.095 159.452 127.873 160.595 127.514Z" fill="#9EA6AD"/>
<path d="M171.171 128.475L62.3108 143.06C59.2502 143.47 57.143 146.009 57.6042 148.73L70.2047 223.067C70.6659 225.789 73.5209 227.662 76.5814 227.252L185.442 212.666C188.502 212.256 190.609 209.718 190.148 206.997L177.548 132.659C177.087 129.938 174.232 128.065 171.171 128.475Z" fill="white"/>
<path d="M171.104 128.476L62.2442 143.062C59.1836 143.472 57.0764 146.01 57.5377 148.731L70.1381 223.069C70.5993 225.79 73.4543 227.663 76.5149 227.253L185.375 212.668C188.436 212.258 190.543 209.719 190.082 206.998L177.481 132.661C177.02 129.94 174.165 128.066 171.104 128.476Z" stroke="#111111" stroke-width="3.28" stroke-linecap="round" stroke-linejoin="round"/>
<path d="M58.5306 154.221L171.572 139.266" stroke="#111111" stroke-width="1.64" stroke-linecap="round" stroke-linejoin="round"/>
<path d="M327.048 152.593V258.655C327.048 263.239 322.871 266.953 317.715 266.953H88.6141" stroke="#111111" stroke-width="3.28" stroke-linecap="round" stroke-linejoin="round"/>
<path d="M176.182 115.124H307.03C312.185 115.124 316.362 118.838 316.362 123.422V219.393" stroke="#111111" stroke-width="3.28" stroke-linecap="round" stroke-linejoin="round"/>
<path d="M281.056 115.124H317.722C322.878 115.124 327.055 118.838 327.055 123.422V145.963" stroke="#111111" stroke-width="3.28" stroke-linecap="round" stroke-linejoin="round"/>
<path d="M78.7431 249.341V242.618C78.7431 240.38 76.7041 238.566 74.1888 238.566C71.6735 238.566 69.6344 240.38 69.6344 242.618V249.341C69.6344 251.579 71.6735 253.394 74.1888 253.394C76.7041 253.394 78.7431 251.579 78.7431 249.341Z" fill="#858B99"/>
<path d="M86.5443 123.163H94.1062C96.6236 123.163 98.6643 121.35 98.6643 119.113C98.6643 116.877 96.6236 115.064 94.1062 115.064H86.5443C84.0269 115.064 81.9861 116.877 81.9861 119.113C81.9861 121.35 84.0269 123.163 86.5443 123.163Z" fill="#858B99"/>
<path d="M91.476 266.023H98.1114C100.319 266.023 102.109 264.433 102.109 262.472C102.109 260.511 100.319 258.921 98.1114 258.921H91.476C89.2681 258.921 87.4783 260.511 87.4783 262.472C87.4783 264.433 89.2681 266.023 91.476 266.023Z" fill="white"/>
<path d="M68.5958 137.273V123.415C68.5958 118.831 72.7728 115.117 77.9287 115.117H100.809" stroke="#111111" stroke-width="3.28" stroke-linecap="round" stroke-linejoin="round"/>
<path d="M316.362 226.189V258.655C316.362 263.239 312.185 266.953 307.03 266.953H77.9287C72.7728 266.953 68.5958 263.239 68.5958 258.655V230.235" stroke="#111111" stroke-width="3.28" stroke-linecap="round" stroke-linejoin="round"/>
<path d="M246.272 258.011H84.1905C81.478 258.011 79.2812 256.058 79.2812 253.646V228.222" stroke="#111111" stroke-width="2.46" stroke-linecap="round" stroke-linejoin="round"/>
<path d="M163.756 116.227C165.198 116.227 165.198 114.234 163.756 114.234C162.313 114.234 162.313 116.227 163.756 116.227Z" fill="#111111"/>
<path d="M223.041 210.636C224.498 214.41 224.139 218.343 222.383 221.698" stroke="#111111" stroke-width="3.28" stroke-miterlimit="10" stroke-linecap="round"/>
<path d="M169.151 215.725C194.287 226.548 225.723 216.529 236.618 192.586" stroke="#111111" stroke-width="3.28" stroke-linecap="round" stroke-linejoin="round"/>
<path d="M212.565 117.629C203.456 114.845 193.204 114.393 182.72 117.104L172.311 119.794L161.902 122.485C154.221 124.471 147.66 127.833 142.34 132.118" stroke="#111111" stroke-width="3.28" stroke-linecap="round" stroke-linejoin="round"/>
<path d="M199.264 191.51C209.337 188.261 218.595 183.193 226.336 176.609C228.503 174.769 230.536 172.809 232.434 170.749C233.203 169.919 233.353 168.743 232.434 167.933C231.641 167.228 230.035 167.095 229.265 167.933C222.832 174.908 214.836 180.635 205.78 184.707C203.277 185.837 200.706 186.82 198.068 187.67C196.933 188.036 196.163 189.025 196.499 190.122C196.798 191.098 198.113 191.882 199.257 191.517L199.264 191.51Z" fill="#556A7C"/>
<path d="M184.671 174.742C207.648 166.79 223.295 149.138 226.844 127.448C227.539 123.216 231.948 120.273 236.715 120.857C241.52 121.449 244.867 125.408 244.173 129.68L242.723 138.582C240.309 153.45 231.858 166.743 219.379 176.197" stroke="#111111" stroke-width="3.28" stroke-linecap="round" stroke-linejoin="round"/>
<path d="M212.572 180.754C208.604 183.073 204.33 185.046 199.802 186.614L187.966 190.965" stroke="#111111" stroke-width="3.28" stroke-linecap="round" stroke-linejoin="round"/>
<path d="M239.032 186.288L243.844 172.909C247.535 162.631 246.833 152.513 242.992 143.684" stroke="#111111" stroke-width="3.28" stroke-linecap="round" stroke-linejoin="round"/>
<path d="M177.833 125.408L178.872 128.683C178.992 129.062 179.47 129.328 179.903 129.208C180.337 129.088 180.621 128.69 180.494 128.291L179.455 125.016C179.335 124.637 178.857 124.372 178.424 124.491C177.99 124.611 177.706 125.009 177.833 125.408Z" fill="#111111"/>
<path d="M182.616 124.152C182.959 125.242 183.311 126.331 183.654 127.428C183.774 127.806 184.252 128.072 184.686 127.952C185.119 127.833 185.403 127.434 185.276 127.036C184.932 125.946 184.581 124.857 184.237 123.76C184.118 123.382 183.639 123.116 183.206 123.236C182.773 123.355 182.489 123.754 182.616 124.152Z" fill="#111111"/>
<path d="M200.743 209.109C206.744 206.391 211.944 202.485 216.039 197.748C216.413 197.316 216.107 196.639 215.636 196.386C215.06 196.081 214.47 196.32 214.104 196.745C210.248 201.21 205.249 204.843 199.615 207.395C198.33 207.979 199.466 209.7 200.743 209.115V209.109Z" fill="#111111"/>
<path d="M217.631 194.759C219.073 194.759 219.073 192.766 217.631 192.766C216.189 192.766 216.189 194.759 217.631 194.759Z" fill="#111111"/>
<path d="M190.484 104.036C191.926 104.036 191.926 102.043 190.484 102.043C189.042 102.043 189.042 104.036 190.484 104.036Z" fill="#111111"/>
<path d="M94.0016 176.742C95.3057 176.742 96.3629 175.802 96.3629 174.642C96.3629 173.483 95.3057 172.543 94.0016 172.543C92.6975 172.543 91.6404 173.483 91.6404 174.642C91.6404 175.802 92.6975 176.742 94.0016 176.742Z" stroke="#111111" stroke-width="2" stroke-linecap="round" stroke-linejoin="round"/>
<path d="M75.3059 203.322C81.0372 194.174 85.3562 184.315 88.0312 174.118L81.7545 172.583C80.2302 181.013 78.235 189.364 75.7692 197.615C75.0668 199.961 78.108 202.286 80.5515 200.884C88.4123 196.366 90.8184 187.996 92.4025 180.296L86.0137 179.525C86.746 186.195 86.1706 192.254 84.2278 198.539C83.8617 199.728 84.4595 201.209 85.7223 201.807C87.0673 202.439 88.5319 202.239 89.6677 201.356C94.6965 197.436 97.6406 191.763 98.0666 185.857L91.6777 186.627C91.8421 187.564 91.6254 186.069 91.7375 187.012C91.7749 187.305 91.8048 187.59 91.8272 187.883C91.872 188.414 91.8944 188.946 91.9019 189.477C91.9094 190.009 91.887 190.54 91.8496 191.072C91.8272 191.364 91.8048 191.65 91.7674 191.942C91.7674 191.962 91.6254 192.872 91.7226 192.327C91.5358 193.384 91.2892 194.42 90.9529 195.45C90.7736 196.008 90.5644 196.559 90.3327 197.104C90.2953 197.19 89.9591 197.948 90.1758 197.489C90.0488 197.755 89.9068 198.021 89.7723 198.28C89.1745 199.416 89.1596 200.871 90.2804 201.787C91.2892 202.611 93.0078 202.983 94.2258 202.239C99.3518 199.09 102.505 194.234 103.051 188.726L96.9905 190.188C97.0951 190.387 97.1699 190.507 97.0354 190.228C97.1325 190.434 97.2147 190.646 97.2969 190.859C97.4239 191.198 97.5285 191.543 97.6182 191.889C97.6705 192.108 97.7153 192.327 97.7602 192.546C97.7004 192.254 97.7378 192.321 97.7602 192.573C97.7901 192.978 97.8125 193.377 97.805 193.782C97.805 193.962 97.7901 194.141 97.7826 194.32C97.7826 194.373 97.7228 194.925 97.7677 194.606C97.8125 194.247 97.678 195.024 97.6855 195.018C97.6481 195.191 97.6033 195.37 97.551 195.543C97.4538 195.888 97.3268 196.227 97.1998 196.566C96.9083 197.33 97.3641 196.34 97.125 196.745C97.0055 196.944 96.9009 197.144 96.7888 197.343C95.2196 199.974 98.3356 202.585 101.242 201.302C104.149 200.02 106.032 197.655 107.183 195.064C108.408 192.301 108.505 189.231 108.573 186.302L102.184 187.072C102.318 187.551 102.445 188.036 102.55 188.521C102.565 188.587 102.699 189.318 102.647 189.012C102.602 188.74 102.707 189.53 102.707 189.51C102.804 190.447 102.826 191.39 102.782 192.327C102.759 192.772 102.714 193.217 102.662 193.656C102.722 193.191 102.632 193.829 102.617 193.915C102.572 194.161 102.52 194.4 102.468 194.646C102.244 195.616 101.937 196.566 101.556 197.496C100.734 199.542 103.297 201.714 105.561 201.057C108.58 200.173 110.971 198.16 112.264 195.582C113.714 192.686 113.87 189.57 113.878 186.441L107.489 187.212C107.549 187.438 107.601 187.664 107.646 187.889C107.683 188.089 107.743 188.507 107.691 188.082C107.751 188.54 107.788 189.006 107.795 189.464C107.803 189.882 107.795 190.294 107.766 190.713C107.751 190.945 107.728 191.171 107.698 191.404C107.646 191.942 107.751 191.284 107.668 191.596C107.437 192.46 107.257 193.31 106.929 194.148C106.906 194.207 106.615 194.878 106.757 194.579C106.884 194.307 106.533 195.011 106.54 194.991C106.316 195.41 106.062 195.815 105.793 196.214C105.083 197.277 105.247 198.864 106.301 199.721C107.407 200.625 108.916 200.791 110.246 200.173C115.081 197.921 118.189 193.164 118.092 188.328L111.704 189.098C111.763 189.457 111.771 189.504 111.726 189.251C111.756 189.457 111.778 189.663 111.801 189.869C111.845 190.281 111.875 190.693 111.898 191.105C111.935 191.822 111.935 192.546 111.898 193.271C111.875 193.682 111.845 194.094 111.808 194.506C111.801 194.593 111.696 195.436 111.763 194.965C111.644 195.782 111.449 196.592 111.24 197.39C110.5 200.153 114.319 202.299 116.68 200.206C120.058 197.203 121.97 193.091 121.97 188.846L115.582 189.617C115.791 190.201 115.97 190.786 116.097 191.39C116.105 191.437 116.239 192.307 116.187 191.829C116.232 192.181 116.254 192.54 116.269 192.892C116.292 193.503 116.269 194.114 116.209 194.719C116.187 194.925 116.187 194.918 116.224 194.706C116.202 194.858 116.172 195.005 116.142 195.157C116.067 195.509 115.985 195.855 115.888 196.2C115.081 199.077 118.929 200.93 121.328 199.017C123.726 197.104 125.057 194.267 125.004 191.424C124.982 189.909 123.525 188.461 121.754 188.534C119.983 188.607 118.473 189.803 118.503 191.424C118.503 191.683 118.481 191.942 118.481 192.208C118.481 191.935 118.548 191.929 118.481 192.208C118.421 192.46 118.354 192.713 118.264 192.965C118.242 193.031 117.943 193.669 118.115 193.35C118.287 193.031 117.883 193.716 117.891 193.702C117.771 193.888 117.622 194.068 117.495 194.254C117.323 194.5 117.771 194.035 117.36 194.38C117.143 194.559 116.949 194.752 116.732 194.925L122.172 197.742C123.061 194.559 122.994 191.211 121.873 188.082C121.38 186.7 119.938 185.817 118.302 186.009C116.665 186.202 115.484 187.398 115.484 188.853C115.484 189.251 115.47 189.65 115.432 190.049C115.432 190.108 115.35 190.653 115.402 190.321C115.47 189.942 115.328 190.653 115.313 190.719C115.133 191.503 114.872 192.267 114.543 193.005C114.67 192.726 114.625 192.839 114.513 193.045C114.423 193.204 114.341 193.364 114.244 193.523C114.035 193.875 113.811 194.221 113.564 194.553C113.43 194.739 113.288 194.918 113.146 195.098C113.004 195.277 112.892 195.363 113.108 195.144C112.772 195.476 112.451 195.808 112.1 196.121L117.539 198.937C118.548 195.171 118.653 191.397 118.003 187.577C117.764 186.162 115.866 185.332 114.431 185.504C112.869 185.69 111.576 186.9 111.614 188.348C111.614 188.594 111.614 188.833 111.614 189.079C111.614 189.158 111.562 189.843 111.599 189.424C111.636 189.006 111.547 189.676 111.532 189.763C111.479 190.002 111.412 190.241 111.345 190.474C111.225 190.866 111.076 191.251 110.904 191.623C111.188 191.005 110.814 191.743 110.769 191.816C110.665 191.995 110.553 192.174 110.433 192.347C110.314 192.52 110.194 192.693 110.067 192.865C110.022 192.925 109.574 193.457 109.835 193.164C110.097 192.872 109.619 193.384 109.566 193.437C109.387 193.616 109.193 193.795 108.999 193.961C108.834 194.101 108.662 194.241 108.49 194.373C108.266 194.539 108.02 194.672 108.393 194.446C107.937 194.719 107.482 194.978 106.988 195.204L111.442 199.163C114.154 195.104 114.939 190.288 113.796 185.697C113.445 184.295 111.748 183.445 110.224 183.624C108.7 183.804 107.407 185.013 107.407 186.468C107.407 187.683 107.407 188.899 107.287 190.108C107.28 190.208 107.153 191.038 107.243 190.54C107.198 190.786 107.145 191.038 107.093 191.278C106.959 191.842 106.749 192.374 106.563 192.925C106.458 193.244 106.802 192.54 106.518 193.011C106.391 193.224 106.271 193.443 106.137 193.656C106.002 193.868 105.853 194.068 105.696 194.267C105.225 194.885 106.114 193.902 105.531 194.433C105.345 194.606 105.15 194.772 104.963 194.938C104.5 195.35 105.397 194.752 104.784 195.071C104.59 195.171 104.411 195.284 104.216 195.377C103.484 195.722 104.493 195.317 103.887 195.496L107.893 199.057C109.634 194.739 109.798 189.982 108.528 185.551C108.124 184.156 106.518 183.292 104.956 183.478C103.394 183.664 102.169 184.867 102.139 186.322C102.109 187.564 102.079 188.806 101.945 190.049C101.945 190.049 101.81 190.972 101.892 190.507C101.84 190.812 101.78 191.118 101.706 191.417C101.571 191.982 101.399 192.54 101.183 193.085C101.13 193.217 100.786 193.875 101.093 193.31C100.973 193.536 100.854 193.756 100.719 193.975C100.585 194.194 100.443 194.407 100.293 194.613C100.204 194.732 99.703 195.29 100.151 194.819C99.8225 195.164 99.4489 195.456 99.0977 195.782C98.9184 195.915 98.9632 195.888 99.2248 195.709C99.1127 195.782 99.0006 195.848 98.8885 195.915C98.6195 196.067 98.3356 196.207 98.0516 196.333L102.505 200.293C104.949 196.194 104.978 191.464 102.722 187.298C102.124 186.202 100.331 185.597 99.0454 185.969C97.5958 186.388 96.7888 187.431 96.6543 188.76C96.6319 188.979 96.5497 189.517 96.6393 188.999C96.5945 189.251 96.5497 189.497 96.4899 189.75C96.3778 190.248 96.2284 190.733 96.0565 191.218C95.9668 191.457 95.8697 191.696 95.78 191.935C95.4737 192.713 96.064 191.437 95.6679 192.181C95.4288 192.639 95.1673 193.091 94.8833 193.53C94.5994 193.968 94.2781 194.387 93.9493 194.805C93.5607 195.303 94.2557 194.526 93.755 195.018C93.5682 195.204 93.3814 195.403 93.1946 195.589C92.8434 195.928 92.4698 196.253 92.0812 196.566C91.872 196.732 91.6478 196.898 91.4311 197.057C91.2518 197.184 91.2817 197.164 91.5283 196.991C91.3714 197.091 91.2219 197.19 91.065 197.283L95.5185 201.243C98.2085 196.147 99.0529 190.686 98.074 185.132C97.82 183.717 95.9444 182.887 94.5023 183.06C92.8434 183.259 91.7823 184.448 91.6852 185.903C91.6628 186.248 91.6179 186.594 91.5881 186.946C91.6478 186.295 91.5582 187.132 91.5358 187.212C91.4237 187.81 91.2742 188.408 91.0949 188.992C90.9156 189.577 90.7063 190.161 90.4672 190.733C90.4 190.899 90.3252 191.058 90.258 191.218C90.3775 190.965 90.3925 190.939 90.3028 191.125C90.1534 191.397 90.0189 191.676 89.862 191.949C89.2492 193.031 88.5319 194.088 87.695 195.044C88.106 194.579 87.5007 195.237 87.4708 195.27C87.2168 195.536 86.9552 195.795 86.6862 196.048C86.2155 196.493 85.7148 196.905 85.1992 197.31L90.6391 200.127C92.694 193.463 93.4113 186.454 92.6566 179.578C92.4997 178.13 91.5358 176.941 89.8395 176.735C88.36 176.556 86.5592 177.386 86.2678 178.808C85.543 182.309 84.6986 185.783 83.2639 189.118C83.0397 189.637 83.3909 188.879 83.234 189.198C83.1444 189.378 83.0547 189.557 82.965 189.743C82.7409 190.168 82.5092 190.593 82.2551 191.005C81.7993 191.756 81.2763 192.46 80.7383 193.171C80.3945 193.623 80.9475 192.965 80.7009 193.224C80.5589 193.37 80.4319 193.523 80.2899 193.663C79.9836 193.981 79.6548 194.287 79.3185 194.586C78.9823 194.885 78.6236 195.157 78.2575 195.43C77.5999 195.921 78.7955 195.117 78.0781 195.543C77.854 195.676 77.6373 195.808 77.4131 195.935L82.1954 199.203C84.6612 190.952 86.6563 182.595 88.1807 174.171C88.4497 172.683 87.7473 170.989 85.9091 170.61C84.2428 170.271 82.3224 171.055 81.904 172.629C80.6112 177.559 78.9449 182.409 76.8975 187.132C75.8589 189.53 75.0294 191.264 73.7367 193.702C72.5262 195.994 71.2186 198.24 69.8362 200.452C69.0068 201.774 69.4252 203.668 71.0019 204.412C72.5785 205.156 74.5661 204.784 75.4554 203.375L75.3059 203.322Z" fill="#2EB8FF"/>
<path d="M109.985 194.812L104.201 188.361L98.4177 181.917L95.3915 188.78L92.5744 185.637L83.3312 175.34L77.9137 187.604L72.5038 199.868L87.157 197.908L101.81 195.941L101.78 195.908L109.985 194.812Z" stroke="#111111" stroke-width="2" stroke-linecap="round" stroke-linejoin="round"/>
<path d="M112.361 161.329L162.246 154.858" stroke="#111111" stroke-width="2" stroke-linecap="round" stroke-linejoin="round"/>
<path d="M113.265 167.414L163.15 160.944" stroke="#111111" stroke-width="2" stroke-linecap="round" stroke-linejoin="round"/>
<path d="M117.495 193.702L168.882 186.567" stroke="#111111" stroke-width="2" stroke-linecap="round" stroke-linejoin="round"/>
<path d="M116.037 180.887L165.93 174.417" stroke="#111111" stroke-width="2" stroke-linecap="round" stroke-linejoin="round"/>
<path d="M114.909 174.078L138.858 171.008" stroke="#111111" stroke-width="2" stroke-linecap="round" stroke-linejoin="round"/>
<path d="M116.516 187.604L141.966 183.87" stroke="#111111" stroke-width="2" stroke-linecap="round" stroke-linejoin="round"/>
<path d="M82.554 190.274L84.437 185.744C84.6388 185.252 84.2129 184.628 83.6525 184.515C83.0173 184.388 82.4943 184.687 82.2701 185.212L80.3871 189.743C80.1853 190.235 80.6112 190.859 81.1717 190.972C81.8068 191.098 82.3299 190.799 82.554 190.274Z" fill="white"/>
<path d="M80.0284 194.074C81.4705 194.074 81.4705 192.081 80.0284 192.081C78.5862 192.081 78.5862 194.074 80.0284 194.074Z" fill="white"/>
<path d="M66.8547 149.723C67.998 149.185 69.0591 148.467 69.9557 147.637C70.3667 147.258 70.4863 146.707 70.2546 146.222C70.1575 146.009 70.0155 145.843 69.8063 145.704C69.5747 145.544 69.2235 145.391 68.9246 145.425C68.4762 145.478 68.1848 145.531 67.7813 145.697C67.5347 145.797 67.318 145.956 67.1088 146.116C66.6754 146.454 66.4213 146.906 66.2121 147.371C65.8833 148.089 65.8011 148.906 65.8161 149.67C65.831 150.533 66.7277 151.111 67.6543 150.919C68.7751 150.68 69.8735 150.248 70.8225 149.656C71.1364 149.457 71.383 149.225 71.4876 148.886C71.5847 148.574 71.5399 148.162 71.3381 147.889C71.1364 147.617 70.8375 147.371 70.4713 147.298C70.1052 147.225 69.6643 147.232 69.3505 147.431C68.8573 147.743 68.3343 148.002 67.7813 148.208L68.125 148.075C67.7215 148.222 67.3031 148.341 66.8771 148.434L68.7153 149.683C68.7153 149.358 68.7303 149.032 68.7751 148.706L68.7228 149.052C68.7751 148.713 68.8648 148.388 69.0068 148.069L68.8573 148.374C68.9395 148.202 69.0441 148.035 69.1711 147.883L68.947 148.142C69.0292 148.055 69.1188 147.969 69.216 147.896L68.9246 148.095C69.0292 148.022 69.1338 147.969 69.2533 147.923L68.9096 148.055C69.0217 148.016 69.1338 147.989 69.2533 147.969L68.8648 148.016H68.9096C68.5659 147.271 68.2222 146.541 67.8784 145.803C67.4974 146.162 67.0789 146.488 66.6455 146.793L66.9369 146.594C66.4438 146.933 65.9132 147.232 65.3677 147.491C64.6952 147.81 64.4337 148.687 64.8447 149.258C65.2856 149.869 66.115 150.062 66.8323 149.723H66.8547Z" fill="#4AF42C"/>
<path d="M74.8949 148.786C76.0382 148.248 77.0993 147.531 77.9959 146.7C78.4069 146.322 78.5265 145.77 78.2948 145.285C78.1977 145.073 78.0557 144.906 77.8465 144.767C77.6148 144.608 77.2636 144.455 76.9648 144.488C76.5164 144.541 76.225 144.594 75.8215 144.76C75.5749 144.86 75.3582 145.019 75.149 145.179C74.7156 145.518 74.4615 145.969 74.2523 146.434C73.9235 147.152 73.8413 147.969 73.8563 148.733C73.8712 149.597 74.7679 150.175 75.6945 149.982C76.8153 149.743 77.9137 149.311 78.8627 148.72C79.1766 148.52 79.4231 148.288 79.5278 147.949C79.6249 147.637 79.5801 147.225 79.3783 146.953C79.1766 146.68 78.8777 146.434 78.5115 146.361C78.1454 146.288 77.7045 146.295 77.3907 146.494C76.8975 146.806 76.3744 147.066 75.8215 147.272L76.1652 147.139C75.7617 147.285 75.3433 147.404 74.9173 147.497L76.7555 148.746C76.7555 148.421 76.7705 148.095 76.8153 147.77L76.763 148.115C76.8153 147.776 76.905 147.451 77.0469 147.132L76.8975 147.438C76.9797 147.265 77.0843 147.099 77.2113 146.946L76.9872 147.205C77.0694 147.119 77.159 147.032 77.2562 146.959L76.9648 147.159C77.0694 147.086 77.174 147.032 77.2935 146.986L76.9498 147.119C77.0619 147.079 77.174 147.052 77.2935 147.032L76.905 147.079H76.9498C76.6061 146.335 76.2624 145.604 75.9186 144.867C75.5375 145.225 75.1191 145.551 74.6857 145.856L74.9771 145.657C74.484 145.996 73.9534 146.295 73.4079 146.554C72.7354 146.873 72.4739 147.75 72.8849 148.321C73.3257 148.932 74.1552 149.125 74.8725 148.786H74.8949Z" fill="#B9C2FF"/>
<path d="M68.5958 149.676C69.8379 149.676 70.8449 148.781 70.8449 147.677C70.8449 146.572 69.8379 145.677 68.5958 145.677C67.3536 145.677 66.3466 146.572 66.3466 147.677C66.3466 148.781 67.3536 149.676 68.5958 149.676Z" stroke="#111111" stroke-width="1.64" stroke-linecap="round" stroke-linejoin="round"/>
<path d="M75.8813 148.74C77.1235 148.74 78.1304 147.844 78.1304 146.74C78.1304 145.636 77.1235 144.74 75.8813 144.74C74.6391 144.74 73.6321 145.636 73.6321 146.74C73.6321 147.844 74.6391 148.74 75.8813 148.74Z" stroke="#111111" stroke-width="1.64" stroke-linecap="round" stroke-linejoin="round"/>
<path d="M134.927 47.9655C134.927 47.9655 135.286 47.7197 135.114 47.8327C135.226 47.7596 135.338 47.6799 135.45 47.6134C135.675 47.4673 135.914 47.3278 136.145 47.1949C136.616 46.9225 137.102 46.6767 137.603 46.4508C137.857 46.3379 138.111 46.2382 138.365 46.1319C138.484 46.0854 138.492 46.0854 138.387 46.1187C138.454 46.0921 138.514 46.0722 138.581 46.0456C138.708 45.9991 138.843 45.9526 138.977 45.9127C139.5 45.74 140.038 45.5938 140.584 45.4676C141.129 45.3414 141.548 44.7501 141.369 44.2386C141.189 43.727 140.599 43.4015 139.986 43.541C137.543 44.1057 135.301 45.1487 133.343 46.5571C132.887 46.8893 132.932 47.6267 133.343 47.9655C133.829 48.3641 134.442 48.3176 134.927 47.9655Z" fill="white"/>
<path d="M144.208 44.9494C145.65 44.9494 145.65 42.9564 144.208 42.9564C142.766 42.9564 142.766 44.9494 144.208 44.9494Z" fill="white"/>
<path d="M229.123 293.055H196.888C194.453 293.055 192.479 294.81 192.479 296.975V296.981C192.479 299.146 194.453 300.901 196.888 300.901H229.123C231.558 300.901 233.532 299.146 233.532 296.981V296.975C233.532 294.81 231.558 293.055 229.123 293.055Z" fill="#39424F"/>
<path d="M388.067 301.997H24.8828C18.5563 301.997 13.4277 306.557 13.4277 312.181C13.4277 317.806 18.5563 322.366 24.8828 322.366H388.067C394.393 322.366 399.522 317.806 399.522 312.181C399.522 306.557 394.393 301.997 388.067 301.997Z" fill="#EABD35"/>
<path d="M375.715 301.997H12.5311C6.20462 301.997 1.07602 306.557 1.07602 312.181C1.07602 317.806 6.20462 322.366 12.5311 322.366H375.715C382.041 322.366 387.17 317.806 387.17 312.181C387.17 306.557 382.041 301.997 375.715 301.997Z" fill="#FFCE5C"/>
<path d="M386.094 312.288C386.094 315.104 384.809 317.649 382.739 319.489C380.662 321.336 377.8 322.472 374.639 322.472H11.455C5.126 322.472 0 317.915 0 312.288C0 310.434 0.560423 308.694 1.53929 307.199C3.51198 310.241 7.21825 312.288 11.455 312.288H374.639C377.8 312.288 380.662 311.145 382.739 309.305C383.441 308.68 384.054 307.969 384.555 307.199C385.534 308.694 386.094 310.434 386.094 312.288Z" fill="#EABD35"/>
<path d="M44.5947 301.997H16.6184C14.3486 301.997 12.5086 303.633 12.5086 305.651V305.657C12.5086 307.675 14.3486 309.311 16.6184 309.311H44.5947C46.8645 309.311 48.7045 307.675 48.7045 305.657V305.651C48.7045 303.633 46.8645 301.997 44.5947 301.997Z" fill="white"/>
<path d="M56.8568 301.997H55.8555C53.5857 301.997 51.7457 303.633 51.7457 305.651V305.657C51.7457 307.675 53.5857 309.311 55.8555 309.311H56.8568C59.1266 309.311 60.9666 307.675 60.9666 305.657V305.651C60.9666 303.633 59.1266 301.997 56.8568 301.997Z" fill="white"/>
<path d="M233.263 291.959H161.798C158.678 291.959 156.149 294.206 156.149 296.978C156.149 299.75 158.678 301.997 161.798 301.997H233.263C236.383 301.997 238.912 299.75 238.912 296.978C238.912 294.206 236.383 291.959 233.263 291.959Z" fill="#6B717F"/>
<path d="M63.6566 316.088H21.2064" stroke="#111111" stroke-width="2.46" stroke-linecap="round" stroke-linejoin="round"/>
<path d="M385.324 308.527H357.072" stroke="#111111" stroke-width="2.46" stroke-linecap="round" stroke-linejoin="round"/>
<path d="M274.353 322.372H12.5311C6.20202 322.372 1.07602 317.815 1.07602 312.188C1.07602 306.561 6.20202 302.004 12.5311 302.004H108.229" stroke="#111111" stroke-width="3.28" stroke-linecap="round" stroke-linejoin="round"/>
<path d="M116.314 301.997H375.072C381.401 301.997 386.527 306.554 386.527 312.181C386.527 317.808 381.401 322.366 375.072 322.366H282.834" stroke="#111111" stroke-width="3.28" stroke-linecap="round" stroke-linejoin="round"/>
<path d="M358.753 301.997H387.17C393.499 301.997 398.625 306.554 398.625 312.181C398.625 317.808 393.499 322.366 387.17 322.366H358.753" stroke="#111111" stroke-width="3.28" stroke-miterlimit="10"/>
<path d="M167.312 291.959H233.263C236.379 291.959 238.912 294.204 238.912 296.981C238.912 299.751 236.386 302.004 233.263 302.004H167.312" stroke="#111111" stroke-width="3.28" stroke-miterlimit="10"/>
<path d="M226.822 291.959H160.871C157.751 291.959 155.222 294.206 155.222 296.978C155.222 299.75 157.751 301.997 160.871 301.997H226.822C229.942 301.997 232.471 299.75 232.471 296.978C232.471 294.206 229.942 291.959 226.822 291.959Z" stroke="#111111" stroke-width="3.28" stroke-miterlimit="10"/>
<path d="M353.044 309.531C354.486 309.531 354.486 307.538 353.044 307.538C351.602 307.538 351.602 309.531 353.044 309.531Z" fill="#111111"/>
<path d="M309.249 309.551C307.605 311.092 307.597 313.782 309.234 315.324C309.779 315.842 310.474 316.227 311.199 316.526C312.686 317.137 314.397 317.383 315.974 317.011C317.551 316.639 318.963 315.583 319.441 314.194C320.143 315.417 321.81 315.928 323.342 316.081C325.307 316.28 327.608 315.928 328.654 314.433C329.26 313.57 329.319 312.474 329.05 311.484C328.781 310.494 328.214 309.59 327.631 308.72" fill="#FFCE5C"/>
<path d="M79.7594 316.805C78.2575 316.161 77.57 314.487 77.8689 313.025C78.1678 311.563 79.2886 310.334 80.5963 309.418C82.3373 308.202 84.5342 307.431 86.746 307.544C88.9578 307.657 91.1472 308.713 92.2157 310.441C93.1572 308.614 94.6816 307.504 96.7888 306.807C99.3443 305.956 102.184 305.584 104.807 306.249C107.429 306.913 109.753 308.78 110.269 311.165C110.971 314.427 109.574 316.872 105.875 317.144" fill="#EABD35"/>
<path d="M288.909 124.365H281.84V258.044H288.909V124.365Z" fill="white"/>
<path d="M278.777 124.365H275.242V258.044H278.777V124.365Z" fill="white"/>
<path d="M243.448 124.066H302.12C304.833 124.066 307.03 126.019 307.03 128.431V253.639C307.03 256.051 304.833 258.004 302.12 258.004H254.88" stroke="#111111" stroke-width="2.46" stroke-linecap="round" stroke-linejoin="round"/>
</svg>
