<svg width="539" height="200" viewBox="0 0 539 200" fill="none" xmlns="http://www.w3.org/2000/svg">
<path d="M83.748 40.064L69.4422 33.4517L71.8819 21.4175L76.9792 22.3778L75.3078 30.6107L86.0008 35.5524L83.748 40.064Z" fill="#F9B117"/>
<path d="M83.748 40.064L69.4422 33.4517L71.8819 21.4175L76.9792 22.3778L75.3078 30.6107L86.0008 35.5524L83.748 40.064Z" stroke="#141414" stroke-width="2" stroke-miterlimit="10"/>
<path d="M74.4358 24.4285C78.0078 24.4285 80.9035 21.6383 80.9035 18.1964C80.9035 14.7544 78.0078 11.9642 74.4358 11.9642C70.8637 11.9642 67.968 14.7544 67.968 18.1964C67.968 21.6383 70.8637 24.4285 74.4358 24.4285Z" fill="#0E394F"/>
<path d="M74.4358 24.4285C78.0078 24.4285 80.9035 21.6383 80.9035 18.1964C80.9035 14.7544 78.0078 11.9642 74.4358 11.9642C70.8637 11.9642 67.968 14.7544 67.968 18.1964C67.968 21.6383 70.8637 24.4285 74.4358 24.4285Z" stroke="#141414" stroke-width="2" stroke-miterlimit="10"/>
<path d="M66.6288 52.6184C67.5096 48.8432 69.4078 45.3584 72.1321 42.5155C74.8563 39.6726 78.3103 37.5721 82.1457 36.4258C85.9811 35.2794 90.0625 35.1277 93.9781 35.986C97.8938 36.8443 101.505 38.6822 104.449 41.3145L116.398 52.0182L157.426 88.571L104.054 104.577L50.6931 120.582L63.0368 67.9238L66.6288 52.6184Z" fill="#FACA3F"/>
<path d="M118.028 53.3087L65.1858 69.1142L65.9956 65.663C71.5388 64.6925 76.8798 62.8542 81.8067 60.2211C90.6267 55.6831 97.7903 48.6478 102.331 40.064C103.827 40.9122 105.22 41.9188 106.484 43.0651L118.028 53.3087Z" fill="#F99F00"/>
<path d="M374.214 179.703H396.077C399.352 179.711 402.597 179.096 405.625 177.895C408.653 176.693 411.406 174.928 413.726 172.7C418.398 168.198 424.735 165.669 431.343 165.669C437.951 165.669 444.288 168.198 448.961 172.7L453.632 177.202C455.952 179.43 458.705 181.195 461.733 182.396C464.762 183.598 468.006 184.212 471.281 184.204H505.083" stroke="#141414" stroke-width="2" stroke-miterlimit="10"/>
<path d="M530.165 174.921C525.12 165.608 516.088 158.626 504.429 158.626C497.914 158.634 491.577 160.67 486.36 164.43C481.142 168.19 477.325 173.473 475.475 179.493C475.189 180.459 475.139 181.476 475.331 182.464C475.523 183.452 475.95 184.383 476.579 185.185C477.208 185.986 478.022 186.636 478.957 187.082C479.891 187.528 480.921 187.759 481.964 187.756H519.036L531.141 186.755" fill="#2C6E9B"/>
<path opacity="0.3" d="M484.933 179.493C484.644 180.458 484.593 181.475 484.783 182.463C484.973 183.451 485.4 184.383 486.028 185.185C486.657 185.987 487.47 186.636 488.405 187.082C489.339 187.529 490.368 187.759 491.411 187.756H481.922C480.879 187.759 479.85 187.528 478.915 187.082C477.981 186.636 477.167 185.986 476.538 185.185C475.908 184.383 475.481 183.452 475.289 182.464C475.098 181.476 475.147 180.459 475.434 179.493C477.285 173.467 481.109 168.179 486.335 164.418C491.56 160.658 497.907 158.626 504.429 158.626C506.022 158.623 507.612 158.744 509.184 158.986C503.546 159.851 498.277 162.236 493.986 165.865C489.694 169.494 486.556 174.218 484.933 179.493Z" fill="#0E3964"/>
<path d="M531.224 183.624C531.268 178.502 529.655 173.494 526.609 169.295C523.564 165.097 519.237 161.917 514.23 160.196C510.38 158.927 506.303 158.42 502.245 158.705C498.187 158.99 494.23 160.062 490.612 161.855C486.994 163.648 483.788 166.127 481.187 169.142C478.586 172.157 476.643 175.647 475.475 179.403C475.177 180.372 475.117 181.395 475.3 182.391C475.484 183.386 475.906 184.327 476.533 185.138C477.159 185.949 477.974 186.608 478.911 187.062C479.849 187.516 480.883 187.754 481.933 187.756H526.957C527.52 187.756 528.077 187.649 528.597 187.441C529.116 187.233 529.588 186.929 529.986 186.545C530.383 186.161 530.698 185.706 530.912 185.205C531.126 184.703 531.236 184.166 531.235 183.624H531.224Z" stroke="#141414" stroke-width="2" stroke-miterlimit="10"/>
<path d="M72.2192 143.145L89.641 137.939L99.8995 169.813C100.617 172.043 100.386 174.457 99.2573 176.522C98.1284 178.588 96.1941 180.137 93.8798 180.829C91.5656 181.52 89.0611 181.298 86.9172 180.21C84.7733 179.122 83.1657 177.258 82.448 175.028L72.1894 143.154L72.2192 143.145Z" fill="#EABD35"/>
<path d="M135.688 123.321L153.139 118.106L163.398 149.98C164.116 152.21 163.884 154.623 162.756 156.689C161.627 158.755 159.692 160.304 157.378 160.995C155.064 161.687 152.559 161.464 150.415 160.377C148.272 159.289 146.664 157.425 145.946 155.195L135.688 123.321Z" fill="#EABD35"/>
<path d="M72.2192 143.145L89.641 137.939L99.8995 169.813C100.617 172.043 100.386 174.457 99.2573 176.522C98.1284 178.588 96.1941 180.137 93.8798 180.829C91.5656 181.52 89.0611 181.298 86.9172 180.21C84.7733 179.122 83.1657 177.258 82.448 175.028L72.1894 143.154L72.2192 143.145Z" stroke="#141414" stroke-width="2" stroke-miterlimit="10"/>
<path d="M135.688 123.321L153.139 118.106L163.398 149.98C164.116 152.21 163.884 154.623 162.756 156.689C161.627 158.755 159.692 160.304 157.378 160.995C155.064 161.687 152.559 161.464 150.415 160.377C148.272 159.289 146.664 157.425 145.946 155.195L135.688 123.321Z" stroke="#141414" stroke-width="2" stroke-miterlimit="10"/>
<path opacity="0.7" d="M78.7441 150.923L82.1804 161.607" stroke="white" stroke-width="2.8" stroke-linecap="round" stroke-linejoin="round"/>
<path d="M77.5288 129.125L140.434 110.327L153.042 149.5C153.769 151.759 154.027 154.133 153.801 156.488C153.576 158.842 152.871 161.131 151.728 163.223C150.585 165.316 149.025 167.171 147.138 168.682C145.25 170.193 143.073 171.332 140.729 172.032L113.461 180.181C108.727 181.595 103.604 181.14 99.2188 178.915C94.8335 176.69 91.5452 172.877 90.0772 168.316L77.4693 129.142L77.5288 129.125Z" fill="#FACA3F"/>
<path d="M145.954 127.541L83.0489 146.339L85.4414 153.773L148.346 134.975L145.954 127.541Z" fill="#F7B000"/>
<path d="M77.5288 129.125L140.434 110.327L153.042 149.5C153.769 151.759 154.027 154.133 153.801 156.488C153.576 158.842 152.871 161.131 151.728 163.223C150.585 165.316 149.025 167.171 147.138 168.682C145.25 170.193 143.073 171.332 140.729 172.032L113.461 180.181C108.727 181.595 103.604 181.14 99.2188 178.915C94.8335 176.69 91.5452 172.877 90.0772 168.316L77.4693 129.142L77.5288 129.125Z" stroke="#141414" stroke-width="2" stroke-miterlimit="10"/>
<path d="M66.6288 52.6184C67.5096 48.8432 69.4078 45.3584 72.1321 42.5155C74.8563 39.6726 78.3103 37.5721 82.1457 36.4258C85.9812 35.2794 90.0625 35.1277 93.9781 35.986C97.8938 36.8443 101.505 38.6822 104.449 41.3145L116.398 52.0182L156.388 88.571L104.054 104.577L51.7313 120.582L63.0368 67.9238L66.6288 52.6184Z" stroke="#141414" stroke-width="2" stroke-miterlimit="10"/>
<path d="M130.711 47.2577L49.8848 71.5963C42.6963 73.7609 38.6899 81.1309 40.9363 88.0576L58.041 140.799C60.2874 147.726 67.9359 151.587 75.1245 149.422L155.951 125.083C163.14 122.919 167.146 115.549 164.9 108.622L147.795 55.8804C145.549 48.9536 137.9 45.0931 130.711 47.2577Z" fill="#F9B117"/>
<path opacity="0.5" d="M162.357 104.567L163.644 108.568C164.709 111.876 164.367 115.457 162.692 118.522C161.018 121.587 158.149 123.886 154.716 124.914L74.3008 148.922C70.866 149.948 67.1489 149.619 63.9662 148.005C60.7835 146.392 58.3956 143.628 57.327 140.319L56.0396 136.318C57.106 139.626 59.4919 142.39 62.673 144.003C65.854 145.617 69.5697 145.947 73.0031 144.921L153.429 120.912C155.133 120.41 156.718 119.588 158.091 118.493C159.464 117.398 160.598 116.052 161.428 114.532C162.258 113.013 162.768 111.349 162.927 109.639C163.087 107.928 162.893 106.205 162.357 104.567Z" fill="#E59303"/>
<path d="M130.943 54.5143L53.9828 77.6884C49.6675 78.9878 47.2625 83.4121 48.611 87.5702L64.6318 136.97C65.9804 141.128 70.5718 143.446 74.8871 142.146L151.847 118.972C156.162 117.673 158.567 113.248 157.219 109.09L141.198 59.6905C139.849 55.5323 135.258 53.2148 130.943 54.5143Z" fill="#0E394F"/>
<path d="M153.74 102.036L156.014 109.038C156.33 110.022 156.443 111.056 156.344 112.082C156.246 113.108 155.938 114.105 155.44 115.016C154.942 115.927 154.262 116.735 153.439 117.393C152.617 118.051 151.668 118.547 150.647 118.852L74.0828 141.73C72.0191 142.346 69.786 142.147 67.8744 141.177C65.9627 140.207 64.5289 138.546 63.8881 136.558L61.6249 129.555C62.2656 131.541 63.6983 133.2 65.6081 134.168C67.5178 135.136 69.7483 135.333 71.8092 134.717L148.384 111.829C150.441 111.214 152.161 109.837 153.165 108.001C154.17 106.164 154.376 104.019 153.74 102.036Z" fill="#062538"/>
<path d="M91.4328 93.6266C90.9115 92.0066 89.1259 91.1006 87.4447 91.603C85.7635 92.1054 84.8232 93.826 85.3446 95.446L89.2469 107.571C89.7683 109.191 91.5539 110.097 93.2351 109.594C94.9163 109.092 95.8565 107.371 95.3352 105.751L91.4328 93.6266Z" fill="#4CF58C"/>
<path d="M114.165 86.8349C113.643 85.2149 111.858 84.3089 110.177 84.8113C108.495 85.3137 107.555 87.0343 108.076 88.6543L111.979 100.779C112.5 102.399 114.286 103.305 115.967 102.803C117.648 102.3 118.588 100.58 118.067 98.9597L114.165 86.8349Z" fill="#4CF58C"/>
<path d="M67.5635 85.0136C68.9763 84.5911 69.7662 83.1451 69.3278 81.7837C68.8893 80.4224 67.3886 79.6612 65.9758 80.0837L55.7533 83.1404C54.3405 83.5628 53.5506 85.0089 53.989 86.3703C54.4275 87.7316 55.9282 88.4927 57.341 88.0703L67.5635 85.0136Z" fill="#185472"/>
<path d="M73.7402 83.0391C75.1506 83.0391 76.294 81.9373 76.294 80.5782C76.294 79.2191 75.1506 78.1173 73.7402 78.1173C72.3297 78.1173 71.1863 79.2191 71.1863 80.5782C71.1863 81.9373 72.3297 83.0391 73.7402 83.0391Z" fill="#185472"/>
<path d="M75.0519 65.5825L58.691 70.4716C57.6998 70.7678 57.1448 71.7801 57.4514 72.7326C57.7579 73.685 58.81 74.217 59.8012 73.9208L76.162 69.0317C77.1532 68.7355 77.7082 67.7232 77.4017 66.7708C77.0951 65.8183 76.0431 65.2863 75.0519 65.5825Z" fill="#FFCB6E"/>
<path d="M80.2494 67.7037C81.3273 67.7037 82.2012 66.8617 82.2012 65.823C82.2012 64.7844 81.3273 63.9424 80.2494 63.9424C79.1715 63.9424 78.2977 64.7844 78.2977 65.823C78.2977 66.8617 79.1715 67.7037 80.2494 67.7037Z" fill="#FFCB6E"/>
<path d="M89.7616 45.8384L80.6987 48.5467C80.0744 48.7332 79.7253 49.3721 79.9189 49.9737C80.1125 50.5753 80.7756 50.9117 81.3999 50.7251L90.4628 48.0168C91.0871 47.8303 91.4362 47.1914 91.2426 46.5898C91.049 45.9883 90.3859 45.6518 89.7616 45.8384Z" fill="#F7B40D"/>
<path d="M88.6354 42.3466L79.5725 45.0549C78.9482 45.2415 78.5991 45.8804 78.7927 46.482C78.9863 47.0835 79.6493 47.4199 80.2736 47.2334L89.3365 44.5251C89.9608 44.3385 90.31 43.6996 90.1164 43.0981C89.9227 42.4965 89.2597 42.1601 88.6354 42.3466Z" fill="#F7B40D"/>
<path d="M127.414 154.684L113.561 158.823C112.603 159.11 112.066 160.089 112.363 161.009C112.659 161.93 113.676 162.444 114.635 162.158L128.487 158.019C129.445 157.732 129.982 156.754 129.686 155.833C129.389 154.912 128.372 154.398 127.414 154.684Z" fill="#F7B40D"/>
<path d="M126.916 149.606L112.993 153.798C112.03 154.088 111.492 155.074 111.792 155.999C112.092 156.925 113.117 157.44 114.08 157.15L128.003 152.958C128.966 152.667 129.503 151.682 129.203 150.757C128.903 149.831 127.879 149.316 126.916 149.606Z" fill="#F7B40D"/>
<path d="M130.711 47.2577L49.8848 71.5963C42.6963 73.7609 38.6899 81.1309 40.9363 88.0576L58.041 140.799C60.2874 147.726 67.9359 151.587 75.1245 149.422L155.951 125.083C163.14 122.919 167.146 115.549 164.9 108.622L147.795 55.8804C145.549 48.9536 137.9 45.0931 130.711 47.2577Z" stroke="#141414" stroke-width="2.01157" stroke-miterlimit="10"/>
<path opacity="0.2" d="M424.606 189.496C424.606 195.298 301.356 200 194.135 200C86.9144 200 0 195.298 0 189.496C0 183.694 86.9144 178.993 194.135 178.993C301.356 178.993 424.606 183.694 424.606 189.496Z" fill="#0E394F"/>
<path opacity="0.2" d="M539 189.496C539 191.847 519.275 193.758 502.114 193.758C484.954 193.758 471.042 191.847 471.042 189.496C471.042 187.145 484.954 185.235 502.114 185.235C519.275 185.235 539 187.145 539 189.496Z" fill="#0E394F"/>
<path d="M386.983 1.00035H173.735C172.229 1.0023 170.771 1.51585 169.619 2.45075C168.466 3.38565 167.693 4.68206 167.434 6.11214L142.684 162.787C142.527 163.671 142.572 164.578 142.816 165.444C143.06 166.309 143.498 167.113 144.098 167.799C144.698 168.485 145.446 169.037 146.291 169.415C147.135 169.793 148.055 169.989 148.986 169.99H370.383C371.862 169.98 373.291 169.476 374.427 168.564C375.563 167.651 376.335 166.388 376.612 164.988L402.223 18.7766C402.645 16.6143 402.568 14.3892 401.998 12.2588C401.428 10.1284 400.378 8.1449 398.924 6.44874C397.47 4.75259 395.646 3.38531 393.583 2.44376C391.519 1.50222 389.266 1.00944 386.983 1.00035Z" fill="#0E3964"/>
<path d="M386.983 1.00035H173.735C172.229 1.0023 170.771 1.51585 169.619 2.45075C168.466 3.38565 167.693 4.68206 167.434 6.11214L142.684 162.787C142.527 163.671 142.572 164.578 142.816 165.444C143.06 166.309 143.498 167.113 144.098 167.799C144.698 168.485 145.446 169.037 146.291 169.415C147.135 169.793 148.055 169.989 148.986 169.99H370.383C371.862 169.98 373.291 169.476 374.427 168.564C375.563 167.651 376.335 166.388 376.612 164.988L402.223 18.7766C402.645 16.6143 402.568 14.3892 401.998 12.2588C401.428 10.1284 400.378 8.1449 398.924 6.44874C397.47 4.75259 395.646 3.38531 393.583 2.44376C391.519 1.50222 389.266 1.00944 386.983 1.00035Z" stroke="#141414" stroke-width="2" stroke-miterlimit="10"/>
<path d="M387.232 1.00035H164.818C162.509 0.999135 160.275 1.78478 158.51 3.21828C156.745 4.65177 155.563 6.64069 155.173 8.83309L129.614 169.99H364.393L392.734 7.39259C392.887 6.61322 392.859 5.81099 392.653 5.04308C392.447 4.27517 392.068 3.56051 391.543 2.95003C391.017 2.33955 390.358 1.8483 389.613 1.51129C388.868 1.17428 388.055 0.999826 387.232 1.00035Z" fill="#2C6E9B"/>
<path d="M387.232 1.00035H164.818C162.509 0.999135 160.275 1.78478 158.51 3.21828C156.745 4.65177 155.563 6.64069 155.173 8.83309L129.614 169.99H364.393L392.734 7.39259C392.887 6.61322 392.859 5.81099 392.653 5.04308C392.447 4.27517 392.068 3.56051 391.543 2.95003C391.017 2.33955 390.358 1.8483 389.613 1.51129C388.868 1.17428 388.055 0.999826 387.232 1.00035Z" stroke="#141414" stroke-width="2" stroke-miterlimit="10"/>
<path d="M381.148 13.0045H166.364L143.701 157.985H356.285L381.148 13.0045Z" fill="#0E394F"/>
<path d="M381.761 13.2246L380.588 19.2267H165.897L166.967 13.2246H381.761Z" fill="#062538"/>
<path d="M172.49 13.0045L149.816 157.985H143.587L166.261 13.0045H172.49Z" fill="#062538"/>
<path d="M196.907 29.0802H185.363L183.889 33.2917H196.336L196.907 29.0802Z" fill="#4CF58C"/>
<path d="M213.517 29.0802H200.935L199.461 33.2917H211.908L213.517 29.0802Z" fill="#4CF58C"/>
<path d="M228.052 29.0802H216.507L216.071 33.2917H226.442L228.052 29.0802Z" fill="#4CF58C"/>
<path d="M237.914 29.0802H233.637L232.163 33.2917H237.343L237.914 29.0802Z" fill="#4CF58C"/>
<path d="M181.854 29.0802H177.577L176.102 33.2917L180.857 33.4317L181.854 29.0802Z" fill="#4CF58C"/>
<path d="M194.831 38.0833H183.286L181.812 42.2948H194.26L194.831 38.0833Z" fill="#4CF58C"/>
<path d="M210.403 38.0833H198.859L197.385 42.2948H209.832L210.403 38.0833Z" fill="#4CF58C"/>
<path d="M225.975 38.0833H214.431L213.995 42.2948H225.404L225.975 38.0833Z" fill="#4CF58C"/>
<path d="M234.8 38.0833H230.522L229.048 42.2948H234.229L234.8 38.0833Z" fill="#4CF58C"/>
<path d="M179.777 38.0833H175.5L174.026 42.2948H179.04L179.777 38.0833Z" fill="#4CF58C"/>
<path d="M28.622 168.989H265.612V189.996H36.6365C34.7706 189.998 32.9227 189.645 31.1985 188.958C29.4742 188.271 27.9074 187.263 26.5875 185.992C25.2676 184.721 24.2206 183.212 23.5062 181.551C22.7919 179.89 22.4242 178.11 22.4242 176.312V174.961C22.4323 173.38 23.088 171.865 24.2485 170.747C25.409 169.629 26.9807 168.997 28.622 168.989Z" fill="#19517F"/>
<path opacity="0.3" d="M265.612 181.994V189.997H36.6261C32.8604 189.994 29.2496 188.551 26.5869 185.985C23.9241 183.42 22.4269 179.94 22.4242 176.312V174.961C22.4196 174.059 22.6328 173.169 23.0471 172.36C23.9526 175.149 25.7576 177.587 28.1997 179.319C30.6417 181.052 33.5936 181.989 36.6261 181.994H265.612Z" fill="#0E3964"/>
<path opacity="0.3" d="M367.362 162.987V168.989H129.801L130.662 162.987H367.362Z" fill="#0E3964"/>
<path d="M94.3164 168.989H178.407C178.407 171.908 177.204 174.706 175.062 176.77C172.921 178.834 170.016 179.993 166.987 179.993H105.736C104.236 179.993 102.752 179.708 101.366 179.155C99.9805 178.602 98.7216 177.792 97.6612 176.77C96.6008 175.748 95.7596 174.535 95.1857 173.2C94.6118 171.865 94.3164 170.434 94.3164 168.989Z" fill="#0E3964"/>
<path d="M94.3164 168.989H178.407C178.407 171.908 177.204 174.706 175.062 176.77C172.921 178.834 170.016 179.993 166.987 179.993H105.736C104.236 179.993 102.752 179.708 101.366 179.155C99.9805 178.602 98.7216 177.792 97.6612 176.77C96.6008 175.748 95.7596 174.535 95.1857 173.2C94.6118 171.865 94.3164 170.434 94.3164 168.989Z" stroke="#141414" stroke-width="2" stroke-miterlimit="10"/>
<path d="M381.055 13.0045L356.191 157.985H143.65L378.138 13.0045H381.055Z" fill="#062538"/>
<path d="M389.496 68.0594L391.406 56.2377C391.562 55.2769 390.879 54.3767 389.882 54.2271C388.885 54.0776 387.951 54.7352 387.796 55.6959L385.885 67.5177C385.73 68.4785 386.413 69.3786 387.41 69.5282C388.407 69.6778 389.341 69.0202 389.496 68.0594Z" fill="#062C4C"/>
<path d="M393.089 45.8034L395 33.9817C395.155 33.0209 394.473 32.1207 393.475 31.9712C392.478 31.8216 391.544 32.4792 391.389 33.4399L389.479 45.2617C389.323 46.2225 390.006 47.1226 391.003 47.2722C392 47.4218 392.934 46.7642 393.089 45.8034Z" fill="#062C4C"/>
<path d="M138.666 172.73H126.25C125.241 172.73 124.423 173.519 124.423 174.491C124.423 175.463 125.241 176.252 126.25 176.252H138.666C139.676 176.252 140.494 175.463 140.494 174.491C140.494 173.519 139.676 172.73 138.666 172.73Z" fill="#141414"/>
<path d="M64.7705 169.049H39.533C38.0078 169.049 36.7715 170.241 36.7715 171.71C36.7715 173.18 38.0078 174.371 39.533 174.371H64.7705C66.2957 174.371 67.532 173.18 67.532 171.71C67.532 170.241 66.2957 169.049 64.7705 169.049Z" fill="#2C6E9B"/>
<path d="M72.6605 174.371C74.1856 174.371 75.422 173.18 75.422 171.71C75.422 170.241 74.1856 169.049 72.6605 169.049C71.1354 169.049 69.899 170.241 69.899 171.71C69.899 173.18 71.1354 174.371 72.6605 174.371Z" fill="#2C6E9B"/>
<path d="M145.007 90.0037L141.112 114.031C140.876 115.483 141.907 116.844 143.414 117.07C144.92 117.297 146.333 116.304 146.568 114.852L150.464 90.8252C150.7 89.3732 149.669 88.0122 148.162 87.7854C146.655 87.5585 145.243 88.5517 145.007 90.0037Z" fill="#4D9AC4"/>
<path d="M148.944 85.56C150.469 85.56 151.706 84.3686 151.706 82.899C151.706 81.4294 150.469 80.2381 148.944 80.2381C147.419 80.2381 146.183 81.4294 146.183 82.899C146.183 84.3686 147.419 85.56 148.944 85.56Z" fill="#4D9AC4"/>
<path d="M196.616 3.99139H171.379C169.854 3.99139 168.617 5.18273 168.617 6.65233C168.617 8.12192 169.854 9.31326 171.379 9.31326H196.616C198.141 9.31326 199.378 8.12192 199.378 6.65233C199.378 5.18273 198.141 3.99139 196.616 3.99139Z" fill="#4D9AC4"/>
<path d="M204.506 9.31326C206.031 9.31326 207.268 8.12192 207.268 6.65233C207.268 5.18273 206.031 3.99139 204.506 3.99139C202.981 3.99139 201.745 5.18273 201.745 6.65233C201.745 8.12192 202.981 9.31326 204.506 9.31326Z" fill="#4D9AC4"/>
<path d="M255.231 9.93348C256.951 9.93348 258.345 8.58987 258.345 6.93243C258.345 5.275 256.951 3.93138 255.231 3.93138C253.51 3.93138 252.116 5.275 252.116 6.93243C252.116 8.58987 253.51 9.93348 255.231 9.93348Z" fill="#F95D5D"/>
<path d="M98.1784 163.987H74.3008V168.989H98.1784V163.987Z" fill="#033156"/>
<path d="M62.1336 163.987H38.256V168.989H62.1336V163.987Z" fill="#033156"/>
<path d="M134.213 163.987H110.335V168.989H134.213V163.987Z" fill="#033156"/>
<path d="M170.258 163.987H146.38V168.989H170.258V163.987Z" fill="#033156"/>
<path d="M206.292 163.987H182.414V168.989H206.292V163.987Z" fill="#033156"/>
<path d="M242.337 163.987H218.459V168.989H242.337V163.987Z" fill="#033156"/>
<path d="M278.371 163.987H254.493V168.989H278.371V163.987Z" fill="#033156"/>
<path d="M350.741 163.987H326.863V168.989H350.741V163.987Z" fill="#033156"/>
<path d="M314.551 164.137H290.673V169.139H314.551V164.137Z" fill="#033156"/>
<path d="M98.1784 163.987H74.3008V168.989H98.1784V163.987Z" stroke="#141414" stroke-width="2" stroke-miterlimit="10"/>
<path d="M62.1336 163.987H38.256V168.989H62.1336V163.987Z" stroke="#141414" stroke-width="2" stroke-miterlimit="10"/>
<path d="M134.213 163.987H110.335V168.989H134.213V163.987Z" stroke="#141414" stroke-width="2" stroke-miterlimit="10"/>
<path d="M170.258 163.987H146.38V168.989H170.258V163.987Z" stroke="#141414" stroke-width="2" stroke-miterlimit="10"/>
<path d="M206.292 163.987H182.414V168.989H206.292V163.987Z" stroke="#141414" stroke-width="2" stroke-miterlimit="10"/>
<path d="M242.337 163.987H218.459V168.989H242.337V163.987Z" stroke="#141414" stroke-width="2" stroke-miterlimit="10"/>
<path d="M278.371 163.987H254.493V168.989H278.371V163.987Z" stroke="#141414" stroke-width="2" stroke-miterlimit="10"/>
<path d="M350.741 163.987H326.863V168.989H350.741V163.987Z" stroke="#141414" stroke-width="2" stroke-miterlimit="10"/>
<path d="M314.551 164.137H290.673V169.139H314.551V164.137Z" stroke="#141414" stroke-width="2" stroke-miterlimit="10"/>
<path d="M381.045 13.0045H166.261L143.598 157.985H356.181L381.045 13.0045Z" stroke="#141414" stroke-width="2" stroke-miterlimit="10"/>
<path d="M351.613 29.5804H262.332C260.21 29.5771 258.158 30.3087 256.549 31.6419C254.941 32.9751 253.883 34.821 253.569 36.8429L244.901 92.2623C244.711 93.477 244.796 94.7169 245.149 95.8972C245.502 97.0775 246.116 98.1704 246.948 99.1011C247.78 100.032 248.81 100.779 249.969 101.29C251.128 101.802 252.388 102.066 253.663 102.066H342.145C344.246 102.069 346.28 101.352 347.883 100.044C349.486 98.7357 350.554 96.9206 350.897 94.9232L360.406 39.5038C360.616 38.2777 360.546 37.022 360.2 35.8248C359.854 34.6275 359.241 33.5175 358.404 32.5724C357.566 31.6272 356.524 30.8698 355.352 30.353C354.179 29.8362 352.903 29.5725 351.613 29.5804Z" fill="white"/>
<path d="M360.24 39.5138L350.741 94.9232C350.397 96.9181 349.33 98.7306 347.729 100.038C346.128 101.346 344.098 102.065 342 102.066H253.528C251.504 102.065 249.541 101.399 247.965 100.176C246.388 98.9533 245.293 97.2482 244.859 95.3434L351.229 29.5804H351.509C352.794 29.5827 354.063 29.8541 355.228 30.3759C356.394 30.8977 357.427 31.6573 358.258 32.6021C359.088 33.5469 359.696 34.6544 360.038 35.8479C360.38 37.0413 360.449 38.2922 360.24 39.5138Z" fill="#F4F3F2"/>
<path d="M28.622 168.989H265.612V189.996H36.6365C34.7706 189.998 32.9227 189.645 31.1985 188.958C29.4742 188.271 27.9074 187.263 26.5875 185.992C25.2676 184.721 24.2206 183.212 23.5062 181.551C22.7919 179.89 22.4242 178.11 22.4242 176.312V174.961C22.4323 173.38 23.088 171.865 24.2485 170.747C25.409 169.629 26.9807 168.997 28.622 168.989Z" stroke="#141414" stroke-width="2" stroke-miterlimit="10"/>
<path d="M375.138 168.989H254.711C248.691 168.989 243.811 173.692 243.811 179.493C243.811 185.294 248.691 189.996 254.711 189.996H375.138C381.158 189.996 386.038 185.294 386.038 179.493C386.038 173.692 381.158 168.989 375.138 168.989Z" fill="#0E3964"/>
<path d="M371.753 177.732H359.337C358.328 177.732 357.51 178.52 357.51 179.493C357.51 180.465 358.328 181.253 359.337 181.253H371.753C372.762 181.253 373.58 180.465 373.58 179.493C373.58 178.52 372.762 177.732 371.753 177.732Z" fill="#141414"/>
<path d="M348.374 177.732H335.958C334.948 177.732 334.13 178.52 334.13 179.493C334.13 180.465 334.948 181.253 335.958 181.253H348.374C349.383 181.253 350.201 180.465 350.201 179.493C350.201 178.52 349.383 177.732 348.374 177.732Z" fill="#141414"/>
<path d="M375.138 168.989H254.711C248.691 168.989 243.811 173.692 243.811 179.493C243.811 185.294 248.691 189.996 254.711 189.996H375.138C381.158 189.996 386.038 185.294 386.038 179.493C386.038 173.692 381.158 168.989 375.138 168.989Z" stroke="#141414" stroke-width="2" stroke-miterlimit="10"/>
<path d="M67.885 59.2107L68.7882 54.7792" stroke="white" stroke-linecap="round" stroke-linejoin="round"/>
<path d="M69.0789 53.7388C69.4458 53.7388 69.7433 53.4522 69.7433 53.0986C69.7433 52.745 69.4458 52.4584 69.0789 52.4584C68.7119 52.4584 68.4145 52.745 68.4145 53.0986C68.4145 53.4522 68.7119 53.7388 69.0789 53.7388Z" fill="white"/>
<path d="M112.121 60.071L130.039 54.7092C132.092 54.1174 134.304 54.3283 136.196 55.2962C138.089 56.2641 139.509 57.9112 140.151 59.881L144.511 73.4457" stroke="#141414" stroke-width="2" stroke-linecap="round" stroke-linejoin="round"/>
<path d="M92.8319 65.823L104.698 62.2718" stroke="#141414" stroke-width="2" stroke-linecap="round" stroke-linejoin="round"/>
<path d="M136.362 123.113L74.0724 141.73C72.0088 142.346 69.7757 142.147 67.864 141.177C65.9523 140.207 64.5185 138.546 63.8777 136.558L48.0666 87.4206C47.4272 85.4321 47.6334 83.2803 48.6399 81.4383C49.6463 79.5962 51.3707 78.2146 53.4339 77.5972L86.5406 67.7037" stroke="#141414" stroke-width="2" stroke-linecap="round" stroke-linejoin="round"/>
<path d="M275.516 76.4268H263.972L262.498 80.6482H274.945L275.516 76.4268Z" fill="#EABD35"/>
<path d="M292.127 76.4268H279.544L278.08 80.6482H290.517L292.127 76.4268Z" fill="#EABD35"/>
<path d="M306.661 76.4268H295.116L294.691 80.6482H305.052L306.661 76.4268Z" fill="#EABD35"/>
<path d="M316.523 76.4268H312.246L310.782 80.6482H315.952L316.523 76.4268Z" fill="#EABD35"/>
<path d="M260.463 76.4268H256.186L254.711 80.6482L259.466 80.7783L260.463 76.4268Z" fill="#EABD35"/>
<path d="M273.44 85.4299H261.896L260.421 89.6514H272.869L273.44 85.4299Z" fill="#EABD35"/>
<path d="M289.012 85.4299H277.468L276.004 89.6514H288.441L289.012 85.4299Z" fill="#EABD35"/>
<path d="M304.584 85.4299H293.04L292.615 89.6514H304.013L304.584 85.4299Z" fill="#EABD35"/>
<path d="M313.409 85.4299H309.132L307.668 89.6514H312.838L313.409 85.4299Z" fill="#EABD35"/>
<path d="M258.387 85.4299H254.109L252.635 89.6514H257.649L258.387 85.4299Z" fill="#EABD35"/>
<path d="M351.613 29.5804H262.332C260.21 29.5771 258.158 30.3087 256.549 31.6419C254.941 32.9751 253.883 34.821 253.569 36.8429L244.901 92.2623C244.711 93.477 244.796 94.7169 245.149 95.8972C245.502 97.0775 246.116 98.1704 246.948 99.1011C247.78 100.032 248.81 100.779 249.969 101.29C251.128 101.802 252.388 102.066 253.663 102.066H342.145C344.246 102.069 346.28 101.352 347.883 100.044C349.486 98.7357 350.554 96.9206 350.897 94.9232L360.406 39.5038C360.616 38.2777 360.546 37.022 360.2 35.8248C359.854 34.6275 359.241 33.5175 358.404 32.5724C357.566 31.6272 356.524 30.8698 355.352 30.353C354.179 29.8362 352.903 29.5725 351.613 29.5804Z" stroke="#141414" stroke-width="1.3" stroke-miterlimit="10"/>
</svg>
