<svg width="493" height="684" viewBox="0 0 493 684" fill="none" xmlns="http://www.w3.org/2000/svg">
<path d="M376.645 680.893L69.0051 681.351C64.2244 681.351 61.7362 678.173 62.4911 673.008L87.317 507.82H360.737L383.271 672.458C383.886 676.889 380.727 680.893 376.645 680.893Z" fill="white"/>
<path d="M147.732 564.788C141.023 571.542 131.349 574.781 122.319 573.039C120.586 572.703 118.825 573.253 117.79 574.873C116.672 573.376 115.582 571.695 115.526 569.83C115.358 563.932 106.971 563.932 107.139 569.83C107.278 574.323 109.319 577.746 111.779 581.169C114.324 584.684 116.951 588.137 119.524 591.621C122.124 595.136 124.752 598.681 127.352 602.196C129.784 605.466 132.859 608.216 136.969 607.147C144.741 605.13 144.405 594.952 147.341 588.565C150.416 581.811 154.106 575.668 154.861 567.997C155.281 563.779 150.137 562.312 147.704 564.757L147.732 564.788ZM142.504 579.121C142.504 579.121 142.532 579.121 142.56 579.121C142.56 579.121 142.56 579.152 142.532 579.182C142.532 579.182 142.532 579.182 142.532 579.152L142.504 579.121ZM135.319 598.07C135.319 598.07 135.263 598.009 135.235 597.978C135.347 597.947 135.459 597.886 135.571 597.856C135.487 597.947 135.403 598.009 135.347 598.1L135.319 598.07Z" fill="#E3BCA3"/>
<path d="M195.958 518.333H317.292C322.688 518.333 322.688 509.165 317.292 509.165H195.958C190.563 509.165 190.563 518.333 195.958 518.333Z" fill="#D6E8E8"/>
<path d="M96.4589 515.95L105.88 570.442L101.519 547.612C101.994 551.768 113.401 553.571 127.044 551.646C140.687 549.721 150.863 544.953 150.416 540.827L146.055 519.067" fill="#F8D602"/>
<path d="M101.323 548.406L105.908 569.861L105.405 570.014C105.88 574.17 117.287 575.973 130.93 574.048C144.573 572.123 154.694 566.621 154.218 562.496L150.919 541.591" fill="#F8D602"/>
<path d="M65.2308 458.371C64.6437 490.002 73.9814 497.826 78.9298 503.48C78.9298 503.48 95.8159 529.03 156.595 515.919V515.552L153.519 500.546C91.846 515.613 74.7922 485.113 74.7922 485.113C69.7878 478.603 66.1534 470.198 65.3986 461.488C64.3362 449.355 70.1513 437.344 78.147 429.551" fill="#809B9A"/>
<path d="M78.1191 429.948C70.1233 437.741 64.3083 449.752 65.3706 461.885C66.1255 470.626 69.7599 479 74.7642 485.51C74.7642 485.51 91.8181 515.98 153.491 500.944L156.567 515.95L153.771 501.891L147.173 469.006C136.549 472.307 125.702 475.638 114.659 475.424C103.616 475.21 92.0976 471.36 85.1084 461.977L78.1191 429.917V429.948Z" fill="#D6E8E8"/>
<path d="M46.3039 269.008L43.1727 244.681C41.2996 231.111 49.8545 218.428 62.2954 216.411L69.8158 256.784L46.3039 269.039V269.008Z" fill="#516B63"/>
<path d="M78.147 329.919L72.947 330.805C63.4137 332.455 54.4394 325.334 52.9577 314.882L45.8566 265.494C43.8996 251.924 52.3706 239.211 64.7835 237.071" fill="#719088"/>
<path d="M59.919 260.42C62.1556 277.382 64.8954 294.253 68.0825 311.001C69.1728 316.777 77.2524 314.332 76.1621 308.556C72.975 291.777 70.2631 274.907 67.9986 257.976C67.6631 255.531 64.8394 254.186 62.8265 254.767C60.4222 255.5 59.5835 257.945 59.891 260.42H59.919Z" fill="#296D6F"/>
<path d="M415.701 260.848L420.873 259.87C430.407 258.098 436.809 248.226 435.159 237.805L427.471 188.539C425.346 175 413.604 165.892 401.219 168.215" fill="#516B63"/>
<path d="M416.624 280.714L423.054 279.736C432.587 277.963 438.989 268.092 437.34 257.67L429.652 208.404C427.527 194.865 415.785 185.757 403.4 188.08" fill="#719088"/>
<path d="M62.7706 213.294L55.8093 163.081C53.7125 148.625 54.1598 133.802 58.9964 123.992C63.3018 115.251 71.4094 110.758 79.8524 109.291L176.36 92.5739L246.784 80.8076L349.862 62.9899C368.006 59.842 387.94 73.9005 389.897 106.785L400.157 163.294" fill="#667C75"/>
<path d="M349.543 125.212L101.179 167.923C76.8505 172.106 60.2312 197.057 64.0583 223.652L83.3219 357.518C87.149 384.113 109.973 402.281 134.301 398.097L382.665 355.386C406.993 351.202 423.613 326.252 419.786 299.657L400.522 165.791C396.695 139.196 373.871 121.028 349.543 125.212Z" fill="#7C9991"/>
<path d="M348.009 142.294L105.224 184.045C88.4004 186.938 76.9075 204.193 79.554 222.584L98.4224 353.702C101.069 372.094 116.853 384.657 133.676 381.764L376.462 340.013C393.285 337.12 404.778 319.865 402.132 301.474L383.263 170.355C380.617 151.964 364.833 139.4 348.009 142.294Z" fill="#D2F3F9"/>
<path d="M325.12 658.766V615.979C339.658 615.979 351.456 603.051 351.456 587.19C351.456 571.328 339.63 558.4 325.12 558.4V515.613C374.856 515.613 390.596 547.734 390.596 587.19C390.596 626.645 372.899 658.766 325.12 658.766Z" fill="#809B9A"/>
<path d="M335.94 658.766V623.131C335.94 619.31 338.428 616.132 341.811 615.276C353.525 612.342 362.275 600.881 362.275 587.19C362.275 573.498 353.944 562.618 342.677 559.348C338.651 558.186 335.94 554.091 335.94 549.537V515.583C385.675 515.583 401.415 547.704 401.415 587.159C401.415 626.615 383.718 658.735 335.94 658.735V658.766Z" fill="#296D6F"/>
<path d="M341.195 658.766V615.979C355.733 615.979 367.531 603.051 367.531 587.19C367.531 571.328 355.705 558.4 341.195 558.4V515.613C377.316 515.613 406.671 547.734 406.671 587.19C406.671 626.645 377.288 658.766 341.195 658.766Z" fill="#D6E8E8"/>
<path d="M351.707 656.81C384.11 650.331 407.594 618.088 406.168 582.116C405.944 576.248 397.557 576.218 397.781 582.116C398.396 597.825 393.923 613.687 384.669 625.851C375.415 638.014 363.198 645.227 349.471 647.977C344.159 649.047 346.423 657.88 351.707 656.81Z" fill="#8DCECC"/>
<path d="M381.649 507.239C381.649 431.782 345.641 378.176 335.408 365.493L334.094 364.026L346.703 381.049C357.998 381.782 368.314 390.89 376.981 401.586C398.787 428.481 413.576 467.386 417.798 508.829C420.37 534.012 418.469 562.251 406.587 580.741L404.239 570.136L400.772 557.514L393.28 543.853L386.402 535.418L377.288 527.471L380.084 519.281L381.621 507.239H381.649Z" fill="#719088"/>
<path d="M361.828 412.528C373.374 438.353 380.363 466.47 382.404 495.137C382.824 500.974 391.211 501.035 390.791 495.137C388.639 464.789 381.286 435.266 369.069 407.882C366.692 402.595 359.479 407.21 361.828 412.497V412.528Z" fill="#296D6F"/>
<path d="M158.3 491.133H151.534L147.201 468.456L137.78 470.779L132.188 444.282L140.967 443.365L139.094 423.591C139.094 423.591 172.027 395.199 185.027 411.122" fill="#719088"/>
<path d="M156.119 461.427C159.195 448.56 163.947 436.244 169.623 424.477C170.685 422.277 170.126 419.496 168.113 418.212C166.212 416.99 163.444 417.662 162.382 419.863C156.371 432.271 151.283 445.382 148.012 458.982C146.642 464.697 154.722 467.142 156.091 461.427H156.119Z" fill="#296D6F"/>
<path d="M368.677 505.589C368.593 479.336 364.26 453.145 355.593 428.664C351.316 416.592 346.116 404.918 339.965 393.854C336.862 388.261 333.507 382.852 329.957 377.595C327.245 373.592 324.225 367.143 319.473 366.165C314.189 365.065 311.924 373.897 317.236 374.998L317.991 375.15C318.802 375.303 318.69 375.303 317.628 375.12C318.299 376.526 319.64 377.84 320.535 379.093C322.213 381.446 323.834 383.891 325.428 386.336C328.531 391.165 331.466 396.116 334.206 401.189C339.853 411.672 344.69 422.644 348.52 434.043C356.264 456.965 360.206 481.17 360.29 505.62C360.29 511.518 368.705 511.518 368.677 505.62V505.589Z" fill="#719088"/>
<path d="M322.436 373.469C350.337 410.572 365.909 457.546 366.077 505.589C366.077 511.488 374.492 511.488 374.464 505.589C374.297 454.978 357.718 406.018 328.363 366.99C324.924 362.437 319.025 368.946 322.436 373.469Z" fill="#719088"/>
<path d="M328.643 372.155C356.712 409.502 372.312 457.301 372.479 505.589C372.479 511.488 380.894 511.488 380.867 505.589C380.699 454.734 364.12 404.918 334.598 365.676C331.159 361.122 325.26 367.632 328.671 372.155H328.643Z" fill="#719088"/>
<path d="M319.976 375.853C321.43 375.548 322.912 375.303 324.365 375.089L323.247 375.242C326.266 374.814 329.342 374.508 332.389 374.417C334.57 374.356 336.694 372.369 336.583 369.833C336.471 367.296 334.737 365.157 332.389 365.248C327.469 365.432 322.576 366.043 317.739 367.021C316.761 367.235 315.727 368.213 315.223 369.13C314.692 370.108 314.468 371.575 314.804 372.675C315.559 375.211 317.656 376.342 319.976 375.884V375.853Z" fill="#296D6F"/>
<path d="M210.72 384.991C205.1 386.672 199.341 386.856 193.889 389.392C188.857 391.715 185.782 395.657 184.636 401.189C176.864 411.244 169.874 421.971 165.932 434.471C160.928 442.478 158.803 451.892 156.902 461.335C156.623 462.374 156.287 463.413 156.008 464.483C154.777 469.22 152.457 476.463 152.317 482.973C150.808 483.859 149.745 485.663 150.304 488.016C151.702 493.853 153.1 499.691 154.47 505.528C154.917 507.362 156.706 509.043 158.524 508.89C160.509 508.737 162.466 508.584 164.451 508.431C164.786 508.737 165.122 509.012 165.569 509.256C168.421 510.815 171.775 508.92 171.887 505.283C172.139 496.359 172.838 487.527 173.061 478.603C174.431 475.577 175.074 472.276 175.857 468.945C176.919 464.391 177.171 459.654 178.597 455.192C180.163 450.363 182.371 445.687 184.328 441.042C187.907 432.424 191.317 423.683 195.343 415.309C197.887 410.022 200.767 404.154 204.737 399.692C206.526 397.98 208.399 396.36 210.44 394.924C210.72 394.71 210.971 394.496 211.195 394.282C211.866 394.16 212.481 394.038 212.984 393.854C218.184 392.296 215.976 383.433 210.748 385.022L210.72 384.991Z" fill="#719088"/>
<path d="M210.468 385.511C206.61 386.611 202.668 387.1 198.726 387.681C196.07 388.078 192.436 387.956 190.423 390.126C188.13 392.571 186.145 395.505 184.188 398.255C175.55 410.205 167.778 423.102 162.941 437.466C162.158 439.789 163.808 442.478 165.876 443.12C168.225 443.823 170.238 442.264 171.048 439.911C174.711 429.001 180.526 418.946 186.788 409.624C189.836 405.071 193.051 400.608 196.545 396.483L194.7 397.675C200.683 396.421 206.834 396.146 212.76 394.435C217.988 392.937 215.752 384.105 210.524 385.603L210.468 385.511Z" fill="#296D6F"/>
<path d="M358.697 509.501L170.685 508.89C170.685 475.149 178.96 447.98 188.494 427.87L191.988 420.871C203.982 398.194 216.591 386.397 216.591 386.397L217.933 385.144L279.019 374.57L286.707 373.225L311.309 368.977L312.791 370.872C312.791 370.872 358.697 419.954 358.697 509.501Z" fill="#F0EEC4"/>
<path d="M222.462 392.601C237.055 389.667 251.733 387.406 266.326 384.533C280.92 381.66 295.905 379.979 310.582 377.076L306.501 375.884C315.922 386.733 323.834 399.6 330.292 412.711C341.671 435.755 346.591 462.344 349.555 488.138C350.226 493.884 350.813 499.66 351.036 505.467C351.26 511.274 359.647 511.365 359.423 505.467C359.088 495.809 357.83 486.09 356.432 476.555C353.552 456.72 349.694 436.58 342.118 418.212C336.107 403.665 328.056 390.187 318.942 377.748C316.957 375.028 314.944 372.094 312.651 369.68C310.499 367.449 308.346 368.243 305.662 368.763C299.847 369.833 294.004 370.658 288.133 371.513C277.006 373.164 265.963 375.425 254.864 377.443C243.765 379.46 231.715 381.446 220.197 383.769C214.885 384.839 217.15 393.671 222.434 392.601H222.462Z" fill="#F0B59B"/>
<path d="M346.703 383.494C360.486 384.686 371.249 397.002 379.525 408.035C387.8 419.068 394.649 431.598 400.157 444.618C411.787 472.154 418.385 503.541 417.49 533.951C417.015 550.332 414.164 567.385 405.525 581.138C404.602 582.605 406.783 584.011 407.705 582.544C423.585 557.239 421.74 521.94 416.791 493.181C411.536 462.527 400.409 432.454 382.628 407.913C373.682 395.566 361.94 382.088 346.703 380.743C345.081 380.59 345.081 383.371 346.703 383.524V383.494Z" fill="#262626"/>
<path d="M261.378 680.648C232.219 680.648 203.059 680.648 173.9 680.648H128.805C121.844 680.648 114.883 680.557 107.921 680.465C97.8848 680.343 87.8761 680.251 77.8395 680.129C75.547 680.129 73.2825 680.068 70.99 680.068C69.2567 680.068 66.3212 680.526 64.6717 679.762C61.205 678.173 65.0072 663.075 65.4545 660.141C72.5556 612.006 79.6567 563.84 86.7299 515.705C86.9535 514.269 84.9127 513.627 84.717 515.094C78.175 559.531 71.6051 603.999 65.0631 648.436L62.7706 663.992C62.1276 668.332 60.5341 673.466 60.9534 677.867C61.205 680.587 62.9104 681.81 65.2309 682.207C70.1513 683.002 75.6029 682.421 80.5793 682.482C95.4245 682.635 110.27 682.91 125.115 682.971C157.937 683.063 190.758 682.971 223.58 682.971C236.189 682.971 248.797 682.971 261.406 682.971C262.748 682.971 262.748 680.679 261.406 680.679L261.378 680.648Z" fill="#262626"/>
<path d="M378.35 645.93C379.301 652.44 380.168 658.919 381.062 665.428C381.482 668.423 382.264 671.632 382.376 674.658C382.488 678.02 381.677 679.854 378.77 680.006C376.953 680.098 375.107 680.037 373.29 680.068C359.172 680.22 345.026 680.373 330.907 680.526C318.522 680.648 306.137 680.618 293.752 680.618C289.111 680.618 284.443 680.618 279.802 680.618C278.46 680.618 278.46 682.91 279.802 682.91C291.488 682.91 303.174 682.91 314.832 682.91C322.017 682.91 329.174 682.818 336.359 682.757C344.103 682.665 351.847 682.574 359.591 682.513C363.226 682.482 366.888 682.421 370.522 682.39C373.821 682.36 377.428 682.788 380.699 682.146C386.486 681.015 384.389 674.383 383.746 669.86C382.6 661.669 381.51 653.479 380.335 645.319C380.112 643.852 378.099 644.493 378.323 645.93H378.35Z" fill="#262626"/>
<path d="M358.501 509.807C358.92 512.649 359.34 515.491 359.759 518.333C359.843 518.945 360.542 519.281 361.045 519.128C361.632 518.945 361.856 518.333 361.772 517.722C361.353 514.88 360.933 512.038 360.514 509.195C360.43 508.584 359.731 508.248 359.228 508.401C358.641 508.584 358.417 509.195 358.501 509.807Z" fill="#262626"/>
<path d="M188.466 426.586C176.556 451.892 170.573 479.856 170.489 508.309C170.489 510.082 173.005 510.082 173.033 508.309C173.117 480.345 178.96 452.87 190.674 427.992C191.429 426.403 189.221 424.997 188.494 426.586H188.466Z" fill="#262626"/>
<path d="M216.758 384.839C213.907 387.528 211.307 390.645 208.846 393.732C202.444 401.709 196.853 410.449 191.96 419.618C191.15 421.177 193.33 422.552 194.141 421.024C198.978 411.947 204.513 403.298 210.859 395.413C213.264 392.418 215.78 389.423 218.548 386.825C219.778 385.664 217.988 383.708 216.758 384.869V384.839Z" fill="#262626"/>
<path d="M191.01 388.934C167.805 415.156 153.883 450.547 149.801 486.488C149.605 488.26 152.149 488.23 152.345 486.488C156.343 451.28 170.098 416.562 192.827 390.89C193.973 389.606 192.184 387.65 191.038 388.934H191.01Z" fill="#262626"/>
<path d="M361.045 508.309C360.933 461.06 347.877 412.222 319.892 375.517C317.879 372.889 315.754 370.383 313.546 367.968C312.372 366.715 310.582 368.671 311.757 369.924C332.417 392.173 345.557 423.652 352.518 453.97C356.6 471.726 358.473 490.002 358.529 508.309C358.529 510.082 361.073 510.082 361.073 508.309H361.045Z" fill="#262626"/>
<path d="M382.907 508.309C382.768 462.099 369.32 415.798 345.026 377.931C341.95 373.133 338.735 368.304 334.961 364.117C333.815 362.834 332.026 364.79 333.172 366.073C341.195 374.997 347.458 386.244 353.049 397.063C363.282 416.867 370.914 438.291 375.471 460.479C378.714 476.188 380.307 492.233 380.363 508.309C380.363 510.082 382.907 510.082 382.907 508.309Z" fill="#262626"/>
<path d="M204.429 151.07C216.395 148.991 228.389 146.913 240.354 144.835C263.167 140.892 285.98 136.919 308.793 132.977C322.324 130.624 335.828 128.179 349.359 125.948C363.869 123.564 378.602 129.065 388.471 141.015C395.824 149.878 398.396 160.544 400.045 171.974C403.092 192.94 406.112 213.936 409.159 234.901L409.411 236.582C409.662 238.324 412.095 237.591 411.843 235.849C408.991 216.136 406.14 196.424 403.26 176.711C401.918 167.512 401.024 158.282 397.082 149.847C389.925 134.536 375.639 124.175 359.983 122.739C354.028 122.189 348.241 123.35 342.398 124.358L318.606 128.484C295.514 132.488 272.421 136.492 249.356 140.465L219.862 145.568C214.857 146.424 209.35 146.73 204.457 148.227C204.234 148.288 203.982 148.319 203.73 148.35C202.137 148.625 202.808 151.284 204.401 151.009L204.429 151.07Z" fill="#262626"/>
<path d="M401.219 162.989C398.396 147.372 395.544 131.754 392.72 116.137C389.897 100.52 389.561 83.008 378.35 71.5778C370.578 63.6317 359.899 60.1476 349.387 61.8285C345.529 62.4398 341.671 63.1733 337.841 63.8151L285.701 72.8309C272.617 75.0924 259.561 77.354 246.477 79.6156C245.079 79.8601 245.666 82.2134 247.064 81.9689C275.077 77.1401 303.09 72.2807 331.103 67.4519C343.6 65.282 357.103 60.9728 369.097 67.4519C375.163 70.7526 380.224 76.101 383.383 82.6413C385.619 87.2867 386.486 92.2072 387.297 97.2805C388.107 102.354 388.974 107.794 389.925 113.02C392.972 129.86 396.047 146.73 399.095 163.569C399.374 165.098 401.527 164.456 401.247 162.928L401.219 162.989Z" fill="#262626"/>
<path d="M63.833 212.958C62.0437 199.358 60.2824 185.727 58.4932 172.127C56.5362 157.06 51.5319 139.12 59.5276 125.245C64.3642 116.84 72.2201 111.858 81.0546 110.3C85.2761 109.566 89.4976 108.833 93.6912 108.099C109.794 105.318 125.898 102.506 142.001 99.7253C153.547 97.7388 165.094 95.7217 176.64 93.7352C178.038 93.4907 177.451 91.1374 176.053 91.3819C149.158 96.0273 122.291 100.703 95.3966 105.349C83.4309 107.427 70.7384 108.069 61.7362 118.215C54.719 126.131 51.7276 137.042 53.0975 147.861C53.7964 153.453 54.5512 159.046 55.2781 164.609C57.4029 180.929 59.5556 197.249 61.6803 213.569C61.876 215.128 64.0287 214.455 63.833 212.927V212.958Z" fill="#262626"/>
<path d="M77.8395 328.757C74.233 329.368 70.6266 330.285 66.9921 329.491C61.1491 328.207 56.3125 323.409 54.5792 317.205C53.377 312.926 53.0975 308.158 52.4545 303.727C50.6093 290.983 48.5405 278.238 46.9469 265.433C45.3534 252.627 53.1534 240.311 65.0631 238.263C66.461 238.019 65.8739 235.665 64.476 235.91C54.048 237.713 45.8286 247.248 44.6265 258.678C44.0114 264.485 45.4652 270.659 46.3039 276.374C47.5899 285.267 48.8759 294.161 50.162 303.055C50.9168 308.403 51.1684 314.546 53.0416 319.589C55.2781 325.579 60.1706 330.194 65.9577 331.691C70.1513 332.761 74.289 331.783 78.4546 331.049C79.8524 330.805 79.2653 328.452 77.8675 328.696L77.8395 328.757Z" fill="#262626"/>
<path d="M47.3942 268.672L44.4308 245.781C43.7039 240.219 44.1232 234.779 46.6394 229.736C49.9104 223.165 55.8373 218.673 62.6029 217.542C64.0007 217.297 63.4136 214.975 62.0158 215.189C51.476 216.931 43.1447 226.558 41.9705 238.08C41.6351 241.411 42.0824 244.65 42.5017 247.921L44.0953 260.176L45.2695 269.283C45.4652 270.842 47.6179 270.17 47.4222 268.642L47.3942 268.672Z" fill="#262626"/>
<path d="M419.112 281.906C422.858 281.203 426.632 280.775 430.015 278.727C434.516 276.038 437.843 271.27 439.101 265.861C440.415 260.054 438.822 253.85 437.927 248.073L433.789 221.546C432.951 216.106 432.503 210.299 431.022 204.981C427.555 192.512 415.785 184.749 404.071 186.919C402.673 187.194 403.26 189.517 404.658 189.272C416.176 187.133 427.164 195.843 429.456 208.221C430.211 212.408 430.77 216.656 431.441 220.873C433.37 233.22 435.607 245.567 437.228 257.976C438.123 264.73 435.69 271.576 430.518 275.549C426.94 278.299 422.718 278.788 418.525 279.552C417.127 279.827 417.714 282.15 419.112 281.906Z" fill="#262626"/>
<path d="M412.989 167.665C408.964 166.014 404.574 165.617 400.353 166.442C399.766 166.565 399.43 167.359 399.57 167.94C399.738 168.612 400.353 168.918 400.94 168.796C404.798 168.032 408.74 168.521 412.402 170.018C412.961 170.263 413.632 169.774 413.772 169.162C413.94 168.49 413.548 167.909 412.989 167.665Z" fill="#262626"/>
<path d="M432.224 211.552C431.189 205.501 430.155 199.449 429.121 193.367C428.757 191.167 428.394 188.966 428.002 186.766C426.856 180.654 423.669 175.183 419.14 171.363C418.022 170.415 416.428 172.127 417.574 173.074C422.047 176.864 424.899 181.998 425.961 188.05C426.353 190.25 426.716 192.481 427.108 194.682C428.114 200.519 429.093 206.326 430.099 212.163C430.351 213.691 432.503 213.049 432.252 211.521L432.224 211.552Z" fill="#262626"/>
<path d="M273.12 155.409C275.832 174.48 263.894 192.359 246.449 195.323L206.358 202.139C188.913 205.103 172.558 192.053 169.846 172.983" fill="#719088"/>
<path d="M248.741 90.8624C251.481 109.903 235.518 115.679 216.171 119.01C196.825 122.341 181.421 121.975 178.681 102.934C175.941 83.8943 189.388 65.7404 208.735 62.4092C228.081 59.0779 245.974 71.8223 248.741 90.8624Z" fill="#D2F3F9"/>
<path d="M156.036 510.265H381.705C383.131 510.265 383.131 507.82 381.705 507.82H156.036C154.61 507.82 154.61 510.265 156.036 510.265Z" fill="#262626"/>
<path d="M417.76 509.971H491.784C492.788 509.971 492.788 507.971 491.784 507.971H417.76C416.756 507.971 416.756 509.971 417.76 509.971Z" fill="#262626"/>
<path d="M1.06931 510.265H74.4567C75.8825 510.265 75.8825 507.82 74.4567 507.82H1.06931C-0.356499 507.82 -0.356499 510.265 1.06931 510.265Z" fill="#262626"/>
<path d="M88.4598 345.727C102.431 343.809 113.371 338.886 112.894 334.733C112.416 330.58 100.703 328.768 86.7314 330.687C72.7597 332.605 61.8203 337.528 62.2975 341.681C62.7748 345.834 74.488 347.646 88.4598 345.727Z" fill="white"/>
<path d="M61.8481 341.379L70.4588 385.817L66.0137 362.987C66.4889 367.143 78.203 368.946 92.1815 367.021C106.16 365.095 117.091 360.175 116.616 356.019L112.674 334.533L103.225 330.01L84.9127 330.377L68.0545 335.573L61.8481 341.349V341.379Z" fill="#F78A52"/>
<path d="M66.6007 366.868L75.6868 413.72L72.5276 397.369C73.0029 401.525 84.1858 400.822 98.1643 398.897C112.143 396.972 122.934 393.457 122.459 389.331L116.644 359.105L113.065 361.306L92.2094 367.54L66.6287 366.868H66.6007Z" fill="#F8D602"/>
<path d="M72.3599 396.391L80.104 439.055L76.0223 416.653C76.4976 420.81 87.1213 422.583 101.1 420.657C115.078 418.732 126.01 413.811 125.534 409.655L121.592 388.17" fill="#F8D602"/>
<path d="M75.9943 416.653L84.4094 461.091L80.0481 438.261C80.5234 442.417 91.9299 444.22 105.573 442.295C119.216 440.37 129.896 435.449 129.42 431.293L125.59 409.808" fill="#F8D602"/>
<path d="M79.489 436.763L84.9127 461.091L83.5428 458.371C84.018 462.527 95.4245 464.33 109.068 462.405C122.711 460.48 133.39 455.559 132.915 451.403L129.085 429.917" fill="#F8D602"/>
<path d="M83.1793 456.659L84.9127 461.091H84.4094C84.8847 465.247 98.8912 476.708 112.506 474.783C121.76 473.468 129.504 473.591 133.558 472.918C135.487 472.613 136.745 472.613 136.605 471.298L132.775 449.813" fill="#F8D602"/>
<path d="M129.309 605.191C131.741 605.68 134.201 605.955 136.661 605.435C139.121 604.916 141.302 603.51 143.483 602.379C144.769 601.707 143.651 599.598 142.364 600.27C140.407 601.279 138.45 602.532 136.298 603.021C134.145 603.51 131.992 603.265 129.896 602.837C129.309 602.715 128.693 603.021 128.526 603.693C128.386 604.274 128.721 605.068 129.309 605.191Z" fill="#262626"/>
<path d="M131.909 606.963C135.207 607.544 138.562 606.963 141.526 605.252C142.784 604.518 141.666 602.41 140.407 603.143C138.003 604.549 135.179 605.099 132.496 604.61C131.909 604.518 131.293 604.793 131.126 605.466C130.986 606.046 131.293 606.841 131.909 606.963Z" fill="#262626"/>
<path d="M133.362 608.614C135.99 609.133 138.534 608.247 140.827 606.902C141.33 606.596 141.554 605.771 141.218 605.252C140.883 604.671 140.24 604.488 139.709 604.824C139.457 604.977 139.233 605.099 138.982 605.221C138.842 605.282 138.702 605.374 138.562 605.435C138.534 605.435 138.255 605.588 138.395 605.527C137.891 605.741 137.36 605.955 136.829 606.108C136.577 606.169 136.298 606.23 136.018 606.291C136.018 606.291 135.655 606.352 135.85 606.291C135.711 606.291 135.543 606.321 135.403 606.321C135.124 606.321 134.872 606.321 134.592 606.321C134.481 606.321 134.369 606.321 134.257 606.321C134.117 606.321 134.117 606.321 134.201 606.321C134.117 606.321 134.061 606.321 133.977 606.291C133.418 606.169 132.747 606.444 132.607 607.147C132.496 607.727 132.775 608.522 133.39 608.644L133.362 608.614Z" fill="#262626"/>
<path d="M134.844 610.508C135.851 610.447 136.885 610.386 137.863 610.111C138.842 609.836 139.709 609.378 140.435 608.644C140.883 608.216 140.855 607.361 140.435 606.933C139.96 606.474 139.317 606.474 138.87 606.933C138.842 606.963 138.786 607.024 138.758 607.055C138.87 606.963 138.898 606.933 138.786 607.024C138.73 607.085 138.646 607.116 138.59 607.177C138.423 607.299 138.283 607.391 138.115 607.483C138.059 607.483 138.031 607.544 137.975 607.544C138.115 607.483 138.143 607.483 138.031 607.544C137.947 607.544 137.891 607.605 137.808 607.636C137.612 607.697 137.416 607.758 137.22 607.819C137.025 607.88 136.829 607.911 136.605 607.941C136.549 607.941 136.521 607.941 136.466 607.941C136.605 607.941 136.605 607.941 136.466 607.941C136.354 607.941 136.242 607.941 136.158 607.972C135.711 608.002 135.291 608.033 134.844 608.063C134.257 608.063 133.698 608.614 133.726 609.286C133.726 609.928 134.229 610.539 134.844 610.508Z" fill="#262626"/>
<path d="M135.599 611.853C136.941 612.373 138.646 611.884 139.569 610.692C139.764 610.447 139.904 610.172 139.904 609.836C139.904 609.53 139.792 609.194 139.569 608.98C139.345 608.766 139.066 608.614 138.786 608.614C138.506 608.614 138.199 608.736 138.003 608.98C137.891 609.133 137.78 609.255 137.64 609.347L137.863 609.164C137.668 609.317 137.472 609.439 137.248 609.561L137.528 609.439C137.304 609.53 137.081 609.592 136.857 609.653H137.164C136.941 609.653 136.689 609.653 136.466 609.622H136.773C136.605 609.622 136.41 609.622 136.242 609.53C135.99 609.439 135.627 609.53 135.375 609.653C135.124 609.775 134.928 610.081 134.872 610.386C134.816 610.692 134.816 611.059 134.984 611.334C135.152 611.609 135.375 611.792 135.655 611.884L135.599 611.853Z" fill="#262626"/>
<path d="M136.969 613.656C137.22 613.656 137.472 613.656 137.696 613.595C137.863 613.595 138.003 613.534 138.143 613.473C138.367 613.381 138.59 613.29 138.786 613.137C138.982 612.984 139.177 612.831 139.345 612.617L137.584 611.15C137.584 611.15 137.5 611.303 137.444 611.395L137.612 611.15C137.612 611.15 137.444 611.364 137.36 611.456C137.248 611.578 137.164 611.7 137.081 611.853C137.025 611.945 136.997 612.037 136.941 612.159C136.857 612.403 136.773 612.678 136.801 612.953C136.801 613.381 136.969 613.748 137.22 614.084C137.416 614.298 137.724 614.451 138.003 614.451C138.283 614.451 138.59 614.329 138.786 614.084C138.982 613.84 139.121 613.534 139.121 613.228C139.121 612.923 139.01 612.617 138.786 612.373C138.786 612.373 138.786 612.373 138.758 612.342L138.926 612.587C138.926 612.587 138.898 612.526 138.87 612.495L138.982 612.801C138.982 612.801 138.982 612.739 138.954 612.678V613.015C138.954 613.015 138.982 612.892 138.982 612.862V613.198C138.982 613.198 138.982 613.076 138.982 613.015L138.87 613.32C138.87 613.32 138.926 613.167 138.982 613.106L138.814 613.351C138.814 613.351 138.982 613.137 139.066 613.045C139.205 612.862 139.345 612.678 139.429 612.464C139.513 612.312 139.541 612.159 139.569 612.006C139.597 611.853 139.569 611.67 139.569 611.517L139.457 611.211C139.457 611.211 139.289 610.967 139.177 610.875C139.121 610.814 139.038 610.753 138.926 610.722C138.786 610.661 138.646 610.6 138.506 610.631C138.227 610.631 137.919 610.753 137.724 610.997C137.64 611.089 137.556 611.181 137.472 611.273L137.696 611.089C137.696 611.089 137.416 611.303 137.248 611.364L137.528 611.242C137.36 611.303 137.22 611.364 137.053 611.395H137.36C137.22 611.395 137.081 611.395 136.941 611.364C136.801 611.364 136.633 611.364 136.521 611.456C136.382 611.517 136.27 611.578 136.158 611.7C135.962 611.914 135.823 612.25 135.823 612.556C135.823 612.862 135.934 613.198 136.158 613.412L136.382 613.595C136.549 613.717 136.745 613.748 136.941 613.748L136.969 613.656Z" fill="#262626"/>
<path d="M342.314 533.92V515.583L341.195 516.805C367.894 517.019 392.413 535.418 401.639 562.954C410.865 590.521 403.092 622.03 382.656 640.948C371.082 651.675 356.32 657.391 341.195 657.513L342.314 658.735V615.948L341.195 617.171C351.847 616.957 361.688 610.356 366.161 599.659C370.998 588.076 368.454 574.568 360.318 565.613C359.312 564.513 357.746 566.224 358.753 567.324C366.413 575.729 368.733 588.534 363.869 599.323C359.591 608.766 350.785 614.543 341.223 614.726C340.608 614.726 340.105 615.276 340.105 615.948V658.735C340.105 659.377 340.608 659.958 341.223 659.958C368.957 659.744 394.286 640.581 403.819 612.006C413.381 583.369 405.049 550.332 383.55 530.986C371.613 520.259 356.656 514.452 341.223 514.33C340.608 514.33 340.105 514.88 340.105 515.552V533.889C340.105 535.448 342.342 535.448 342.342 533.889L342.314 533.92Z" fill="#262626"/>
<path d="M356.264 562.098C351.763 558.889 346.563 557.208 341.195 557.178L342.314 558.4V540.43C342.314 538.871 340.077 538.871 340.077 540.43V558.4C340.077 559.073 340.58 559.623 341.195 559.623C346.172 559.653 350.952 561.242 355.118 564.207C356.32 565.063 357.439 562.954 356.236 562.098H356.264Z" fill="#262626"/>
<path d="M341.195 514.391H324.253C323.638 514.391 323.135 514.941 323.135 515.613V558.4C323.135 559.073 323.638 559.592 324.253 559.623C337.98 559.898 349.471 572 349.471 587.19C349.471 602.379 337.98 614.512 324.253 614.757C323.638 614.757 323.135 615.307 323.135 615.979V658.766C323.135 659.438 323.638 659.988 324.253 659.988H341.195C342.621 659.988 342.621 657.543 341.195 657.543H324.253L325.372 658.766V615.979L324.253 617.202C339.155 616.896 351.735 603.724 351.707 587.19C351.679 570.656 339.21 557.483 324.253 557.178L325.372 558.4V515.613L324.253 516.836H341.195C342.621 516.836 342.621 514.391 341.195 514.391Z" fill="#262626"/>
<path d="M130.427 505.65C138.311 505.008 146.139 503.633 153.855 501.769L152.261 500.791C153.296 505.803 154.302 510.785 155.337 515.797C155.7 517.569 158.188 516.836 157.825 515.033C156.79 510.021 155.784 505.039 154.749 500.027C154.582 499.263 153.827 498.865 153.156 499.049C145.663 500.883 138.059 502.227 130.399 502.838C128.749 502.961 128.721 505.803 130.399 505.681L130.427 505.65Z" fill="#262626"/>
<path d="M77.2244 428.389C69.4524 436.152 63.833 447.155 63.9728 458.89C64.1126 469.098 68.362 477.869 73.7857 485.846C78.7621 493.242 85.7793 498.132 93.6073 501.31C103.896 505.467 115.078 506.414 125.954 505.956C127.603 505.895 127.631 503.052 125.954 503.114C111.192 503.725 94.9772 501.769 82.732 491.867C75.547 486.029 69.8438 476.311 67.6072 467.081C64.2803 453.267 69.6481 439.728 79.0137 430.376C80.2438 429.153 78.3986 427.136 77.1965 428.389H77.2244Z" fill="#262626"/>
<path d="M64.0287 458.187C63.8609 470.565 64.6717 484.165 70.8782 494.954C73.0309 498.682 75.9105 501.769 78.5943 504.947C86.5342 514.299 99.1987 518.181 110.354 519.8C125.842 522.062 141.638 520.259 156.902 517.019C158.412 516.683 157.769 514.177 156.259 514.483C135.263 518.945 110.493 521.634 90.532 510.999C83.9062 507.453 79.0417 502.472 74.7363 496.451C67.104 485.785 66.2373 471.207 66.405 458.218C66.405 456.537 64.0287 456.537 64.0007 458.218L64.0287 458.187Z" fill="#262626"/>
<path d="M153.771 502.38C155.281 502.38 155.281 499.843 153.771 499.843C152.261 499.843 152.261 502.38 153.771 502.38Z" fill="#262626"/>
<path d="M139.932 424.508C151.115 413.811 164.618 407.76 179.408 406.537C180.889 406.415 180.917 403.848 179.408 404.001C163.947 405.284 149.941 411.55 138.283 422.705C137.137 423.774 138.814 425.578 139.932 424.508Z" fill="#262626"/>
<path d="M126.653 418.09L136.074 416.501L140.659 441.623L131.881 443.365" fill="#D6E8E8"/>
<path d="M60.6179 341.715C67.4115 376.678 74.1771 411.641 80.9707 446.604C81.9212 451.555 82.8997 456.476 83.8503 461.427C84.1578 462.955 86.2826 462.313 86.003 460.785C79.2094 425.822 72.4438 390.859 65.6502 355.896C64.6997 350.945 63.7212 346.025 62.7706 341.074C62.4631 339.546 60.3384 340.187 60.6179 341.715Z" fill="#262626"/>
<path d="M378.099 527.441C380.028 524.782 381.398 521.726 382.069 518.395C382.712 515.338 382.824 512.19 382.824 509.043C382.824 507.484 380.587 507.484 380.587 509.043C380.587 514.972 380 520.901 376.505 525.729C376.142 526.249 376.058 526.952 376.505 527.441C376.897 527.869 377.707 527.96 378.071 527.441H378.099Z" fill="#262626"/>
<path d="M346.34 523.835V544.77C346.34 547.734 350.533 547.734 350.533 544.77V523.835C350.533 520.87 346.34 520.87 346.34 523.835Z" fill="white"/>
<path d="M285.197 162.347C306.305 158.71 327.413 155.287 348.576 152.048C350.841 151.711 352.015 148.564 351.512 146.394C350.869 143.735 348.576 142.848 346.34 143.185C325.176 146.424 304.068 149.847 282.961 153.484C277.649 154.401 279.913 163.233 285.197 162.316V162.347Z" fill="#95C6C4"/>
<path d="M209.21 210.421C221.902 208.312 234.539 205.623 247.232 203.575C249.468 203.208 250.698 200.122 250.167 197.921C249.496 195.293 247.26 194.345 244.995 194.712C232.302 196.76 219.666 199.449 206.973 201.558C204.737 201.925 203.507 205.012 204.038 207.212C204.709 209.84 206.945 210.788 209.21 210.421Z" fill="#95C6C4"/>
<path d="M307.06 350.945C328.167 347.308 349.275 343.885 370.439 340.646C372.703 340.31 373.877 337.162 373.374 334.992C372.731 332.333 370.439 331.447 368.202 331.783C347.038 335.022 325.931 338.445 304.823 342.082C299.511 342.999 301.776 351.832 307.06 350.915V350.945Z" fill="#95C6C4"/>
<path d="M194.365 371.483C215.472 367.846 236.58 364.423 257.743 361.184C260.008 360.847 261.182 357.699 260.679 355.53C260.036 352.871 257.743 351.984 255.507 352.321C234.343 355.56 213.236 358.983 192.128 362.62C186.816 363.537 189.081 372.369 194.365 371.452V371.483Z" fill="#95C6C4"/>
<path d="M186.145 178.27C210.133 173.777 234.232 170.049 258.247 165.617C263.559 164.639 261.294 155.807 256.01 156.785C232.023 161.216 207.924 164.975 183.909 169.437C178.597 170.415 180.861 179.278 186.145 178.27Z" fill="#516B63"/>
<path d="M112.003 175.03C135.99 170.538 160.089 166.809 184.104 162.377C189.416 161.4 187.152 152.567 181.868 153.545C157.881 157.977 133.782 161.736 109.767 166.198C104.455 167.176 106.719 176.039 112.003 175.03Z" fill="#516B63"/>
<path d="M125.45 181.57C135.571 179.828 145.691 178.056 155.784 176.314C178.765 172.341 201.745 168.368 224.726 164.364L298.812 151.528C314.44 148.808 330.069 146.118 345.697 143.398C353.664 142.023 361.408 142.145 368.593 146.974C375.778 151.803 380.447 159.963 381.817 169.101C382.684 174.816 383.467 180.562 384.305 186.277L385.032 191.289C385.256 192.817 387.409 192.175 387.185 190.647C386.43 185.421 385.675 180.195 384.92 174.969C384.026 168.826 383.327 162.805 380.559 157.274C374.213 144.59 361.241 138.356 348.38 140.495C335.52 142.634 323.023 144.896 310.359 147.066L237.251 159.719L163.724 172.463L137.975 176.925C133.977 177.628 129.336 177.75 125.45 179.095C125.283 179.156 125.087 179.156 124.919 179.187C123.521 179.431 124.109 181.784 125.506 181.54L125.45 181.57Z" fill="#262626"/>
<path d="M279.774 372.644C262.776 375.578 245.75 378.543 228.752 381.477C202.388 386.03 176.025 390.615 149.633 395.168C141.554 396.574 133.139 398.714 124.891 398.316C123.27 398.225 123.27 401.006 124.891 401.097C132.132 401.464 139.373 399.753 146.53 398.5L180.386 392.632C207.449 387.956 234.511 383.249 261.574 378.573C267.864 377.473 274.154 376.403 280.445 375.303C282.038 375.028 281.367 372.369 279.774 372.644Z" fill="#262626"/>
<path d="M271.666 155.837C273.539 168.887 267.696 182.335 257.408 189.18C251.649 193.031 245.247 193.826 238.733 194.926L215.836 198.838C209.937 199.847 203.814 201.436 197.831 200.641C184.328 198.899 173.397 187.163 171.328 172.524C171.021 170.415 168.085 171.302 168.365 173.41C170.21 186.399 178.681 197.432 189.92 201.986C197.468 205.042 204.849 204.064 212.537 202.75L238.453 198.349C245.582 197.127 252.627 196.271 258.974 192.084C270.548 184.413 276.726 169.529 274.63 154.951C274.322 152.842 271.387 153.728 271.666 155.837Z" fill="#262626"/>
<path d="M102.498 234.687C101.855 228.667 100.792 222.493 100.708 216.411C100.708 214.944 100.736 213.905 101.016 212.744C101.128 212.255 101.268 211.735 101.435 211.277C101.156 212.01 101.883 210.513 101.966 210.391C102.246 209.932 102.274 209.902 102.05 210.238C102.218 210.024 102.414 209.779 102.609 209.596C102.805 209.382 103.001 209.199 103.225 209.015C102.917 209.29 102.973 209.29 103.364 208.985C103.812 208.74 103.84 208.71 103.42 208.893C103.672 208.801 103.923 208.71 104.175 208.618C104.678 208.496 104.678 208.496 104.231 208.618C104.511 208.618 104.762 208.618 105.042 208.618C107.222 208.74 109.319 206.417 109.235 204.034C109.123 201.436 107.39 199.602 105.042 199.449C97.9406 199.021 93.2998 206.234 92.517 213.172C92.1535 216.503 92.517 219.834 92.8804 223.165L94.1105 234.748C94.3621 237.132 95.8439 239.455 98.3041 239.333C100.345 239.241 102.777 237.285 102.498 234.748V234.687Z" fill="white"/>
<path d="M118.741 205.164C124.136 205.164 124.136 195.996 118.741 195.996C113.345 195.996 113.345 205.164 118.741 205.164Z" fill="white"/>
<path d="M193.274 102.537C192.883 101.865 192.659 100.978 192.212 100.367C192.352 100.551 192.492 101.192 192.324 100.612C192.268 100.428 192.184 100.214 192.128 100.031C192.016 99.6337 191.904 99.2364 191.793 98.8391C191.681 98.4418 191.597 98.0445 191.541 97.6472C191.513 97.4333 191.485 97.2499 191.429 97.036C191.317 96.3942 191.485 97.0971 191.457 97.3416C191.541 96.5164 191.345 95.569 191.345 94.7133C191.345 94.3159 191.373 93.8881 191.401 93.4908C191.401 93.338 191.513 92.635 191.401 93.338C191.289 94.0409 191.401 93.338 191.429 93.1852C191.569 92.36 191.737 91.5654 191.96 90.7708C192.072 90.3734 192.212 90.0067 192.324 89.6094C192.492 89.0287 191.988 90.404 192.24 89.8539C192.324 89.6705 192.408 89.4871 192.492 89.3038C192.855 88.5092 193.246 87.7757 193.722 87.0422C194.98 85.0557 194.113 81.8772 192.212 80.777C190.087 79.5545 187.795 80.3185 186.481 82.4273C181.952 89.64 181.84 99.7865 186.034 107.213C187.18 109.261 189.836 110.208 191.765 108.863C193.694 107.519 194.505 104.768 193.274 102.598V102.537Z" fill="white"/>
<path d="M199.481 80.288C204.877 80.288 204.877 71.1194 199.481 71.1194C194.085 71.1194 194.085 80.288 199.481 80.288Z" fill="white"/>
<path d="M128.386 419.404C131.517 418.885 134.648 418.365 137.807 417.815L136.27 416.867C137.612 424.202 138.954 431.507 140.296 438.842C140.491 439.911 140.687 440.95 140.883 442.02L141.749 440.339L132.943 442.081C131.349 442.387 132.02 445.046 133.614 444.74L142.42 442.998C143.119 442.845 143.427 441.989 143.287 441.317C141.945 433.982 140.603 426.678 139.261 419.343C139.066 418.273 138.87 417.234 138.674 416.165C138.534 415.37 137.752 415.095 137.136 415.217C134.005 415.737 130.874 416.256 127.715 416.806C126.121 417.081 126.792 419.71 128.386 419.465V419.404Z" fill="#262626"/>
<path d="M105.88 497.949C111.919 499.232 118.07 499.629 124.22 499.049C125.339 498.927 126.317 498.071 126.317 496.757C126.317 495.595 125.367 494.342 124.22 494.464C118.461 495.015 112.674 494.74 106.999 493.517C105.88 493.273 104.734 493.853 104.427 495.106C104.147 496.237 104.762 497.673 105.88 497.918V497.949Z" fill="white"/>
<path d="M132.132 498.04C134.844 498.04 134.844 493.456 132.132 493.456C129.42 493.456 129.42 498.04 132.132 498.04Z" fill="white"/>
<path d="M139.792 496.818L141.694 496.512C141.973 496.451 142.197 496.298 142.42 496.115C142.644 495.962 142.84 495.748 142.952 495.473C143.091 495.198 143.175 494.923 143.203 494.617C143.259 494.312 143.259 494.006 143.175 493.7L142.952 493.15C142.756 492.814 142.504 492.539 142.197 492.325L141.694 492.081C141.33 491.958 140.939 491.958 140.575 492.081L138.674 492.386C138.395 492.447 138.171 492.6 137.947 492.784C137.724 492.936 137.528 493.15 137.416 493.425C137.276 493.7 137.192 493.975 137.164 494.281C137.109 494.587 137.109 494.892 137.192 495.198L137.416 495.748C137.612 496.084 137.863 496.359 138.171 496.573L138.674 496.818C139.038 496.94 139.429 496.94 139.792 496.818Z" fill="white"/>
<path d="M358.697 527.93C361.408 527.93 361.408 523.346 358.697 523.346C355.985 523.346 355.985 527.93 358.697 527.93Z" fill="white"/>
<path d="M184.16 126.376C196.769 131.999 210.915 130.196 223.887 127.048C235.266 124.297 246.533 119.346 253.326 108.436C256.374 103.546 249.105 98.9614 246.085 103.821C240.438 112.867 230.038 116.259 220.728 118.429C209.35 121.058 197.412 122.433 186.397 117.513C184.272 116.565 181.812 118.521 181.225 120.722C180.526 123.35 182.064 125.428 184.16 126.376Z" fill="#3F544D"/>
<path d="M247.12 88.4175C247.986 95.1106 247.12 101.895 242.535 106.846C238.369 111.37 232.47 113.631 226.907 115.251C220.393 117.115 213.571 118.338 206.862 118.888C201.214 119.377 195.092 119.438 189.836 116.84C177.618 110.881 177.311 91.8099 181.449 80.0435C186.704 65.1904 200.32 55.3799 214.857 56.1746C231.296 57.0609 244.38 71.0277 247.092 88.4175C247.371 90.1595 249.804 89.426 249.524 87.684C246.924 71.0277 235.21 57.1525 219.834 54.0352C204.457 50.9179 189.137 58.9251 181.476 73.5338C175.074 85.7892 173.397 106.632 184.524 116.535C194.896 125.764 212.173 121.669 223.999 118.857C231.072 117.176 238.677 114.701 244.044 109.077C249.412 103.454 250.558 95.5384 249.524 87.684C249.3 85.9114 246.84 86.6755 247.092 88.4175H247.12Z" fill="#262626"/>
<path d="M103.784 517.211L103.017 517.379L113.211 572.997L113.978 572.828L103.784 517.211Z" fill="#262626"/>
<path d="M132.552 572.978L123.41 519.556L124.164 519.403L133.306 572.825L132.552 572.978Z" fill="#262626"/>
<path d="M136.533 519.04L135.764 519.202L144.595 569.195L145.364 569.033L136.533 519.04Z" fill="#262626"/>
<path d="M113.493 518.951L112.724 519.113L122.525 574.598L123.294 574.435L113.493 518.951Z" fill="#262626"/>
<path d="M72.947 353.146C86.3944 354.307 100.708 352.137 112.422 344.466C115.889 342.204 112.73 336.245 109.235 338.537C98.4159 345.627 85.332 347.369 72.947 346.269C68.9212 345.933 68.9212 352.809 72.947 353.146Z" fill="#D85C25"/>
<path d="M78.147 345.261C76.4696 345.261 60.3383 344.802 63.3857 340.279C64.8115 338.14 67.9427 336.917 70.1233 336.061C73.5061 334.686 77.0008 333.708 80.5513 332.975C88.5191 331.294 97.2697 330.316 105.321 331.905C106.747 332.18 110.661 332.761 111.164 334.686C111.64 336.52 108.564 338.14 107.474 338.782C100.177 342.969 91.1191 344.466 83.0116 345.047C81.5578 345.138 81.5578 347.644 83.0116 347.522C91.7621 346.88 101.883 345.352 109.571 340.34C111.276 339.24 113.541 337.498 113.541 335.053C113.541 332.608 111.416 331.324 109.655 330.591C106.048 329.063 101.883 328.818 98.0525 328.727C92.4611 328.635 86.8137 329.216 81.3062 330.285C76.6653 331.172 72.0524 332.425 67.719 334.442C65.3986 335.542 62.3233 337.009 61.0932 339.637C57.3469 347.706 75.1277 347.767 78.2029 347.736C79.6567 347.736 79.6567 345.23 78.2029 345.261H78.147Z" fill="#262626"/>
<path d="M138.339 469.404C135.571 454.245 132.775 439.056 130.007 423.897C125.562 399.569 121.089 375.242 116.644 350.915C115.638 345.352 114.603 339.79 113.597 334.228C113.317 332.7 111.164 333.342 111.444 334.87C114.212 350.028 117.007 365.218 119.775 380.376C124.22 404.704 128.693 429.031 133.139 453.359C134.145 458.921 135.18 464.483 136.186 470.045C136.466 471.574 138.618 470.932 138.339 469.404Z" fill="#262626"/>
<path d="M77.0567 373.255C82.3406 373.989 87.7363 373.714 93.0202 373.042C98.6675 372.339 104.371 371.238 109.711 369.038C111.304 368.396 112.394 366.715 111.919 364.82C111.5 363.17 109.655 361.764 108.061 362.406C103.113 364.454 97.8009 365.615 92.5449 366.226C87.289 366.837 82.2008 367.082 77.0847 366.379C75.4072 366.135 73.9535 368.121 73.9535 369.802C73.9535 371.85 75.4072 373.011 77.0847 373.225L77.0567 373.255Z" fill="#DB8803"/>
<path d="M95.7321 470.901C95.2288 470.901 94.8095 470.534 94.6976 469.984L75.9943 367.999C75.8825 367.388 76.2459 366.776 76.8051 366.654C77.3642 366.532 77.9234 366.929 78.0352 367.54L96.7385 469.526C96.8503 470.137 96.4869 470.748 95.9278 470.871C95.8718 470.871 95.788 470.871 95.7321 470.871V470.901Z" fill="#DB8803"/>
<path d="M115.693 474.446L97.074 365.798L97.8568 365.646L116.448 474.293L115.693 474.446Z" fill="#262626"/>
<path d="M109.154 363.924L108.385 364.087L127.712 473.494L128.481 473.332L109.154 363.924Z" fill="#262626"/>
<path d="M86.7723 367.705L86.0037 367.867L104.663 473.494L105.432 473.332L86.7723 367.705Z" fill="#262626"/>
<path d="M84.2976 462.344C100.121 482.729 127.24 476.005 147.509 469.679L146.083 468.792C148.291 479.764 150.472 490.705 152.681 501.677C152.988 503.266 155.253 502.594 154.917 501.005C152.709 490.033 150.528 479.092 148.319 468.12C148.18 467.448 147.453 467.05 146.894 467.234C127.407 473.285 101.184 480.192 85.9471 460.541C84.9686 459.288 83.3191 461.091 84.2976 462.344Z" fill="#262626"/>
<path d="M76.3896 367.71L75.622 367.878L94.3128 469.854L95.0804 469.686L76.3896 367.71Z" fill="#262626"/>
<path d="M100.317 364.179C93.3557 366.012 86.003 366.776 78.8739 366.501C76.0782 366.379 73.2545 366.134 70.5706 365.279C69.3685 364.912 67.2158 364.27 66.9642 362.65C66.7126 361.031 64.5319 361.734 64.7556 363.323C65.0631 365.218 66.7126 366.318 68.2223 367.021C70.9061 368.243 73.8975 368.641 76.7771 368.885C84.7729 369.527 93.132 368.671 100.932 366.623C102.358 366.257 101.743 363.842 100.317 364.209V364.179Z" fill="#262626"/>
<path d="M115.302 356.018C115.302 356.171 115.302 356.355 115.302 356.507C115.302 356.171 115.246 356.63 115.218 356.752C115.162 356.996 115.302 356.569 115.218 356.782C115.19 356.874 115.134 356.935 115.106 357.027C115.078 357.119 115.022 357.18 114.967 357.271C114.799 357.547 115.106 357.088 114.911 357.363C114.268 358.188 113.625 358.708 112.814 359.258C110.354 360.939 107.558 362.009 104.79 362.895C103.392 363.353 103.979 365.768 105.405 365.309C108.48 364.301 111.64 363.109 114.351 361.153C115.889 360.053 117.874 358.28 117.65 356.018C117.595 355.346 117.175 354.765 116.504 354.765C115.945 354.765 115.302 355.346 115.358 356.018H115.302Z" fill="#262626"/>
<path d="M136.801 615.612C141.19 625.392 152.345 625.728 160.648 622.733C166.519 620.624 171.971 617.202 177.982 615.551C185.167 613.595 190.842 615.551 196.909 619.708C201.074 622.58 205.212 625.545 210.244 626.156C215.696 626.829 221.064 624.964 226.18 623.222C232.386 621.144 238.481 619.31 244.967 621.144C250.642 622.733 255.814 626.003 261.574 627.256C275.58 630.252 289.782 616.254 303.258 623.833C304.46 624.506 305.522 622.519 304.32 621.847C293.836 615.948 283.129 622.336 272.645 624.689C265.655 626.278 259.756 624.659 253.242 621.878C248.098 619.677 242.954 617.599 237.363 618.088C225.9 619.066 215.165 627.868 203.814 621.572C199.397 619.127 195.539 615.521 190.842 613.626C185.67 611.578 180.163 612.312 175.046 614.115C168.393 616.437 162.298 620.533 155.365 621.908C149.018 623.161 141.666 621.266 138.618 614.482C138.031 613.167 136.214 614.329 136.801 615.643V615.612Z" fill="#262626"/>
<path d="M203.056 252.335C202.188 246.299 197.014 242.175 191.5 243.123C185.986 244.071 182.22 249.733 183.089 255.769L187.164 284.088C188.033 290.124 193.207 294.248 198.721 293.3C204.235 292.352 208 286.69 207.132 280.654L203.056 252.335Z" fill="#262626"/>
<path d="M288.986 237.553C288.117 231.517 282.943 227.392 277.429 228.34C271.915 229.289 268.15 234.95 269.018 240.986L273.093 269.305C273.962 275.341 279.136 279.466 284.65 278.518C290.164 277.569 293.929 271.908 293.061 265.872L288.986 237.553Z" fill="#262626"/>
<path d="M97.6891 260.359C100.317 277.688 102.945 294.986 105.573 312.315C105.936 314.76 108.704 316.135 110.745 315.524C113.121 314.821 114.044 312.345 113.681 309.87C111.053 292.541 108.425 275.243 105.797 257.914C105.433 255.469 102.665 254.094 100.625 254.705C98.2482 255.408 97.3256 257.884 97.6891 260.359Z" fill="white"/>
<path d="M70.6266 260.482C73.1986 277.841 75.7707 295.231 78.3427 312.59C78.9578 316.655 83.5707 318.947 86.9256 317.938C90.8955 316.746 92.4052 312.62 91.8181 308.556C89.246 291.196 86.674 273.807 84.1019 256.447C83.4869 252.383 78.8739 250.091 75.5191 251.099C71.5492 252.291 70.0395 256.417 70.6266 260.482Z" fill="#B0C1BC"/>
<path d="M395.572 253.422C398.312 271.117 401.052 288.843 403.791 306.539C404.49 311.123 409.914 314.118 413.8 312.743C418.329 311.123 420.23 306.722 419.475 301.802C416.735 284.106 413.996 266.38 411.256 248.685C410.557 244.1 405.133 241.105 401.247 242.481C396.718 244.1 394.817 248.501 395.572 253.422Z" fill="#B0C1BC"/>
<path d="M202.5 267.878C206.052 267.878 208.93 264.731 208.93 260.848C208.93 256.966 206.052 253.819 202.5 253.819C198.949 253.819 196.07 256.966 196.07 260.848C196.07 264.731 198.949 267.878 202.5 267.878Z" fill="white"/>
<path d="M289.866 252.046C293.417 252.046 296.296 248.899 296.296 245.017C296.296 241.135 293.417 237.988 289.866 237.988C286.315 237.988 283.436 241.135 283.436 245.017C283.436 248.899 286.315 252.046 289.866 252.046Z" fill="white"/>
<path d="M279.802 493.853C287.553 493.853 293.836 486.984 293.836 478.511C293.836 470.038 287.553 463.169 279.802 463.169C272.051 463.169 265.767 470.038 265.767 478.511C265.767 486.984 272.051 493.853 279.802 493.853Z" fill="#719088"/>
<path d="M317.767 493.853C325.518 493.853 331.802 486.984 331.802 478.511C331.802 470.038 325.518 463.169 317.767 463.169C310.016 463.169 303.733 470.038 303.733 478.511C303.733 486.984 310.016 493.853 317.767 493.853Z" fill="#719088"/>
<path d="M292.578 477.747C292.494 483.554 289.223 488.902 284.163 490.889C279.103 492.875 273.344 491.133 269.933 486.61C266.522 482.087 266.131 475.577 268.87 470.626C271.61 465.675 276.978 462.986 282.178 464.055C288.217 465.308 292.522 471.115 292.606 477.778C292.606 479.55 295.15 479.55 295.15 477.778C295.066 470.84 291.18 464.605 285.225 462.13C279.27 459.654 272.113 461.702 268.06 467.142C264.006 472.582 263.419 480.314 266.718 486.335C270.017 492.356 276.447 495.442 282.709 494.22C289.922 492.814 295.066 485.693 295.178 477.778C295.178 476.005 292.662 476.005 292.634 477.778L292.578 477.747Z" fill="#262626"/>
<path d="M330.516 477.747C330.432 483.554 327.161 488.902 322.101 490.889C317.04 492.875 311.281 491.133 307.871 486.61C304.46 482.087 304.068 475.577 306.808 470.626C309.548 465.675 314.916 462.986 320.116 464.055C326.154 465.308 330.46 471.115 330.544 477.778C330.544 479.55 333.088 479.55 333.088 477.778C333.004 470.84 329.118 464.605 323.163 462.13C317.208 459.654 310.051 461.702 305.997 467.142C301.944 472.582 301.357 480.314 304.655 486.335C307.954 492.356 314.385 495.442 320.647 494.22C327.86 492.814 333.004 485.693 333.116 477.778C333.116 476.005 330.6 476.005 330.572 477.778L330.516 477.747Z" fill="#262626"/>
<path d="M165.876 481.598C166.659 476.402 167.805 471.268 169.315 466.286C170.014 463.994 168.504 461.182 166.38 460.632C164.059 460.052 161.962 461.396 161.208 463.841C159.698 468.854 158.552 473.957 157.769 479.153C157.573 480.406 157.573 481.537 158.188 482.698C158.691 483.646 159.698 484.562 160.704 484.807C162.717 485.296 165.485 484.135 165.876 481.598Z" fill="white"/>
<path d="M168.337 457.637C173.732 457.637 173.732 448.469 168.337 448.469C162.941 448.469 162.941 457.637 168.337 457.637Z" fill="white"/>
<path d="M198.866 448.835C199.453 446.879 200.068 444.923 200.711 442.998C201.019 442.081 201.326 441.195 201.662 440.309C201.801 439.911 201.941 439.545 202.081 439.147C202.165 438.903 202.277 438.628 202.36 438.383C202.193 438.842 202.193 438.842 202.36 438.353C203.842 434.685 205.408 431.109 207.169 427.595C208.231 425.486 207.7 422.491 205.659 421.33C203.619 420.168 201.046 420.718 199.928 422.98C196.182 430.437 193.107 438.322 190.73 446.421C190.059 448.713 191.513 451.525 193.666 452.075C195.958 452.656 198.111 451.311 198.838 448.866L198.866 448.835Z" fill="white"/>
<path d="M210.971 416.837C216.367 416.837 216.367 407.668 210.971 407.668C205.576 407.668 205.576 416.837 210.971 416.837Z" fill="white"/>
<path d="M118.293 581.597C129.896 583.675 141.134 579.885 151.451 574.231C152.96 573.406 153.408 571.053 152.569 569.525C151.674 567.844 149.801 567.447 148.263 568.302C139.625 573.039 129.728 576.707 119.971 574.965C118.293 574.659 116.588 575.454 116.113 577.379C115.693 579.03 116.616 581.322 118.321 581.597H118.293Z" fill="#D18C66"/>
<path d="M106.971 573.651C115.47 576.768 124.472 576.432 133.195 574.629C140.827 573.039 149.158 570.717 154.638 564.268C155.616 563.107 154.051 561.395 153.072 562.557C147.872 568.7 139.876 570.778 132.607 572.275C124.276 574.017 115.693 574.262 107.586 571.297C106.216 570.808 105.629 573.162 106.999 573.651H106.971Z" fill="#262626"/>
<path d="M94.3062 515.705C97.4654 531.72 100.625 547.734 103.784 563.749C104.874 569.28 105.489 574.445 108.872 578.999C113.736 585.509 118.685 591.957 123.577 598.437C128.47 604.916 132.943 610.814 137.64 617.018C138.227 617.782 139.233 617.263 139.513 616.468C144.21 602.99 148.879 589.543 153.575 576.065C155.253 571.236 156.259 567.019 155.253 561.793L150.696 538.718C149.354 531.842 147.984 524.996 146.642 518.119C146.334 516.591 144.182 517.233 144.489 518.761C147.201 532.453 149.885 546.145 152.597 559.837C153.016 562.007 153.659 564.299 153.687 566.56C153.687 569.28 152.737 571.695 151.87 574.17L143.93 597.031C141.749 603.296 139.569 609.561 137.388 615.826L139.261 615.276C130.119 603.204 120.977 591.102 111.835 579.03C109.934 576.524 108.369 574.445 107.558 571.114C107.083 569.158 106.775 567.11 106.384 565.124C104.511 555.558 102.61 546.023 100.736 536.457C99.3385 529.336 97.9127 522.184 96.5149 515.063C96.2073 513.535 94.0546 514.177 94.3622 515.705H94.3062Z" fill="#262626"/>
<path d="M232.317 173.824L215.83 176.66C212.627 177.21 210.439 180.496 210.942 183.997C211.446 187.499 214.451 189.891 217.654 189.34L234.142 186.504C237.345 185.954 239.533 182.668 239.029 179.167C238.525 175.665 235.52 173.273 232.317 173.824Z" fill="#D2F3F9"/>
<path d="M96.6826 329.338C93.8869 310.053 91.0912 290.799 88.2955 271.514C86.4782 258.953 84.661 246.392 82.8438 233.831C81.6976 226.008 79.6847 217.481 81.1384 209.596C83.347 197.768 91.874 188.264 102.637 185.574C107.782 184.29 113.121 183.679 118.321 182.793C119.719 182.548 119.132 180.195 117.734 180.44C113.149 181.234 108.564 181.968 104.007 182.824C95.5643 184.413 88.0718 189.639 83.347 197.493C79.1255 204.523 77.6718 212.927 78.79 221.179C79.0976 223.41 79.4331 225.641 79.7685 227.872L91.0353 305.561C92.2095 313.69 93.3837 321.82 94.5858 329.98C94.8095 331.508 96.9622 330.866 96.7385 329.338H96.6826Z" fill="#262626"/>
<path d="M178.206 373.439C164.171 375.884 150.109 378.298 136.074 380.743C131.154 381.599 126.457 381.996 121.481 380.743C120.083 380.376 119.496 382.73 120.893 383.096C128.833 385.144 136.605 383.096 144.461 381.752L171.999 376.984C174.264 376.587 176.528 376.189 178.793 375.823C180.19 375.578 179.603 373.225 178.206 373.469V373.439Z" fill="#262626"/>
<path d="M80.6911 330.316C75.6589 295.597 70.6266 260.879 65.5943 226.191C64.0287 215.372 64.5878 204.675 69.1449 194.712C75.4911 180.776 87.5965 171.424 101.547 168.887C116.84 166.106 132.188 163.57 147.537 160.911C164.311 158.007 181.113 155.104 197.887 152.2C199.481 151.925 198.81 149.266 197.216 149.542C165.373 155.043 133.53 160.513 101.715 166.076C76.3578 170.507 58.8287 195.965 62.7147 223.899C65.0631 240.739 67.5793 257.548 70.0395 274.357C72.7793 293.244 75.5191 312.131 78.2589 331.019C78.5105 332.761 80.9428 332.027 80.6911 330.285V330.316Z" fill="#262626"/>
<path d="M410.445 243.611C412.486 257.731 414.527 271.851 416.568 285.94C417.295 290.891 418.049 295.811 418.72 300.762C420.594 314.729 416.819 329.093 408.181 339.637C401.359 347.95 392.189 353.146 382.125 354.918C378.266 355.591 374.408 356.263 370.55 356.935L322.716 365.218C310.946 367.265 299.204 369.282 287.434 371.33C285.84 371.605 286.511 374.264 288.105 373.989C315.139 369.313 342.202 364.637 369.236 359.93C373.626 359.166 378.043 358.433 382.432 357.638C391.183 356.11 399.29 352.229 406 345.841C414.751 337.559 420.342 325.67 421.516 313.109C422.187 306.111 421.069 299.326 420.062 292.45C417.658 275.915 415.282 259.381 412.877 242.847C412.626 241.105 410.194 241.839 410.445 243.581V243.611Z" fill="#262626"/>
<path d="M386.15 198.96C389.617 222.89 393.084 246.82 396.551 270.781C398.088 281.386 399.682 292.022 401.163 302.627C403.596 320.139 393.363 336 377.288 338.965C361.213 341.929 343.572 344.802 326.714 347.736C297.61 352.779 268.507 357.822 239.404 362.864L203.926 369.007C197.859 370.046 191.513 370.627 185.558 372.186C185.279 372.247 184.999 372.277 184.747 372.339C183.35 372.583 183.937 374.936 185.335 374.692C200.683 372.033 216.059 369.374 231.408 366.715L320.088 351.342C339.071 348.042 358.054 344.802 377.036 341.471C391.323 338.965 402.729 326.893 403.791 310.726C404.406 301.618 401.806 291.594 400.52 282.67C396.523 255.164 392.553 227.689 388.555 200.183L388.275 198.318C388.052 196.79 385.899 197.432 386.123 198.96H386.15Z" fill="#262626"/>
<path d="M180.358 507.82C180.917 491.867 181.588 475.669 186.984 460.632C187.543 459.104 185.279 458.432 184.747 459.96C179.296 475.18 178.597 491.653 178.038 507.82C177.982 509.47 180.302 509.47 180.358 507.82Z" fill="#262626"/>
<path d="M319.641 398.041C327.692 410.816 334.206 424.691 338.959 439.331C339.462 440.859 341.727 440.217 341.195 438.658C336.359 423.805 329.817 409.716 321.625 396.758C320.787 395.413 318.746 396.697 319.613 398.041H319.641Z" fill="#262626"/>
<path d="M381.23 521.604C395.125 530.65 406.559 543.73 414.191 559.317C414.89 560.754 416.931 559.47 416.204 558.034C408.376 542.08 396.606 528.663 382.404 519.403C381.118 518.547 379.944 520.778 381.23 521.604Z" fill="#262626"/>
<path d="M383.019 505.772C396.774 510.173 409.075 519.036 418.273 531.047C419.252 532.3 420.873 530.497 419.923 529.244C410.473 516.897 397.753 507.82 383.634 503.297C382.181 502.838 381.565 505.283 383.019 505.742V505.772Z" fill="#262626"/>
<path d="M382.32 486.427C393.755 487.343 404.826 491.378 414.499 498.101C415.757 498.988 416.931 496.787 415.673 495.901C405.637 488.933 394.174 484.837 382.32 483.89C380.811 483.768 380.839 486.335 382.32 486.427Z" fill="#262626"/>
<path d="M379.832 468.915C389.897 467.478 400.073 468.915 409.495 473.04C410.892 473.652 411.48 471.176 410.11 470.596C400.52 466.378 390.064 464.911 379.832 466.378C378.35 466.592 378.35 469.129 379.832 468.915Z" fill="#262626"/>
<path d="M377.512 454.459C385.424 450.027 394.594 448.744 403.288 450.791C404.742 451.127 405.385 448.683 403.903 448.346C394.566 446.146 384.809 447.552 376.31 452.289C374.968 453.022 376.142 455.223 377.484 454.489L377.512 454.459Z" fill="#262626"/>
<path d="M373.458 439.331C378.854 433.524 386.57 432.026 393.811 431.293C395.292 431.14 395.32 428.603 393.811 428.756C385.927 429.551 377.652 431.232 371.808 437.527C370.746 438.689 372.396 440.492 373.458 439.331Z" fill="#262626"/>
<path d="M367.307 423.194C371.669 417.784 378.211 414.973 384.753 415.645C386.234 415.798 386.234 413.261 384.753 413.108C377.651 412.344 370.355 415.523 365.658 421.391C364.679 422.613 366.329 424.447 367.307 423.194Z" fill="#262626"/>
<path d="M360.682 406.813C364.008 402.87 368.789 401.189 373.43 399.997C374.884 399.631 374.269 397.155 372.815 397.552C367.811 398.836 362.611 400.761 359.032 405.04C358.026 406.232 359.675 408.066 360.682 406.843V406.813Z" fill="#262626"/>
<path d="M168.169 425.333C164.171 420.199 159.866 414.912 153.715 412.956C152.261 412.497 151.646 414.973 153.1 415.4C158.803 417.204 162.801 422.338 166.519 427.106C167.498 428.359 169.147 426.556 168.169 425.303V425.333Z" fill="#262626"/>
<path d="M142.756 422.246C150.276 425.578 156.958 431.232 161.795 438.383C162.689 439.697 164.702 438.414 163.808 437.099C158.58 429.367 151.534 423.408 143.399 419.801C142.001 419.19 141.414 421.666 142.784 422.246H142.756Z" fill="#262626"/>
<path d="M141.106 438.566C147.676 441.867 152.988 447.582 156.147 454.703C156.79 456.17 158.803 454.887 158.16 453.42C154.861 445.962 149.158 439.85 142.281 436.366C140.939 435.694 139.737 437.894 141.106 438.566Z" fill="#262626"/>
<path d="M134.564 455.039C141.638 456.537 148.152 460.357 153.212 465.981C154.274 467.142 155.924 465.339 154.861 464.178C149.549 458.249 142.644 454.153 135.208 452.564C133.754 452.258 133.111 454.703 134.592 455.009L134.564 455.039Z" fill="#262626"/>
<path d="M406.503 198.93C411.843 198.594 418.133 199.786 420.901 205.439C422.215 208.129 422.523 211.399 422.998 214.364C423.585 217.878 424.144 221.423 424.731 224.938C424.983 226.558 427.247 225.855 426.968 224.266C426.325 220.384 425.71 216.503 425.067 212.652C424.536 209.351 424.06 205.898 422.271 203.086C418.748 197.493 412.318 196.026 406.475 196.424C404.994 196.515 404.966 199.083 406.475 198.96L406.503 198.93Z" fill="#262626"/>
<path d="M417.071 273.44C420.23 272.156 423.697 272.248 426.8 270.873C429.903 269.497 431.665 266.777 432.084 263.232C432.559 259.106 431.497 254.797 430.854 250.732C430.043 245.598 429.204 240.463 428.394 235.329C428.142 233.709 425.877 234.412 426.157 236.001C426.856 240.311 427.555 244.62 428.226 248.929C428.869 252.872 429.847 256.967 429.875 260.971C429.903 264.699 428.478 267.633 425.123 268.764C422.271 269.742 419.252 269.772 416.456 270.903C415.058 271.484 415.673 273.929 417.071 273.348V273.44Z" fill="#262626"/>
<path d="M76.9169 319.65C73.6739 319.741 70.0954 319.802 66.9642 318.855C62.6588 317.571 62.4351 313.721 61.7362 309.595C60.4781 301.924 59.1921 294.253 57.934 286.582C56.676 278.911 54.8308 271.148 54.2437 263.446C53.6566 255.745 58.8007 249.51 65.9577 250.274C67.4395 250.427 67.4395 247.89 65.9577 247.737C60.3383 247.126 54.691 250.732 52.6501 256.57C51.3082 260.42 51.9512 264.516 52.5942 268.458C53.4609 273.807 54.3555 279.155 55.2502 284.473C56.8996 294.467 58.1018 304.705 60.2824 314.576C62.0437 322.675 70.7384 322.37 76.9728 322.186C78.4825 322.156 78.4825 319.589 76.9728 319.65H76.9169Z" fill="#262626"/>
<path d="M60.0029 182.335C64.3362 159.077 87.3449 152.812 105.573 148.839C114.827 146.821 124.248 145.599 133.558 144.04L148.012 141.626C149.494 141.381 148.851 138.906 147.397 139.181C136.186 141.045 124.947 142.94 113.736 144.804C102.526 146.669 90.588 148.991 79.9643 154.034C69.3406 159.077 60.1427 169.071 57.7663 181.723C57.4588 183.313 59.7233 184.015 60.0029 182.396V182.335Z" fill="#262626"/>
<path d="M233.617 185.36L223.859 187.041L218.268 187.988C216.479 188.294 214.745 188.325 213.292 186.858C210.831 184.352 211.502 179.767 214.578 178.27C215.724 177.72 217.15 177.628 218.352 177.445L230.653 175.336C232.638 175 234.567 174.725 236.217 176.375C239.236 179.431 237.419 184.566 233.617 185.36C232.219 185.666 232.806 187.988 234.204 187.713C237.838 186.949 240.382 183.251 239.907 179.217C239.46 175.427 236.356 172.494 232.862 172.585C231.38 172.616 229.814 173.044 228.361 173.288L220.477 174.633C218.799 174.908 217.094 175.183 215.416 175.489C212.285 176.1 209.853 178.881 209.573 182.365C209.266 186.216 211.782 189.822 215.277 190.525C216.926 190.861 218.687 190.372 220.337 190.097L234.232 187.713C235.629 187.469 235.042 185.116 233.644 185.36H233.617Z" fill="#262626"/>
<path d="M362.946 559.103C370.746 564.238 375.862 573.651 376.198 583.583C376.254 585.356 378.798 585.356 378.742 583.583C378.378 572.642 372.843 562.343 364.26 556.689C362.862 555.772 361.576 558.156 362.974 559.073L362.946 559.103Z" fill="#262626"/>
<path d="M351.903 625.545C358.669 624.139 364.931 620.166 369.404 614.42C370.467 613.076 368.677 611.089 367.615 612.464C363.393 617.874 357.634 621.541 351.232 622.855C349.638 623.192 350.309 625.851 351.903 625.514V625.545Z" fill="#262626"/>
<path d="M74.7083 474.935C77.2244 480.925 81.4739 485.999 86.6739 489.33C88.0718 490.216 89.3578 487.832 87.96 486.946C83.0954 483.829 79.2374 479.153 76.889 473.529C76.6094 472.857 75.7148 472.674 75.1556 473.04C74.5126 473.438 74.4287 474.263 74.7083 474.935Z" fill="#262626"/>
<path d="M125.562 483.157C133.362 482.606 141.078 481.231 148.599 478.97C150.165 478.511 149.494 475.822 147.928 476.311C140.603 478.481 133.139 479.856 125.562 480.375C123.941 480.498 123.941 483.248 125.562 483.157Z" fill="#262626"/>
<path d="M307.367 596.664H170.657C169.315 596.664 169.315 598.956 170.657 598.956H307.367C308.709 598.956 308.709 596.664 307.367 596.664Z" fill="#262626"/>
<path d="M307.367 573.895H170.657C169.315 573.895 169.315 576.187 170.657 576.187H307.367C308.709 576.187 308.709 573.895 307.367 573.895Z" fill="#262626"/>
<path d="M307.367 551.982H256.625C255.283 551.982 255.283 554.274 256.625 554.274H307.367C308.709 554.274 308.709 551.982 307.367 551.982Z" fill="#262626"/>
<path d="M220.225 83.497C216.087 75.3064 209.797 69.0412 203.255 63.2038C200.068 60.3616 196.853 57.5804 193.778 54.5853C192.995 53.8213 192.212 53.0267 191.457 52.2015C191.01 51.7125 189.724 50.001 189.696 50.1844C189.612 50.5817 191.038 49.1453 191.373 48.8702C192.38 48.0145 193.414 47.2199 194.449 46.4253C209.266 35.1479 227.41 26.1321 233.029 5.65554C234.595 0.00156809 226.487 -2.44339 224.95 3.21058C222.21 13.1432 215.053 20.4476 207.477 26.2238C203.199 29.4634 198.726 32.3667 194.365 35.4535C190.59 38.1124 185.614 40.9852 182.93 45.05C177.003 54.0047 189.388 62.6537 194.812 67.4519C201.634 73.5032 208.651 79.5545 212.984 88.1119C215.584 93.2769 222.825 88.662 220.225 83.497Z" fill="#B0C1BC"/>
</svg>
