<svg width="497" height="372" viewBox="0 0 497 372" fill="none" xmlns="http://www.w3.org/2000/svg">
    <g clip-path="url(#clip0_13_189)">
        <path d="M99.024 372C153.713 372 198.048 368.378 198.048 363.909C198.048 359.441 153.713 355.818 99.024 355.818C44.3345 355.818 0 359.441 0 363.909C0 368.378 44.3345 372 99.024 372Z" fill="#E6E6E6"/>
        <path d="M75.6921 82.5403C92.9252 74.6548 114.389 79.6509 135.351 83.1185C135.547 78.9193 137.911 73.8087 135.434 70.8791C132.425 67.3199 132.702 63.5802 134.513 59.819C139.143 50.2009 132.509 39.9668 125.811 31.4573C124.301 29.5436 122.393 28.04 120.242 27.0686C118.091 26.0971 115.757 25.6853 113.43 25.8666L101.022 26.82C98.0027 27.052 95.1212 28.2705 92.7632 30.3124C90.4052 32.3543 88.6831 35.1222 87.8274 38.2458C84.8646 42.5806 83.2789 46.9035 84.2773 51.2038C79.8396 54.4663 79.094 58.4045 81.0882 62.8441C82.7791 65.6395 82.7611 68.3605 81.0112 71.0062C78.7131 74.3793 76.953 78.1404 75.803 82.1353L75.6921 82.5403Z" fill="#2F2E41"/>
        <path d="M485.223 321.588H133.99C130.867 321.588 127.871 320.253 125.663 317.877C123.454 315.501 122.213 312.278 122.213 308.918C249.535 292.999 374.464 292.999 497 308.918C497 312.278 495.759 315.501 493.551 317.877C491.342 320.253 488.346 321.588 485.223 321.588Z" fill="#2F2E41"/>
        <path d="M497 309.664L122.213 308.918L165.65 230.291L165.857 229.919V56.6338C165.857 54.5305 166.242 52.4477 166.99 50.5045C167.738 48.5612 168.835 46.7956 170.218 45.3083C171.6 43.8211 173.241 42.6413 175.048 41.8365C176.854 41.0317 178.79 40.6175 180.745 40.6177H436.39C438.345 40.6175 440.281 41.0317 442.087 41.8365C443.894 42.6413 445.535 43.8211 446.917 45.3083C448.3 46.7956 449.396 48.5612 450.144 50.5045C450.893 52.4477 451.278 54.5305 451.277 56.6338V231.111L497 309.664Z" fill="#3F3D56"/>
        <path d="M180.406 51.7969C179.12 51.7985 177.887 52.3486 176.978 53.3266C176.069 54.3047 175.558 55.6307 175.556 57.0139V215.013C175.558 216.396 176.069 217.722 176.978 218.7C177.887 219.678 179.12 220.228 180.406 220.23H438.808C440.093 220.228 441.326 219.678 442.235 218.7C443.144 217.722 443.655 216.396 443.657 215.013V57.0139C443.655 55.6307 443.144 54.3047 442.235 53.3267C441.326 52.3487 440.093 51.7985 438.808 51.7969H180.406Z" fill="white"/>
        <path d="M181.488 241.098C181.091 241.099 180.702 241.221 180.368 241.452C180.033 241.683 179.767 242.011 179.6 242.399L166.216 273.701C166.07 274.042 166.007 274.416 166.031 274.79C166.055 275.164 166.166 275.526 166.354 275.842C166.542 276.157 166.801 276.417 167.107 276.597C167.412 276.777 167.755 276.871 168.104 276.871H449.565C449.919 276.871 450.268 276.774 450.577 276.588C450.887 276.403 451.147 276.135 451.333 275.811C451.519 275.487 451.625 275.117 451.641 274.736C451.657 274.355 451.582 273.976 451.423 273.635L436.875 242.334C436.704 241.962 436.439 241.649 436.11 241.43C435.782 241.212 435.403 241.097 435.017 241.098H181.488Z" fill="#2F2E41"/>
        <path d="M308.567 49.1884C310.289 49.1884 311.685 47.6869 311.685 45.8347C311.685 43.9825 310.289 42.4809 308.567 42.4809C306.846 42.4809 305.45 43.9825 305.45 45.8347C305.45 47.6869 306.846 49.1884 308.567 49.1884Z" fill="white"/>
        <path d="M280.902 282.834C280.445 282.834 280.001 282.996 279.639 283.295C279.276 283.594 279.015 284.013 278.895 284.488L275.538 297.903C275.455 298.234 275.444 298.582 275.506 298.918C275.568 299.255 275.701 299.572 275.895 299.844C276.089 300.117 276.339 300.337 276.625 300.489C276.911 300.641 277.226 300.72 277.545 300.72H341.393C341.724 300.72 342.051 300.635 342.345 300.472C342.639 300.308 342.893 300.072 343.085 299.781C343.278 299.491 343.402 299.155 343.449 298.802C343.497 298.45 343.464 298.09 343.356 297.753L339.04 284.338C338.898 283.899 338.633 283.518 338.281 283.248C337.929 282.979 337.508 282.834 337.076 282.834H280.902Z" fill="#2F2E41"/>
        <path d="M451.277 227.31V230.291H165.65L165.864 229.919V227.31H451.277Z" fill="#2F2E41"/>
        <path d="M443.311 104.339C470.093 104.339 491.804 80.982 491.804 52.1696C491.804 23.3571 470.093 0 443.311 0C416.528 0 394.817 23.3571 394.817 52.1696C394.817 80.982 416.528 104.339 443.311 104.339Z" fill="#9ADCC1"/>
        <path d="M463.401 74.9006H423.22C422.486 74.8998 421.781 74.5855 421.262 74.0266C420.742 73.4677 420.45 72.7099 420.449 71.9195V45.8347C420.45 45.0443 420.742 44.2865 421.262 43.7276C421.781 43.1688 422.486 42.8544 423.22 42.8536H463.401C464.135 42.8544 464.84 43.1688 465.359 43.7276C465.879 44.2865 466.171 45.0443 466.172 45.8347V71.9194C466.171 72.7099 465.879 73.4677 465.359 74.0266C464.84 74.5855 464.135 74.8998 463.401 74.9006ZM423.22 45.8347V71.9195H463.403L463.401 45.8347L423.22 45.8347Z" fill="white"/>
        <path d="M455.78 45.8347H430.841V33.9102C430.841 25.2733 436.085 19.0046 443.31 19.0046C450.536 19.0046 455.78 25.2733 455.78 33.9102L455.78 45.8347ZM433.612 42.8536H453.009V33.9102C453.009 26.8893 449.021 21.9858 443.311 21.9858C437.6 21.9858 433.612 26.8894 433.612 33.9102L433.612 42.8536Z" fill="white"/>
        <path d="M443.311 61.1129C444.841 61.1129 446.082 59.7782 446.082 58.1318C446.082 56.4854 444.841 55.1507 443.311 55.1507C441.78 55.1507 440.539 56.4854 440.539 58.1318C440.539 59.7782 441.78 61.1129 443.311 61.1129Z" fill="white"/>
        <path d="M409.458 166.638H209.755C208.775 166.637 207.835 166.218 207.142 165.472C206.448 164.726 206.058 163.715 206.057 162.66V109.367C206.058 108.312 206.448 107.301 207.142 106.555C207.835 105.809 208.775 105.39 209.755 105.389H409.458C410.438 105.39 411.378 105.809 412.071 106.555C412.765 107.301 413.155 108.312 413.156 109.367V162.66C413.155 163.715 412.765 164.726 412.071 165.472C411.378 166.218 410.438 166.637 409.458 166.638ZM209.755 106.98C209.167 106.981 208.603 107.232 208.187 107.68C207.771 108.128 207.537 108.734 207.536 109.367V162.66C207.537 163.293 207.771 163.899 208.187 164.347C208.603 164.795 209.167 165.046 209.755 165.047H409.458C410.046 165.046 410.61 164.795 411.026 164.347C411.442 163.899 411.676 163.293 411.677 162.66V109.367C411.676 108.734 411.442 108.127 411.026 107.68C410.61 107.232 410.046 106.981 409.458 106.98L209.755 106.98Z" fill="#E6E6E6"/>
        <path d="M240.785 150.175C249.105 150.175 255.85 142.919 255.85 133.969C255.85 125.018 249.105 117.762 240.785 117.762C232.465 117.762 225.721 125.018 225.721 133.969C225.721 142.919 232.465 150.175 240.785 150.175Z" fill="#E6E6E6"/>
        <path d="M275.577 123.164C275.247 123.164 274.92 123.233 274.615 123.369C274.31 123.504 274.032 123.703 273.799 123.954C273.565 124.205 273.38 124.503 273.254 124.831C273.127 125.159 273.062 125.51 273.062 125.865C273.062 126.221 273.127 126.572 273.254 126.9C273.38 127.228 273.565 127.526 273.799 127.777C274.032 128.028 274.31 128.227 274.615 128.362C274.92 128.498 275.247 128.567 275.577 128.567H393.94C394.606 128.567 395.245 128.282 395.716 127.775C396.187 127.269 396.451 126.582 396.451 125.865C396.451 125.149 396.187 124.462 395.716 123.956C395.245 123.449 394.606 123.164 393.94 123.164H275.577Z" fill="#E6E6E6"/>
        <path d="M275.577 139.371C274.911 139.371 274.272 139.655 273.801 140.162C273.331 140.668 273.066 141.355 273.066 142.072C273.066 142.788 273.331 143.475 273.801 143.982C274.272 144.488 274.911 144.773 275.577 144.773H326.509C327.175 144.773 327.813 144.488 328.284 143.982C328.755 143.475 329.02 142.788 329.02 142.072C329.02 141.355 328.755 140.668 328.284 140.162C327.813 139.655 327.175 139.371 326.509 139.371H275.577Z" fill="#E6E6E6"/>
        <path d="M165.158 140.463L128.242 161.578L127.774 143.982C139.824 141.818 151.287 138.051 161.887 131.917L165.748 121.655C166.169 120.537 166.853 119.556 167.732 118.808C168.612 118.06 169.657 117.571 170.766 117.388C171.874 117.206 173.008 117.337 174.055 117.769C175.102 118.2 176.027 118.917 176.739 119.85C177.78 121.214 178.301 122.952 178.195 124.713C178.089 126.475 177.365 128.127 176.169 129.335L165.158 140.463Z" fill="#FFB8B8"/>
        <path d="M74.9562 262.369C74.6869 261.307 74.6297 260.195 74.7884 259.107C74.9472 258.019 75.3182 256.979 75.8771 256.056L83.9866 242.667C85.9047 239.501 88.8478 237.213 92.245 236.249C95.6422 235.285 99.2512 235.713 102.372 237.449C98.9636 243.69 99.4387 249.165 103.549 253.923C97.1684 257.274 91.2713 261.599 86.0404 266.764C85.0854 267.465 83.9887 267.909 82.8417 268.061C81.6946 268.214 80.5303 268.069 79.4459 267.639C78.3615 267.209 77.3882 266.506 76.6073 265.589C75.8263 264.673 75.2603 263.569 74.9562 262.369Z" fill="#2F2E41"/>
        <path d="M166.84 244.863C165.612 247.063 163.88 248.887 161.809 250.16C159.738 251.433 157.398 252.111 155.013 252.131L101.138 252.57L98.8018 237.991L122.634 230.45L102.54 213.86L124.503 186.211L164.395 226.21C166.726 228.548 168.241 231.676 168.686 235.071C169.131 238.466 168.479 241.923 166.84 244.863Z" fill="#2F2E41"/>
        <path d="M92.727 344.568H80.1099C68.7816 261.031 57.2505 177.26 91.3251 145.993L131.513 153.031L126.372 189.73L103.942 217.379L92.727 344.568Z" fill="#2F2E41"/>
        <path d="M103.818 363.491C102.83 363.781 101.797 363.843 100.785 363.672C99.7739 363.501 98.8075 363.102 97.9497 362.501L84.2502 360.52C81.3065 358.457 79.1801 355.291 78.2836 351.636C77.3871 347.981 77.7845 344.099 79.3987 340.741C85.2002 344.408 90.2895 343.896 94.712 339.474C97.8369 346.262 102.985 345.848 107.903 351.567C108.554 352.594 108.967 353.774 109.109 355.008C109.25 356.242 109.115 357.494 108.716 358.661C108.316 359.828 107.663 360.875 106.811 361.715C105.959 362.555 104.933 363.164 103.818 363.491Z" fill="#2F2E41"/>
        <path d="M122.634 90.1914L99.2691 84.1588C103.15 75.6135 103.469 66.1052 101.606 56.0065L117.494 55.5037C117.992 68.0618 119.498 79.7941 122.634 90.1914Z" fill="#FFB8B8"/>
        <path d="M129.056 168.168C112.047 180.637 100.029 168.595 90.8578 150.015C92.1322 138.646 90.0687 125.041 86.2471 110.258C84.5474 103.737 85.182 96.7681 88.0254 90.7264C90.8688 84.6846 95.7144 80.0093 101.606 77.6234L121.699 86.6724C138.761 101.634 142.12 117.841 135.718 134.934L129.056 168.168Z" fill="#9ADCC1"/>
        <path d="M80.1099 102.759L61.418 113.317L94.5961 134.431L99.2127 146.681C99.5208 147.499 99.6709 148.376 99.6538 149.258C99.6368 150.14 99.4529 151.009 99.1134 151.812C98.7739 152.615 98.2859 153.336 97.6792 153.929C97.0724 154.523 96.3597 154.977 95.5843 155.265C94.703 155.592 93.7633 155.695 92.8387 155.566C91.9142 155.437 91.03 155.08 90.2553 154.522C89.4806 153.964 88.8365 153.22 88.3735 152.35C87.9104 151.479 87.641 150.505 87.5862 149.504L87.1194 140.966L44.9503 125.995C43.5296 125.491 42.2341 124.645 41.1621 123.523C40.0901 122.4 39.2696 121.029 38.7628 119.515C38.0241 117.308 37.9865 114.899 38.6559 112.666C39.3253 110.433 40.6638 108.502 42.4622 107.175L76.3715 82.1479L80.1099 102.759Z" fill="#FFB8B8"/>
        <path d="M98.8018 104.77C91.0061 101.095 83.9173 105.087 74.9696 108.289L73.5677 81.6452C82.4524 76.5508 90.9233 75.1773 98.8018 79.1316L98.8018 104.77Z" fill="#9ADCC1"/>
        <path d="M108.127 68.7015C116.366 68.7015 123.045 61.5164 123.045 52.6532C123.045 43.7899 116.366 36.6048 108.127 36.6048C99.8885 36.6048 93.2097 43.7899 93.2097 52.6532C93.2097 61.5164 99.8885 68.7015 108.127 68.7015Z" fill="#FFB8B8"/>
        <path d="M125.974 50.6283C111.204 52.1845 99.9494 49.5859 92.7566 42.1867V36.228H124.72L125.974 50.6283Z" fill="#2F2E41"/>
    </g>
    <defs>
        <clipPath id="clip0_13_189">
            <rect width="497" height="372" fill="white"/>
        </clipPath>
    </defs>
</svg>
